%FSLAX44Y44*%
%MOMM*%
G71*
G01*
G75*
G04 Layer_Color=16711935*
%ADD10C,0.2540*%
%ADD11R,3.1600X1.0000*%
%ADD12R,0.7620X0.7620*%
%ADD13R,0.7620X0.7620*%
%ADD14R,1.2700X0.9144*%
%ADD15R,0.9144X0.9144*%
%ADD16R,2.2000X1.0500*%
%ADD17R,1.0500X1.0000*%
%ADD18R,1.9000X0.8000*%
%ADD19R,3.0000X1.0000*%
%ADD20O,3.0000X1.0000*%
%ADD21R,6.5000X5.9000*%
%ADD22R,3.0000X1.2000*%
%ADD23R,2.0000X2.5000*%
G04:AMPARAMS|DCode=24|XSize=2.032mm|YSize=0.6096mm|CornerRadius=0.061mm|HoleSize=0mm|Usage=FLASHONLY|Rotation=90.000|XOffset=0mm|YOffset=0mm|HoleType=Round|Shape=RoundedRectangle|*
%AMROUNDEDRECTD24*
21,1,2.0320,0.4877,0,0,90.0*
21,1,1.9101,0.6096,0,0,90.0*
1,1,0.1219,0.2438,0.9550*
1,1,0.1219,0.2438,-0.9550*
1,1,0.1219,-0.2438,-0.9550*
1,1,0.1219,-0.2438,0.9550*
%
%ADD24ROUNDEDRECTD24*%
G04:AMPARAMS|DCode=25|XSize=2.032mm|YSize=0.6096mm|CornerRadius=0.1524mm|HoleSize=0mm|Usage=FLASHONLY|Rotation=90.000|XOffset=0mm|YOffset=0mm|HoleType=Round|Shape=RoundedRectangle|*
%AMROUNDEDRECTD25*
21,1,2.0320,0.3048,0,0,90.0*
21,1,1.7272,0.6096,0,0,90.0*
1,1,0.3048,0.1524,0.8636*
1,1,0.3048,0.1524,-0.8636*
1,1,0.3048,-0.1524,-0.8636*
1,1,0.3048,-0.1524,0.8636*
%
%ADD25ROUNDEDRECTD25*%
%ADD26R,0.6096X2.0320*%
%ADD27R,1.2000X0.3000*%
%ADD28R,0.3000X1.2000*%
%ADD29R,1.5240X1.2700*%
%ADD30R,1.2000X6.0960*%
%ADD31R,0.5000X1.0000*%
%ADD32R,1.2700X1.5240*%
%ADD33R,0.8000X0.3500*%
%ADD34C,0.6000*%
%ADD35C,0.4000*%
%ADD36C,0.5000*%
%ADD37C,1.4000*%
%ADD38C,0.2032*%
%ADD39C,1.0000*%
%ADD40C,2.0000*%
%ADD41C,0.2500*%
%ADD42C,0.0000*%
%ADD43C,0.1016*%
%ADD44C,0.1020*%
%ADD45C,1.5240*%
%ADD46C,1.7780*%
%ADD47R,1.7780X1.7780*%
%ADD48C,1.7000*%
%ADD49R,1.5240X1.5240*%
%ADD50O,2.0320X4.5720*%
%ADD51O,4.5720X2.0320*%
%ADD52C,1.8000*%
%ADD53R,1.7780X1.7780*%
%ADD54O,3.2000X3.3000*%
%ADD55C,1.0000*%
%ADD56C,2.5000*%
%ADD57C,5.0000*%
%ADD58C,1.2700*%
%ADD59C,4.5000*%
%ADD60C,4.0000*%
%ADD61C,0.8000*%
%ADD62C,0.1270*%
%ADD63C,0.2000*%
%ADD64R,2.5303X2.5400*%
%ADD65R,1.4500X5.0750*%
%ADD66R,0.9652X2.1336*%
%ADD67R,0.2200X1.0000*%
%ADD68R,1.0000X0.2200*%
%ADD69R,2.5400X2.5303*%
%ADD70R,3.3632X1.2032*%
%ADD71R,0.9652X0.9652*%
%ADD72R,0.9652X0.9652*%
%ADD73R,1.4732X1.1176*%
%ADD74R,1.1176X1.1176*%
%ADD75R,2.4032X1.2532*%
%ADD76R,1.2532X1.2032*%
%ADD77R,2.1032X1.0032*%
%ADD78R,3.2032X1.2032*%
%ADD79O,3.2032X1.2032*%
%ADD80R,6.7032X6.1032*%
%ADD81R,3.2032X1.4032*%
%ADD82R,2.2032X2.7032*%
G04:AMPARAMS|DCode=83|XSize=2.2352mm|YSize=0.8128mm|CornerRadius=0.1626mm|HoleSize=0mm|Usage=FLASHONLY|Rotation=90.000|XOffset=0mm|YOffset=0mm|HoleType=Round|Shape=RoundedRectangle|*
%AMROUNDEDRECTD83*
21,1,2.2352,0.4877,0,0,90.0*
21,1,1.9101,0.8128,0,0,90.0*
1,1,0.3251,0.2438,0.9550*
1,1,0.3251,0.2438,-0.9550*
1,1,0.3251,-0.2438,-0.9550*
1,1,0.3251,-0.2438,0.9550*
%
%ADD83ROUNDEDRECTD83*%
G04:AMPARAMS|DCode=84|XSize=2.2352mm|YSize=0.8128mm|CornerRadius=0.254mm|HoleSize=0mm|Usage=FLASHONLY|Rotation=90.000|XOffset=0mm|YOffset=0mm|HoleType=Round|Shape=RoundedRectangle|*
%AMROUNDEDRECTD84*
21,1,2.2352,0.3048,0,0,90.0*
21,1,1.7272,0.8128,0,0,90.0*
1,1,0.5080,0.1524,0.8636*
1,1,0.5080,0.1524,-0.8636*
1,1,0.5080,-0.1524,-0.8636*
1,1,0.5080,-0.1524,0.8636*
%
%ADD84ROUNDEDRECTD84*%
%ADD85R,0.8128X2.2352*%
%ADD86R,1.4032X0.5032*%
%ADD87R,0.5032X1.4032*%
%ADD88R,1.7272X1.4732*%
%ADD89R,1.4032X6.2992*%
%ADD90R,0.7032X1.2032*%
%ADD91R,1.4732X1.7272*%
%ADD92R,1.0032X0.5532*%
%ADD93C,1.7272*%
%ADD94C,1.9812*%
%ADD95R,1.9812X1.9812*%
%ADD96C,1.9032*%
%ADD97R,1.7272X1.7272*%
%ADD98O,2.2352X4.7752*%
%ADD99O,4.7752X2.2352*%
%ADD100C,2.0032*%
%ADD101R,1.9812X1.9812*%
%ADD102O,3.4032X3.5032*%
%ADD103C,1.2032*%
%ADD104C,2.7032*%
%ADD105C,5.2032*%
%ADD106C,1.4732*%
%ADD107C,4.7032*%
%ADD108C,4.2032*%
G36*
X1620242Y1685564D02*
X1623468Y1684274D01*
X1625403Y1682984D01*
X1626694Y1681694D01*
X1628629Y1679758D01*
X1630565Y1675887D01*
Y1669435D01*
X1629919Y1666855D01*
X1628629Y1664919D01*
X1627339Y1662984D01*
X1624758Y1661048D01*
X1622177Y1659758D01*
X1619597Y1659113D01*
X1615081Y1658468D01*
X1613145D01*
X1608629Y1659113D01*
X1604758Y1660403D01*
X1602177Y1662339D01*
X1600242Y1664274D01*
X1598952Y1666855D01*
Y1668790D01*
X1605403D01*
X1606048Y1667823D01*
X1606694Y1666532D01*
X1607984Y1664597D01*
X1609919Y1663629D01*
X1611210Y1662984D01*
X1617016D01*
X1619597Y1664274D01*
X1622177Y1666532D01*
X1623468Y1669435D01*
Y1675887D01*
X1621532Y1679113D01*
X1619597Y1680403D01*
X1616694Y1681694D01*
X1610565D01*
X1608629Y1680403D01*
X1607016Y1679113D01*
X1606694Y1677823D01*
X1599597D01*
Y1679113D01*
X1601210Y1681371D01*
X1603468Y1683629D01*
X1605403Y1684919D01*
X1607339Y1685564D01*
X1609919Y1686210D01*
X1617661D01*
X1620242Y1685564D01*
D02*
G37*
G36*
X1666694Y1684919D02*
X1669274Y1683629D01*
X1673726Y1679048D01*
X1674371Y1677823D01*
X1675081Y1675887D01*
Y1673952D01*
X1673790D01*
X1673274Y1675435D01*
X1672500Y1677177D01*
X1671532Y1678726D01*
X1669274Y1681048D01*
X1667661Y1682339D01*
X1666113Y1683177D01*
X1665081Y1683629D01*
X1664113D01*
Y1682016D01*
X1665403Y1681694D01*
X1667016Y1681048D01*
X1669919Y1678468D01*
X1671855Y1675887D01*
Y1673952D01*
X1667339D01*
X1665403Y1672016D01*
X1667339Y1670726D01*
X1671855D01*
Y1668790D01*
X1669274Y1664919D01*
X1667016Y1663629D01*
X1663468Y1662661D01*
Y1661048D01*
X1667403Y1662210D01*
X1668629Y1662984D01*
X1669726Y1663952D01*
X1671919Y1666145D01*
X1672500Y1667500D01*
X1673145Y1669435D01*
X1673790Y1670726D01*
X1675081D01*
Y1668790D01*
X1674435Y1666855D01*
X1673790Y1665565D01*
X1669274Y1661048D01*
X1666694Y1659758D01*
X1663468Y1659113D01*
X1660887D01*
X1657661Y1659758D01*
X1655081Y1661048D01*
X1650629Y1665629D01*
X1649984Y1666855D01*
X1649274Y1668790D01*
Y1670726D01*
X1650565D01*
X1651081Y1669242D01*
X1651855Y1667500D01*
X1652823Y1665952D01*
X1655081Y1663629D01*
X1656694Y1662339D01*
X1658242Y1661500D01*
X1659274Y1661048D01*
X1660242D01*
Y1662661D01*
X1658952Y1662984D01*
X1657339Y1663629D01*
X1654435Y1666210D01*
X1652500Y1668790D01*
Y1670726D01*
X1657661D01*
X1658952Y1672016D01*
X1657016Y1673952D01*
X1652500D01*
Y1675887D01*
X1653790Y1677823D01*
X1655081Y1679758D01*
X1657339Y1681048D01*
X1660887Y1682016D01*
Y1683629D01*
X1656952Y1682468D01*
X1655726Y1681694D01*
X1654629Y1680726D01*
X1652435Y1678532D01*
X1651855Y1677177D01*
X1651210Y1675242D01*
X1650565Y1673952D01*
X1649274D01*
Y1675887D01*
X1649919Y1677823D01*
X1650565Y1679113D01*
X1655081Y1683629D01*
X1657661Y1684919D01*
X1660887Y1685564D01*
X1663468D01*
X1666694Y1684919D01*
D02*
G37*
G36*
X746615Y2381025D02*
X747915Y2380086D01*
X749361Y2377990D01*
X750734Y2375533D01*
X754275Y2367801D01*
X758972Y2357611D01*
X761501Y2352408D01*
X763814Y2348650D01*
X764392Y2349228D01*
X767427Y2355154D01*
X771619Y2363898D01*
X774871Y2371053D01*
X777183Y2375461D01*
X780002Y2379869D01*
X781591Y2381098D01*
X782748Y2381242D01*
X783904Y2380809D01*
X784771Y2380230D01*
X785494Y2379580D01*
X784699Y2375822D01*
X784554Y2372426D01*
X784627Y2368234D01*
X784699Y2363465D01*
X784988Y2359634D01*
X785638Y2353347D01*
X786650Y2348000D01*
X787734Y2343302D01*
X789035Y2339183D01*
X785277Y2337665D01*
X784121Y2337738D01*
X782965Y2338460D01*
X782242Y2340990D01*
X781881Y2344747D01*
X781519Y2351685D01*
X781230Y2358767D01*
X780941Y2364910D01*
X780508Y2370836D01*
X767861Y2344097D01*
X765837Y2340339D01*
X764681Y2339472D01*
X763814D01*
X762802Y2340412D01*
X760345Y2345326D01*
X748132Y2371053D01*
X746976Y2356021D01*
X746398Y2343663D01*
X746181Y2340339D01*
X745820Y2338894D01*
X744591Y2337882D01*
X742857Y2337738D01*
X740110Y2338388D01*
X738593Y2339183D01*
X740038Y2343808D01*
X741484Y2350240D01*
X742568Y2358478D01*
X743073Y2366572D01*
Y2372715D01*
X742712Y2376906D01*
X742134Y2379580D01*
X743435Y2380664D01*
X745169Y2381314D01*
X746615Y2381025D01*
D02*
G37*
G36*
X1525403Y1659113D02*
X1518952D01*
Y1676532D01*
X1518307D01*
X1504113Y1659113D01*
X1496371D01*
Y1686210D01*
X1502823D01*
Y1666855D01*
X1518307Y1686210D01*
X1525403D01*
Y1659113D01*
D02*
G37*
G36*
X1655726Y1671371D02*
X1635081D01*
Y1671694D01*
Y1673306D01*
X1655726D01*
Y1671371D01*
D02*
G37*
G36*
X1646048Y1673952D02*
X1644113D01*
Y1675242D01*
X1634435D01*
Y1677177D01*
X1644113D01*
Y1679113D01*
X1633790D01*
X1632177Y1681048D01*
X1644113D01*
Y1683629D01*
X1630565D01*
X1627661Y1686210D01*
X1644113D01*
Y1704919D01*
X1646048D01*
Y1673952D01*
D02*
G37*
G36*
X662063Y2382615D02*
X666399Y2381820D01*
X670590Y2380520D01*
X674420Y2378641D01*
X678612Y2375750D01*
X682008Y2372426D01*
X685405Y2367078D01*
X686705Y2363392D01*
X687284Y2358550D01*
X687067Y2354503D01*
X685911Y2350529D01*
X683670Y2346843D01*
X680852Y2343808D01*
X677094Y2341279D01*
X673119Y2339400D01*
X668639Y2338316D01*
X663869Y2337738D01*
X659678D01*
X654908Y2338244D01*
X651439Y2339255D01*
X649344Y2340484D01*
X648621Y2341062D01*
X648115Y2341785D01*
X647103Y2344242D01*
X646164Y2348794D01*
X645947Y2352552D01*
Y2354648D01*
X646019Y2356166D01*
X646236Y2357466D01*
X646670Y2358623D01*
X647320Y2359418D01*
X648115Y2359924D01*
X649560Y2360140D01*
X650572Y2359924D01*
X651801Y2359418D01*
X653174Y2358840D01*
X654113Y2358117D01*
X653174Y2356671D01*
X652451Y2354937D01*
X652018Y2352480D01*
X651945Y2350168D01*
X652018Y2348000D01*
X652090Y2346048D01*
X652379Y2344314D01*
X655992Y2343230D01*
X660039Y2342724D01*
X663580Y2342796D01*
X667772Y2343374D01*
X671529Y2344531D01*
X674781Y2346265D01*
X677383Y2348650D01*
X679118Y2351324D01*
X680274Y2354576D01*
X680780Y2357900D01*
X680635Y2361730D01*
X679623Y2365488D01*
X677961Y2368668D01*
X675793Y2371197D01*
X672975Y2373510D01*
X669361Y2375461D01*
X665820Y2376545D01*
X662279Y2376978D01*
X658883D01*
X656137Y2376689D01*
X654402Y2376039D01*
X653463Y2378062D01*
X653246Y2379797D01*
X653391Y2380881D01*
X654185Y2381820D01*
X655920Y2382471D01*
X658377Y2382688D01*
X662063Y2382615D01*
D02*
G37*
G36*
X1553790Y1684274D02*
X1556371Y1682984D01*
X1558307Y1680403D01*
Y1676532D01*
X1556371Y1673952D01*
X1553790Y1672016D01*
X1549274Y1670726D01*
X1545403Y1670081D01*
X1542178Y1669435D01*
X1540242Y1668790D01*
X1538629Y1667500D01*
Y1665565D01*
X1539274Y1664274D01*
X1540887Y1663629D01*
X1541855Y1662984D01*
X1549597D01*
X1551210Y1664274D01*
X1552500Y1665565D01*
X1553145Y1666532D01*
X1553790Y1667500D01*
X1559597D01*
Y1665565D01*
X1558307Y1662984D01*
X1555726Y1660403D01*
X1551855Y1659113D01*
X1546694Y1658468D01*
X1542178D01*
X1538307Y1659113D01*
X1533790Y1661694D01*
X1531855Y1664274D01*
Y1668790D01*
X1533145Y1670726D01*
X1535081Y1672661D01*
X1540887Y1674597D01*
X1547339Y1675887D01*
X1551210Y1677177D01*
X1551855Y1678145D01*
Y1680081D01*
X1548629Y1681048D01*
X1543468D01*
X1541532Y1680403D01*
X1540242Y1679113D01*
X1539597Y1677823D01*
X1533145D01*
Y1680403D01*
X1534436Y1682339D01*
X1537016Y1684274D01*
X1540887Y1685564D01*
X1550565D01*
X1553790Y1684274D01*
D02*
G37*
G36*
X1646048Y1654597D02*
X1685403D01*
Y1652661D01*
X1676694D01*
X1674113Y1651694D01*
X1670565Y1649758D01*
X1666371Y1646532D01*
X1662823Y1643306D01*
X1658306Y1637177D01*
X1654435Y1630081D01*
X1650242Y1619758D01*
X1646694Y1603629D01*
X1646048D01*
Y1590726D01*
X1644113D01*
Y1607823D01*
X1643468D01*
Y1609435D01*
X1642823D01*
Y1652661D01*
X1640242D01*
Y1615887D01*
X1638306D01*
Y1652661D01*
X1636371D01*
Y1619113D01*
X1635081D01*
Y1652661D01*
X1632500D01*
Y1622339D01*
X1631210D01*
Y1652661D01*
X1628629D01*
Y1625565D01*
X1626694D01*
Y1652661D01*
X1624758D01*
Y1628145D01*
X1622823D01*
Y1652661D01*
X1620887D01*
Y1630081D01*
X1618952D01*
Y1652661D01*
X1617016D01*
Y1631371D01*
X1615081D01*
Y1652661D01*
X1613145D01*
Y1633306D01*
X1611210D01*
Y1652661D01*
X1609274D01*
Y1634597D01*
X1607339D01*
Y1652661D01*
X1605403D01*
Y1636532D01*
X1603468D01*
Y1652661D01*
X1601532D01*
Y1637823D01*
X1599597D01*
Y1652661D01*
X1597661D01*
Y1638468D01*
X1595726D01*
Y1652661D01*
X1593145D01*
Y1639758D01*
X1591855D01*
Y1652661D01*
X1589274D01*
Y1641048D01*
X1587984D01*
Y1652661D01*
X1585403D01*
Y1641694D01*
X1583468D01*
Y1652661D01*
X1581532D01*
Y1642984D01*
X1579597D01*
Y1652661D01*
X1577661D01*
Y1643629D01*
X1575726D01*
Y1652661D01*
X1573790D01*
Y1644274D01*
X1571855D01*
Y1652661D01*
X1569919D01*
Y1644919D01*
X1567984D01*
Y1652661D01*
X1566048D01*
Y1645565D01*
X1564113D01*
Y1652661D01*
X1562178D01*
Y1646210D01*
X1560242D01*
Y1652661D01*
X1558307D01*
Y1646855D01*
X1556371D01*
Y1652661D01*
X1554436D01*
Y1647500D01*
X1552500D01*
Y1652661D01*
X1549919D01*
Y1647500D01*
X1548629D01*
Y1652661D01*
X1546694D01*
Y1648145D01*
X1544758D01*
Y1652661D01*
X1542823D01*
Y1648145D01*
X1540242D01*
Y1652661D01*
X1538307D01*
Y1648790D01*
X1536371D01*
Y1652661D01*
X1534436D01*
Y1649435D01*
X1532500D01*
Y1652661D01*
X1530565D01*
Y1649435D01*
X1528629D01*
Y1652661D01*
X1526694D01*
Y1649435D01*
X1524758D01*
Y1652661D01*
X1522823D01*
Y1649435D01*
X1520887D01*
Y1652661D01*
X1518952D01*
Y1649435D01*
X1427339D01*
Y1654597D01*
X1644113D01*
Y1657823D01*
X1627339D01*
Y1658468D01*
X1631210Y1661694D01*
X1644113D01*
Y1662984D01*
X1632500D01*
X1633790Y1665565D01*
X1644113D01*
Y1667500D01*
X1634435D01*
Y1669435D01*
X1644113D01*
Y1670403D01*
Y1670726D01*
X1646048D01*
Y1654597D01*
D02*
G37*
G36*
X744808Y2453509D02*
X745097Y2453292D01*
X745314Y2453003D01*
X745458Y2452714D01*
X745603Y2452352D01*
Y2451702D01*
X745386Y2450979D01*
X745025Y2450546D01*
X744591Y2450257D01*
X743941Y2450040D01*
X742423Y2449534D01*
X741050Y2448956D01*
X739821Y2448306D01*
X738376Y2447366D01*
X737292Y2446571D01*
X736064Y2445559D01*
X735269Y2444765D01*
X734474Y2443897D01*
X733317Y2442452D01*
X732667Y2441585D01*
X731872Y2440284D01*
X731294Y2439200D01*
X730571Y2437682D01*
X730065Y2436382D01*
X729776Y2435442D01*
X729560Y2434792D01*
X751818D01*
X752685Y2434647D01*
X753335Y2434286D01*
X753769Y2433852D01*
X753986Y2433563D01*
X754130Y2433274D01*
X754275Y2432985D01*
X754347Y2432624D01*
Y2431829D01*
X754275Y2431395D01*
X754130Y2431106D01*
X753913Y2430672D01*
X753480Y2429950D01*
X753046Y2429155D01*
X741700Y2409571D01*
X782764D01*
X782730Y2409670D01*
X783037Y2410221D01*
X783398Y2410871D01*
X784049Y2411666D01*
X784988Y2412389D01*
X785711Y2412823D01*
X786650Y2413256D01*
X787445Y2413473D01*
X788818Y2413545D01*
X790047Y2413473D01*
X791348Y2413112D01*
X792793Y2412317D01*
X793949Y2411160D01*
X794816Y2409787D01*
X795322Y2407836D01*
Y2406174D01*
X795033Y2404801D01*
X794238Y2403284D01*
X793010Y2401910D01*
X791420Y2400899D01*
X789613Y2400465D01*
X787734D01*
X786217Y2400899D01*
X784916Y2401549D01*
X784121Y2402344D01*
X783326Y2403211D01*
X782748Y2404440D01*
X738737D01*
X716263Y2365560D01*
X716335Y2327829D01*
X716429Y2327856D01*
X717491Y2327259D01*
X718430Y2326464D01*
X719153Y2325597D01*
X719731Y2324441D01*
X720237Y2322995D01*
X720310Y2322200D01*
Y2321116D01*
X720020Y2319671D01*
X719587Y2318732D01*
X719009Y2317792D01*
X718141Y2316853D01*
X717130Y2316130D01*
X715973Y2315552D01*
X714890Y2315263D01*
X714239Y2315190D01*
X713155D01*
X712216Y2315335D01*
X711276Y2315624D01*
X710264Y2316130D01*
X709397Y2316780D01*
X708747Y2317431D01*
X708024Y2318370D01*
X707518Y2319454D01*
X707229Y2320394D01*
X707085Y2321333D01*
Y2322417D01*
X707301Y2323501D01*
X707663Y2324513D01*
X708241Y2325525D01*
X708964Y2326464D01*
X709614Y2327042D01*
X710409Y2327548D01*
X711132Y2327837D01*
Y2365633D01*
X711133Y2365636D01*
X711119Y2365635D01*
X688657Y2404440D01*
X645152D01*
X645052Y2404477D01*
X645097Y2404341D01*
X644213Y2402778D01*
X643056Y2401694D01*
X641394Y2400826D01*
X640166Y2400465D01*
X639515Y2400393D01*
X638721D01*
X637998Y2400465D01*
X637131Y2400682D01*
X636191Y2401043D01*
X635324Y2401549D01*
X634674Y2402055D01*
X634023Y2402705D01*
X633373Y2403645D01*
X632867Y2404657D01*
X632650Y2405379D01*
X632506Y2406102D01*
Y2407981D01*
X632722Y2408920D01*
X633011Y2409715D01*
X633301Y2410293D01*
X633806Y2411016D01*
X634312Y2411594D01*
X634818Y2412100D01*
X635396Y2412534D01*
X636263Y2413039D01*
X637058Y2413329D01*
X637925Y2413545D01*
X638431Y2413618D01*
X639732D01*
X640599Y2413473D01*
X641539Y2413184D01*
X642551Y2412678D01*
X643201Y2412172D01*
X643707Y2411739D01*
X644140Y2411305D01*
X644502Y2410871D01*
X644863Y2410221D01*
X645120Y2409643D01*
X685694Y2409571D01*
X674142Y2429661D01*
X674131D01*
X673625Y2430528D01*
X673264Y2431178D01*
X673047Y2431756D01*
Y2432190D01*
X673119Y2432841D01*
X673264Y2433274D01*
X673481Y2433708D01*
X673842Y2434069D01*
X674276Y2434430D01*
X674709Y2434647D01*
X675071Y2434792D01*
X697184D01*
X697040Y2435370D01*
X696895Y2435948D01*
X696606Y2436671D01*
X696389Y2437321D01*
X696028Y2438044D01*
X695667Y2438839D01*
X695305Y2439561D01*
X695016Y2440067D01*
X694655Y2440645D01*
X693788Y2442018D01*
X692487Y2443681D01*
X691330Y2444909D01*
X690174Y2445993D01*
X689018Y2446933D01*
X687934Y2447727D01*
X686850Y2448378D01*
X685983Y2448811D01*
X684682Y2449389D01*
X683526Y2449823D01*
X682586Y2450112D01*
X681936Y2450401D01*
X681502Y2450763D01*
X681213Y2451268D01*
X681141Y2451557D01*
Y2452280D01*
X681285Y2452714D01*
X681502Y2453075D01*
X681791Y2453364D01*
X682080Y2453581D01*
X682442Y2453725D01*
X683381D01*
X683887Y2453581D01*
X684827Y2453292D01*
X685838Y2452931D01*
X686995Y2452425D01*
X688295Y2451774D01*
X689452Y2451124D01*
X690536Y2450401D01*
X691114Y2449968D01*
X691981Y2449317D01*
X692704Y2448667D01*
X693210Y2448233D01*
X693788Y2447727D01*
X694366Y2447149D01*
X694872Y2446571D01*
X695450Y2445921D01*
X695956Y2445270D01*
X696461Y2444620D01*
X697040Y2443825D01*
X697329Y2443391D01*
X697834Y2442596D01*
X698413Y2441585D01*
X698991Y2440428D01*
X699352Y2439706D01*
X699858Y2438477D01*
X700147Y2437682D01*
X700436Y2436815D01*
X700653Y2436093D01*
X700870Y2435298D01*
X700942Y2434792D01*
X725802D01*
X726091Y2436020D01*
X726452Y2437177D01*
X726958Y2438549D01*
X727536Y2439923D01*
X728331Y2441440D01*
X729198Y2443030D01*
X730571Y2444981D01*
X731872Y2446499D01*
X733390Y2448089D01*
X734835Y2449317D01*
X736136Y2450329D01*
X737581Y2451268D01*
X738737Y2451919D01*
X739749Y2452425D01*
X740978Y2452931D01*
X742206Y2453364D01*
X743146Y2453653D01*
X743579Y2453725D01*
X744302D01*
X744808Y2453509D01*
D02*
G37*
G36*
X1456371Y1681694D02*
X1445404D01*
Y1659113D01*
X1438307D01*
Y1681694D01*
X1427339D01*
Y1686210D01*
X1456371D01*
Y1681694D01*
D02*
G37*
G36*
X1593790Y1659113D02*
X1566048D01*
Y1662984D01*
X1586694D01*
Y1670726D01*
X1567984D01*
Y1675242D01*
X1586694D01*
Y1681694D01*
X1566694D01*
Y1686210D01*
X1593790D01*
Y1659113D01*
D02*
G37*
G36*
X1487984D02*
X1460242D01*
Y1662984D01*
X1480887D01*
Y1670726D01*
X1462823D01*
Y1675242D01*
X1480887D01*
Y1681694D01*
X1460887D01*
Y1686210D01*
X1487984D01*
Y1659113D01*
D02*
G37*
%LPC*%
G36*
X1664113Y1670726D02*
X1660242D01*
Y1663629D01*
X1662177Y1662661D01*
X1664113Y1663629D01*
Y1670726D01*
D02*
G37*
G36*
X789180Y2408414D02*
X788457D01*
X787806Y2408053D01*
X787373Y2407475D01*
Y2406590D01*
X787413Y2406574D01*
X787590Y2406102D01*
X788095Y2405668D01*
X788890Y2405452D01*
X789613Y2405741D01*
X790047Y2406246D01*
X790264Y2406897D01*
X790119Y2407547D01*
X789830Y2408053D01*
X789180Y2408414D01*
D02*
G37*
G36*
X639226Y2408487D02*
X638793D01*
X638359Y2408342D01*
X638070Y2408053D01*
X637853Y2407764D01*
X637636Y2407403D01*
Y2406680D01*
X637781Y2406246D01*
X638070Y2405957D01*
X638359Y2405741D01*
X638576Y2405596D01*
X638793Y2405524D01*
X639299D01*
X639804Y2405668D01*
X640094Y2405957D01*
X640310Y2406246D01*
X640383Y2406319D01*
X640527Y2406535D01*
Y2407403D01*
X640310Y2407836D01*
X639949Y2408198D01*
X639588Y2408414D01*
X639226Y2408487D01*
D02*
G37*
G36*
X747337Y2429661D02*
X680009D01*
X680057Y2429588D01*
X713661Y2371486D01*
X713680Y2371447D01*
X747337Y2429661D01*
D02*
G37*
G36*
X1662177Y1682016D02*
X1660242Y1681048D01*
Y1673952D01*
X1664113D01*
Y1681048D01*
X1662177Y1682016D01*
D02*
G37*
G36*
X714022Y2323284D02*
X713444D01*
X713010Y2323140D01*
X712721Y2322851D01*
X712505Y2322634D01*
X712360Y2322345D01*
X712288Y2322056D01*
Y2321622D01*
X712360Y2321189D01*
X712577Y2320900D01*
X712866Y2320611D01*
X713155Y2320466D01*
X713372Y2320394D01*
X714094D01*
X714528Y2320611D01*
X714817Y2320827D01*
X715034Y2321189D01*
X715106Y2321405D01*
Y2322200D01*
X714962Y2322562D01*
X714673Y2322851D01*
X714456Y2323067D01*
X714239Y2323212D01*
X714022Y2323284D01*
D02*
G37*
%LPD*%
G36*
X705639Y2420772D02*
X705928Y2420483D01*
X706217Y2419977D01*
Y2419471D01*
X706073Y2419038D01*
X705784Y2418676D01*
X705134Y2418387D01*
X694583D01*
X694004Y2418604D01*
X693643Y2419038D01*
X693499Y2419471D01*
Y2419905D01*
X693643Y2420266D01*
X694004Y2420700D01*
X694583Y2420916D01*
X705134D01*
X705639Y2420772D01*
D02*
G37*
G36*
X727392Y2425542D02*
X727753Y2425325D01*
X728042Y2424674D01*
Y2420916D01*
X731511D01*
X732017Y2420700D01*
X732306Y2420411D01*
X732595Y2419977D01*
Y2419399D01*
X732378Y2418965D01*
X732089Y2418604D01*
X731583Y2418387D01*
X728042D01*
Y2414629D01*
X727753Y2414051D01*
X727464Y2413762D01*
X727103Y2413618D01*
X726452D01*
X726163Y2413762D01*
X725729Y2414051D01*
X725513Y2414629D01*
Y2418387D01*
X721972D01*
X721466Y2418676D01*
X721177Y2418893D01*
X721032Y2419327D01*
Y2419905D01*
X721104Y2420266D01*
X721466Y2420627D01*
X721972Y2420916D01*
X725513D01*
Y2424602D01*
X725802Y2425253D01*
X726091Y2425542D01*
X726452Y2425686D01*
X727030D01*
X727392Y2425542D01*
D02*
G37*
D42*
X1414500Y1978000D02*
G03*
X1404500Y1968000I0J-10000D01*
G01*
X1404500Y1818000D02*
G03*
X1414500Y1808000I10000J0D01*
G01*
X1564500Y1808000D02*
G03*
X1574500Y1818000I0J10000D01*
G01*
X1574500Y1968000D02*
G03*
X1564500Y1978000I-10000J0D01*
G01*
X1404500Y1818000D02*
Y1968000D01*
X1414500Y1978000D02*
X1564500D01*
X1574500Y1818000D02*
Y1968000D01*
X1414500Y1808000D02*
X1564500D01*
D43*
X327800Y1584270D02*
G03*
X327800Y1572270I0J-6000D01*
G01*
X353200D02*
G03*
X353200Y1584270I0J6000D01*
G01*
X327800Y1646754D02*
G03*
X327800Y1634754I0J-6000D01*
G01*
X353200D02*
G03*
X353200Y1646754I0J6000D01*
G01*
X382252Y1597828D02*
G03*
X394252Y1597828I6000J0D01*
G01*
Y1623228D02*
G03*
X382252Y1623228I-6000J0D01*
G01*
D44*
X327800Y1584270D02*
X353200D01*
X327800Y1572270D02*
X353200D01*
X327800Y1634754D02*
X353200D01*
X327800Y1646754D02*
X353200D01*
X382252Y1597828D02*
Y1623228D01*
X394252Y1597828D02*
Y1623228D01*
D93*
X1292200Y1937300D02*
D03*
X1266800D02*
D03*
Y1911900D02*
D03*
X1292200D02*
D03*
X1266800Y1886500D02*
D03*
X1292200D02*
D03*
X1266800Y1861100D02*
D03*
X1292200D02*
D03*
X1266800Y1835700D02*
D03*
X1292200D02*
D03*
Y1708700D02*
D03*
X1266800D02*
D03*
X1292200Y1734100D02*
D03*
X1266800D02*
D03*
X1292200Y1759500D02*
D03*
X1266800D02*
D03*
X1292200Y1784900D02*
D03*
X1266800D02*
D03*
Y1810300D02*
D03*
X1292200D02*
D03*
Y1581700D02*
D03*
X1266800D02*
D03*
X1292200Y1607100D02*
D03*
X1266800D02*
D03*
X1292200Y1632500D02*
D03*
X1266800D02*
D03*
X1292200Y1657900D02*
D03*
X1266800D02*
D03*
Y1683300D02*
D03*
X1292200D02*
D03*
Y1962700D02*
D03*
X1266800D02*
D03*
X1292200Y1988100D02*
D03*
X1266800D02*
D03*
X1292200Y2013500D02*
D03*
X1266800D02*
D03*
X1292200Y2038900D02*
D03*
X1266800D02*
D03*
Y2064300D02*
D03*
X1292200D02*
D03*
X508000Y2192100D02*
D03*
Y2115900D02*
D03*
Y2166700D02*
D03*
Y2141300D02*
D03*
Y2090500D02*
D03*
Y2065100D02*
D03*
Y2039700D02*
D03*
Y2014300D02*
D03*
Y1988900D02*
D03*
Y1963500D02*
D03*
Y1938100D02*
D03*
Y1912700D02*
D03*
Y1887300D02*
D03*
Y1861900D02*
D03*
Y1836500D02*
D03*
Y1811100D02*
D03*
Y1785700D02*
D03*
Y1760300D02*
D03*
Y1734900D02*
D03*
X1121000Y2141700D02*
D03*
Y2167100D02*
D03*
Y1709700D02*
D03*
Y1735100D02*
D03*
D94*
X1448000Y2510000D02*
D03*
X1473400Y2510000D02*
D03*
X1498800Y2510000D02*
D03*
X1549600Y2510000D02*
D03*
X1524200Y2510000D02*
D03*
X1209000Y2427600D02*
D03*
X1326200Y2289000D02*
D03*
X1275400Y2289000D02*
D03*
X1300800Y2289000D02*
D03*
D95*
X1575000Y2510000D02*
D03*
X1250000Y2289000D02*
D03*
D96*
X1210750Y1638750D02*
D03*
Y1664150D02*
D03*
Y1689550D02*
D03*
Y1714950D02*
D03*
Y1740350D02*
D03*
Y1765750D02*
D03*
X1527500Y2208500D02*
D03*
Y2233900D02*
D03*
Y2259300D02*
D03*
Y2284700D02*
D03*
X796500Y1728750D02*
D03*
Y1754150D02*
D03*
Y1779550D02*
D03*
Y1804950D02*
D03*
Y1830350D02*
D03*
Y1855750D02*
D03*
Y1881150D02*
D03*
X1190869Y2025454D02*
D03*
Y2000054D02*
D03*
Y1974654D02*
D03*
Y1949254D02*
D03*
X433750Y2100350D02*
D03*
Y2074950D02*
D03*
Y2049550D02*
D03*
Y2024150D02*
D03*
Y1998750D02*
D03*
Y1973350D02*
D03*
Y1947950D02*
D03*
Y1922550D02*
D03*
Y1897150D02*
D03*
Y1871750D02*
D03*
X1241150Y2190750D02*
D03*
X1266550D02*
D03*
X1291950D02*
D03*
X1317350D02*
D03*
X1342750D02*
D03*
X1368150D02*
D03*
X1393550D02*
D03*
X1418950D02*
D03*
X1444350D02*
D03*
X1469750D02*
D03*
D97*
X508000Y2217500D02*
D03*
X1121000Y2192500D02*
D03*
Y1760500D02*
D03*
D98*
X388506Y1610528D02*
D03*
D99*
X340500Y1578016D02*
D03*
Y1640500D02*
D03*
D100*
X340000Y1743000D02*
D03*
X290000D02*
D03*
D101*
X1209000Y2453000D02*
D03*
D102*
X1687000Y2379000D02*
D03*
Y2463000D02*
D03*
D103*
X1678000Y2413000D02*
D03*
Y2429000D02*
D03*
X1696000Y2437000D02*
D03*
Y2421000D02*
D03*
Y2405000D02*
D03*
X1758000Y2251750D02*
D03*
X1600000Y2211750D02*
D03*
X1479000Y2332500D02*
D03*
X1845250Y2341500D02*
D03*
X1408750Y2431250D02*
D03*
X1371750Y2474750D02*
D03*
X1775750Y2169750D02*
D03*
Y2240250D02*
D03*
X1601000Y2325750D02*
D03*
X1596750Y2170500D02*
D03*
X1582250D02*
D03*
X1582750Y2311250D02*
D03*
X1582750Y2326250D02*
D03*
X1769750Y2268000D02*
D03*
X1866250Y2300500D02*
D03*
Y2313750D02*
D03*
X1866500Y2327500D02*
D03*
X1820250Y2298750D02*
D03*
X1782250Y2300750D02*
D03*
X1764750D02*
D03*
X1797250Y2330250D02*
D03*
X1779250Y2330750D02*
D03*
X1845500Y2286750D02*
D03*
X1816500Y2340750D02*
D03*
X1761000Y2341250D02*
D03*
X645250Y1760300D02*
D03*
X398250Y2210500D02*
D03*
X265750Y2394000D02*
D03*
X829500Y1614000D02*
D03*
X296000Y2079500D02*
D03*
X417000Y2272000D02*
D03*
X346500Y2160500D02*
D03*
X264000Y2322500D02*
D03*
X417000D02*
D03*
X869000Y1652000D02*
D03*
X1174500Y1848500D02*
D03*
X1115000Y1869500D02*
D03*
X1211000Y1898500D02*
D03*
X1188000Y1897500D02*
D03*
X1173000Y1885500D02*
D03*
X1129000Y1782000D02*
D03*
X1113000Y1792000D02*
D03*
X1128900Y1802400D02*
D03*
X1113000Y1814000D02*
D03*
X1129000Y1824000D02*
D03*
X1218000Y2256000D02*
D03*
X596500D02*
D03*
X1007500D02*
D03*
X1099500Y1683500D02*
D03*
X1123000Y1651750D02*
D03*
X1109000Y1667000D02*
D03*
X809530Y1616030D02*
D03*
X1205250Y1532250D02*
D03*
X1402030Y2052030D02*
D03*
X390000Y1805500D02*
D03*
X1509100Y2064000D02*
D03*
X1327030Y2435970D02*
D03*
X1444000Y2378000D02*
D03*
X1442000Y2396000D02*
D03*
X1420500Y2386500D02*
D03*
X1407000Y2380000D02*
D03*
X1583000Y2348000D02*
D03*
X1613000Y2398000D02*
D03*
X1452000Y2428000D02*
D03*
X1360000Y2393000D02*
D03*
X1226000Y2503000D02*
D03*
X1340000Y2369000D02*
D03*
X1212000Y2027000D02*
D03*
X1489000Y2383000D02*
D03*
X1434000Y2331000D02*
D03*
X1417000Y2464000D02*
D03*
X1364000Y2334000D02*
D03*
X1379000Y2349000D02*
D03*
X1378000Y2294000D02*
D03*
X1365000Y2280000D02*
D03*
X1351000Y2269000D02*
D03*
X1323000Y1901000D02*
D03*
X1232000Y2003000D02*
D03*
X1515000Y2402000D02*
D03*
X1404000Y2403000D02*
D03*
X1463000Y2466000D02*
D03*
X1624000Y2457000D02*
D03*
X1222000Y1816000D02*
D03*
X1230000Y1790000D02*
D03*
D104*
X1105000Y2486000D02*
D03*
X974000Y2456000D02*
D03*
D105*
X1769500Y1533000D02*
D03*
X1279500D02*
D03*
Y2113000D02*
D03*
X1769500D02*
D03*
X539500Y1604500D02*
D03*
Y2344500D02*
D03*
X1089500Y1604500D02*
D03*
Y2344500D02*
D03*
D106*
X1198500Y2233500D02*
D03*
X1555000Y2058500D02*
D03*
X1337000Y2091000D02*
D03*
X1582000Y2139000D02*
D03*
X1528000Y2139500D02*
D03*
X1465000Y2241000D02*
D03*
X1334000Y2477000D02*
D03*
X1338000Y2453000D02*
D03*
X1327000Y1648000D02*
D03*
D107*
X1850000Y1600000D02*
D03*
Y2500000D02*
D03*
X250000Y1600000D02*
D03*
Y2500000D02*
D03*
D108*
X1054000Y2486000D02*
D03*
X894000D02*
D03*
M02*
