%FSLAX44Y44*%
%MOMM*%
G71*
G01*
G75*
G04 Layer_Color=8388736*
%ADD10C,0.2540*%
%ADD11R,3.1600X1.0000*%
%ADD12R,0.7620X0.7620*%
%ADD13R,0.7620X0.7620*%
%ADD14R,1.2700X0.9144*%
%ADD15R,0.9144X0.9144*%
%ADD16R,2.2000X1.0500*%
%ADD17R,1.0500X1.0000*%
%ADD18R,1.9000X0.8000*%
%ADD19R,3.0000X1.0000*%
%ADD20O,3.0000X1.0000*%
%ADD21R,6.5000X5.9000*%
%ADD22R,3.0000X1.2000*%
%ADD23R,2.0000X2.5000*%
G04:AMPARAMS|DCode=24|XSize=2.032mm|YSize=0.6096mm|CornerRadius=0.061mm|HoleSize=0mm|Usage=FLASHONLY|Rotation=90.000|XOffset=0mm|YOffset=0mm|HoleType=Round|Shape=RoundedRectangle|*
%AMROUNDEDRECTD24*
21,1,2.0320,0.4877,0,0,90.0*
21,1,1.9101,0.6096,0,0,90.0*
1,1,0.1219,0.2438,0.9550*
1,1,0.1219,0.2438,-0.9550*
1,1,0.1219,-0.2438,-0.9550*
1,1,0.1219,-0.2438,0.9550*
%
%ADD24ROUNDEDRECTD24*%
G04:AMPARAMS|DCode=25|XSize=2.032mm|YSize=0.6096mm|CornerRadius=0.1524mm|HoleSize=0mm|Usage=FLASHONLY|Rotation=90.000|XOffset=0mm|YOffset=0mm|HoleType=Round|Shape=RoundedRectangle|*
%AMROUNDEDRECTD25*
21,1,2.0320,0.3048,0,0,90.0*
21,1,1.7272,0.6096,0,0,90.0*
1,1,0.3048,0.1524,0.8636*
1,1,0.3048,0.1524,-0.8636*
1,1,0.3048,-0.1524,-0.8636*
1,1,0.3048,-0.1524,0.8636*
%
%ADD25ROUNDEDRECTD25*%
%ADD26R,0.6096X2.0320*%
%ADD27R,1.2000X0.3000*%
%ADD28R,0.3000X1.2000*%
%ADD29R,1.5240X1.2700*%
%ADD30R,1.2000X6.0960*%
%ADD31R,0.5000X1.0000*%
%ADD32R,1.2700X1.5240*%
%ADD33R,0.8000X0.3500*%
%ADD34C,0.6000*%
%ADD35C,0.4000*%
%ADD36C,0.5000*%
%ADD37C,1.4000*%
%ADD38C,0.2032*%
%ADD39C,1.0000*%
%ADD40C,2.0000*%
%ADD41C,0.2500*%
%ADD42C,0.0000*%
%ADD43C,0.1016*%
%ADD44C,0.1020*%
%ADD45C,1.5240*%
%ADD46C,1.7780*%
%ADD47R,1.7780X1.7780*%
%ADD48C,1.7000*%
%ADD49R,1.5240X1.5240*%
%ADD50O,2.0320X4.5720*%
%ADD51O,4.5720X2.0320*%
%ADD52C,1.8000*%
%ADD53R,1.7780X1.7780*%
%ADD54O,3.2000X3.3000*%
%ADD55C,1.0000*%
%ADD56C,2.5000*%
%ADD57C,5.0000*%
%ADD58C,1.2700*%
%ADD59C,4.5000*%
%ADD60C,4.0000*%
%ADD61C,0.8000*%
%ADD62C,0.1270*%
%ADD63C,0.2000*%
%ADD64R,2.5303X2.5400*%
%ADD65R,1.4500X5.0750*%
%ADD66R,0.9652X2.1336*%
%ADD67R,0.2200X1.0000*%
%ADD68R,1.0000X0.2200*%
%ADD69R,2.5400X2.5303*%
%ADD70R,3.3632X1.2032*%
%ADD71R,0.9652X0.9652*%
%ADD72R,0.9652X0.9652*%
%ADD73R,1.4732X1.1176*%
%ADD74R,1.1176X1.1176*%
%ADD75R,2.4032X1.2532*%
%ADD76R,1.2532X1.2032*%
%ADD77R,2.1032X1.0032*%
%ADD78R,3.2032X1.2032*%
%ADD79O,3.2032X1.2032*%
%ADD80R,6.7032X6.1032*%
%ADD81R,3.2032X1.4032*%
%ADD82R,2.2032X2.7032*%
G04:AMPARAMS|DCode=83|XSize=2.2352mm|YSize=0.8128mm|CornerRadius=0.1626mm|HoleSize=0mm|Usage=FLASHONLY|Rotation=90.000|XOffset=0mm|YOffset=0mm|HoleType=Round|Shape=RoundedRectangle|*
%AMROUNDEDRECTD83*
21,1,2.2352,0.4877,0,0,90.0*
21,1,1.9101,0.8128,0,0,90.0*
1,1,0.3251,0.2438,0.9550*
1,1,0.3251,0.2438,-0.9550*
1,1,0.3251,-0.2438,-0.9550*
1,1,0.3251,-0.2438,0.9550*
%
%ADD83ROUNDEDRECTD83*%
G04:AMPARAMS|DCode=84|XSize=2.2352mm|YSize=0.8128mm|CornerRadius=0.254mm|HoleSize=0mm|Usage=FLASHONLY|Rotation=90.000|XOffset=0mm|YOffset=0mm|HoleType=Round|Shape=RoundedRectangle|*
%AMROUNDEDRECTD84*
21,1,2.2352,0.3048,0,0,90.0*
21,1,1.7272,0.8128,0,0,90.0*
1,1,0.5080,0.1524,0.8636*
1,1,0.5080,0.1524,-0.8636*
1,1,0.5080,-0.1524,-0.8636*
1,1,0.5080,-0.1524,0.8636*
%
%ADD84ROUNDEDRECTD84*%
%ADD85R,0.8128X2.2352*%
%ADD86R,1.4032X0.5032*%
%ADD87R,0.5032X1.4032*%
%ADD88R,1.7272X1.4732*%
%ADD89R,1.4032X6.2992*%
%ADD90R,0.7032X1.2032*%
%ADD91R,1.4732X1.7272*%
%ADD92R,1.0032X0.5532*%
%ADD93C,1.7272*%
%ADD94C,1.9812*%
%ADD95R,1.9812X1.9812*%
%ADD96C,1.9032*%
%ADD97R,1.7272X1.7272*%
%ADD98O,2.2352X4.7752*%
%ADD99O,4.7752X2.2352*%
%ADD100C,2.0032*%
%ADD101R,1.9812X1.9812*%
%ADD102O,3.4032X3.5032*%
%ADD103C,1.2032*%
%ADD104C,2.7032*%
%ADD105C,5.2032*%
%ADD106C,1.4732*%
%ADD107C,4.7032*%
%ADD108C,4.2032*%
D42*
X1414500Y1978000D02*
G03*
X1404500Y1968000I0J-10000D01*
G01*
X1404500Y1818000D02*
G03*
X1414500Y1808000I10000J0D01*
G01*
X1564500Y1808000D02*
G03*
X1574500Y1818000I0J10000D01*
G01*
X1574500Y1968000D02*
G03*
X1564500Y1978000I-10000J0D01*
G01*
X1404500Y1818000D02*
Y1968000D01*
X1414500Y1978000D02*
X1564500D01*
X1574500Y1818000D02*
Y1968000D01*
X1414500Y1808000D02*
X1564500D01*
D43*
X327800Y1584270D02*
G03*
X327800Y1572270I0J-6000D01*
G01*
X353200D02*
G03*
X353200Y1584270I0J6000D01*
G01*
X327800Y1646754D02*
G03*
X327800Y1634754I0J-6000D01*
G01*
X353200D02*
G03*
X353200Y1646754I0J6000D01*
G01*
X382252Y1597828D02*
G03*
X394252Y1597828I6000J0D01*
G01*
Y1623228D02*
G03*
X382252Y1623228I-6000J0D01*
G01*
D44*
X327800Y1584270D02*
X353200D01*
X327800Y1572270D02*
X353200D01*
X327800Y1634754D02*
X353200D01*
X327800Y1646754D02*
X353200D01*
X382252Y1597828D02*
Y1623228D01*
X394252Y1597828D02*
Y1623228D01*
D70*
X295300Y1922400D02*
D03*
Y1947800D02*
D03*
Y1973200D02*
D03*
Y2024000D02*
D03*
X367700Y1922400D02*
D03*
Y1947800D02*
D03*
Y1973200D02*
D03*
Y2024000D02*
D03*
D71*
X1390000Y2097250D02*
D03*
Y2083280D02*
D03*
X1397500Y2460500D02*
D03*
Y2474470D02*
D03*
X1383500Y2460500D02*
D03*
Y2474470D02*
D03*
X1816500Y2314000D02*
D03*
Y2327970D02*
D03*
X1802500Y2314220D02*
D03*
Y2300250D02*
D03*
X1761000Y2314500D02*
D03*
Y2328470D02*
D03*
X1582250Y2196500D02*
D03*
Y2182530D02*
D03*
X1596750Y2196470D02*
D03*
Y2182500D02*
D03*
X417000Y2307970D02*
D03*
Y2294000D02*
D03*
X358000Y2144250D02*
D03*
Y2130280D02*
D03*
X343000Y2130250D02*
D03*
Y2144220D02*
D03*
X304000Y2106500D02*
D03*
Y2092530D02*
D03*
X318000Y2106500D02*
D03*
Y2092530D02*
D03*
X1226000Y2058000D02*
D03*
Y2044030D02*
D03*
X1212000Y2058000D02*
D03*
Y2044030D02*
D03*
X264000Y2293500D02*
D03*
Y2307470D02*
D03*
X1340000Y2422000D02*
D03*
Y2435970D02*
D03*
Y2397000D02*
D03*
Y2383030D02*
D03*
X1195750Y1600780D02*
D03*
Y1614750D02*
D03*
X1213250Y1600780D02*
D03*
Y1614750D02*
D03*
X1430000Y2066000D02*
D03*
Y2052030D02*
D03*
X1415000Y2066000D02*
D03*
Y2052030D02*
D03*
X1400000Y2121000D02*
D03*
Y2134970D02*
D03*
X1415000Y2135000D02*
D03*
Y2121030D02*
D03*
X1430000Y2121000D02*
D03*
Y2134970D02*
D03*
X1357000Y2320000D02*
D03*
Y2306030D02*
D03*
D72*
X1465000Y2345000D02*
D03*
X1478970D02*
D03*
X1465000Y2360000D02*
D03*
X1478970D02*
D03*
X1556280Y2326250D02*
D03*
X1570250D02*
D03*
X1556280Y2311250D02*
D03*
X1570250D02*
D03*
X1788500Y2286500D02*
D03*
X1802470D02*
D03*
X1788720Y2314500D02*
D03*
X1774750D02*
D03*
X1803970Y2205000D02*
D03*
X1790000D02*
D03*
X1804000Y2189500D02*
D03*
X1790030D02*
D03*
X1789750Y2255500D02*
D03*
X1803720D02*
D03*
X823500Y1643000D02*
D03*
X809530D02*
D03*
X823500Y1628500D02*
D03*
X809530D02*
D03*
X1332030Y2503000D02*
D03*
X1346000D02*
D03*
X1332030Y2518000D02*
D03*
X1346000D02*
D03*
D73*
X1810570Y2230598D02*
D03*
X303680Y2138152D02*
D03*
X355820Y2098848D02*
D03*
X1409680Y2093652D02*
D03*
D74*
X1790250Y2221200D02*
D03*
Y2240250D02*
D03*
X324000Y2147550D02*
D03*
Y2128500D02*
D03*
X335500Y2089450D02*
D03*
Y2108500D02*
D03*
X1430000Y2103050D02*
D03*
Y2084000D02*
D03*
D75*
X1845250Y2328500D02*
D03*
Y2299000D02*
D03*
D76*
X1830250Y2313750D02*
D03*
D77*
X1618000Y2251750D02*
D03*
Y2240750D02*
D03*
Y2229750D02*
D03*
Y2218750D02*
D03*
Y2207750D02*
D03*
Y2196750D02*
D03*
Y2185750D02*
D03*
Y2325750D02*
D03*
Y2314750D02*
D03*
Y2303750D02*
D03*
Y2292750D02*
D03*
Y2281750D02*
D03*
X1740000D02*
D03*
Y2292750D02*
D03*
Y2303750D02*
D03*
Y2314750D02*
D03*
Y2325750D02*
D03*
Y2185750D02*
D03*
Y2196750D02*
D03*
Y2207750D02*
D03*
Y2218750D02*
D03*
Y2229750D02*
D03*
Y2240750D02*
D03*
Y2251750D02*
D03*
D78*
X367290Y2394000D02*
D03*
X295710Y2210500D02*
D03*
D79*
X298710Y2394000D02*
D03*
X364290Y2210500D02*
D03*
D80*
X368250Y2301000D02*
D03*
X292750Y1828500D02*
D03*
D81*
X295500Y2323500D02*
D03*
Y2278500D02*
D03*
X365500Y1851000D02*
D03*
Y1806000D02*
D03*
D82*
X349750Y2061500D02*
D03*
X314250D02*
D03*
D83*
X1569100Y2403880D02*
D03*
D84*
Y2348000D02*
D03*
X1543700Y2403880D02*
D03*
X1531000D02*
D03*
X1543700Y2348000D02*
D03*
X1556400D02*
D03*
Y2403880D02*
D03*
D85*
X1531000Y2348000D02*
D03*
D86*
X1382500Y2432500D02*
D03*
Y2427500D02*
D03*
Y2422500D02*
D03*
Y2417500D02*
D03*
Y2412500D02*
D03*
Y2407500D02*
D03*
Y2402500D02*
D03*
Y2397500D02*
D03*
Y2392500D02*
D03*
Y2387500D02*
D03*
Y2382500D02*
D03*
Y2377500D02*
D03*
X1467500D02*
D03*
Y2382500D02*
D03*
Y2387500D02*
D03*
Y2392500D02*
D03*
Y2397500D02*
D03*
Y2402500D02*
D03*
Y2407500D02*
D03*
Y2412500D02*
D03*
Y2417500D02*
D03*
Y2422500D02*
D03*
Y2427500D02*
D03*
Y2432500D02*
D03*
D87*
X1397500Y2362500D02*
D03*
X1402500D02*
D03*
X1407500D02*
D03*
X1412500D02*
D03*
X1417500D02*
D03*
X1422500D02*
D03*
X1427500D02*
D03*
X1432500D02*
D03*
X1437500D02*
D03*
X1442500D02*
D03*
X1447500D02*
D03*
X1452500D02*
D03*
Y2447500D02*
D03*
X1447500D02*
D03*
X1442500D02*
D03*
X1437500D02*
D03*
X1432500D02*
D03*
X1427500D02*
D03*
X1422500D02*
D03*
X1417500D02*
D03*
X1412500D02*
D03*
X1407500D02*
D03*
X1402500D02*
D03*
X1397500D02*
D03*
D88*
X1205860Y2503000D02*
D03*
X1183000D02*
D03*
X1246140D02*
D03*
X1269000D02*
D03*
D89*
X1293000Y2458560D02*
D03*
Y2359500D02*
D03*
D90*
X1622500Y2411500D02*
D03*
Y2438500D02*
D03*
X1613000Y2411500D02*
D03*
X1603500D02*
D03*
X1613000Y2438500D02*
D03*
X1603500D02*
D03*
D91*
X1218250Y1552890D02*
D03*
Y1575750D02*
D03*
X1190750Y1552890D02*
D03*
Y1575750D02*
D03*
D92*
X859500Y1629750D02*
D03*
Y1636250D02*
D03*
Y1623250D02*
D03*
Y1642750D02*
D03*
X840500Y1629750D02*
D03*
Y1636250D02*
D03*
Y1623250D02*
D03*
Y1642750D02*
D03*
D93*
X1292200Y1937300D02*
D03*
X1266800D02*
D03*
Y1911900D02*
D03*
X1292200D02*
D03*
X1266800Y1886500D02*
D03*
X1292200D02*
D03*
X1266800Y1861100D02*
D03*
X1292200D02*
D03*
X1266800Y1835700D02*
D03*
X1292200D02*
D03*
Y1708700D02*
D03*
X1266800D02*
D03*
X1292200Y1734100D02*
D03*
X1266800D02*
D03*
X1292200Y1759500D02*
D03*
X1266800D02*
D03*
X1292200Y1784900D02*
D03*
X1266800D02*
D03*
Y1810300D02*
D03*
X1292200D02*
D03*
Y1581700D02*
D03*
X1266800D02*
D03*
X1292200Y1607100D02*
D03*
X1266800D02*
D03*
X1292200Y1632500D02*
D03*
X1266800D02*
D03*
X1292200Y1657900D02*
D03*
X1266800D02*
D03*
Y1683300D02*
D03*
X1292200D02*
D03*
Y1962700D02*
D03*
X1266800D02*
D03*
X1292200Y1988100D02*
D03*
X1266800D02*
D03*
X1292200Y2013500D02*
D03*
X1266800D02*
D03*
X1292200Y2038900D02*
D03*
X1266800D02*
D03*
Y2064300D02*
D03*
X1292200D02*
D03*
X508000Y2192100D02*
D03*
Y2115900D02*
D03*
Y2166700D02*
D03*
Y2141300D02*
D03*
Y2090500D02*
D03*
Y2065100D02*
D03*
Y2039700D02*
D03*
Y2014300D02*
D03*
Y1988900D02*
D03*
Y1963500D02*
D03*
Y1938100D02*
D03*
Y1912700D02*
D03*
Y1887300D02*
D03*
Y1861900D02*
D03*
Y1836500D02*
D03*
Y1811100D02*
D03*
Y1785700D02*
D03*
Y1760300D02*
D03*
Y1734900D02*
D03*
X1121000Y2141700D02*
D03*
Y2167100D02*
D03*
Y1709700D02*
D03*
Y1735100D02*
D03*
D94*
X1448000Y2510000D02*
D03*
X1473400Y2510000D02*
D03*
X1498800Y2510000D02*
D03*
X1549600Y2510000D02*
D03*
X1524200Y2510000D02*
D03*
X1209000Y2427600D02*
D03*
X1326200Y2289000D02*
D03*
X1275400Y2289000D02*
D03*
X1300800Y2289000D02*
D03*
D95*
X1575000Y2510000D02*
D03*
X1250000Y2289000D02*
D03*
D96*
X1210750Y1638750D02*
D03*
Y1664150D02*
D03*
Y1689550D02*
D03*
Y1714950D02*
D03*
Y1740350D02*
D03*
Y1765750D02*
D03*
X1527500Y2208500D02*
D03*
Y2233900D02*
D03*
Y2259300D02*
D03*
Y2284700D02*
D03*
X796500Y1728750D02*
D03*
Y1754150D02*
D03*
Y1779550D02*
D03*
Y1804950D02*
D03*
Y1830350D02*
D03*
Y1855750D02*
D03*
Y1881150D02*
D03*
X1190869Y2025454D02*
D03*
Y2000054D02*
D03*
Y1974654D02*
D03*
Y1949254D02*
D03*
X433750Y2100350D02*
D03*
Y2074950D02*
D03*
Y2049550D02*
D03*
Y2024150D02*
D03*
Y1998750D02*
D03*
Y1973350D02*
D03*
Y1947950D02*
D03*
Y1922550D02*
D03*
Y1897150D02*
D03*
Y1871750D02*
D03*
X1241150Y2190750D02*
D03*
X1266550D02*
D03*
X1291950D02*
D03*
X1317350D02*
D03*
X1342750D02*
D03*
X1368150D02*
D03*
X1393550D02*
D03*
X1418950D02*
D03*
X1444350D02*
D03*
X1469750D02*
D03*
D97*
X508000Y2217500D02*
D03*
X1121000Y2192500D02*
D03*
Y1760500D02*
D03*
D98*
X388506Y1610528D02*
D03*
D99*
X340500Y1578016D02*
D03*
Y1640500D02*
D03*
D100*
X340000Y1743000D02*
D03*
X290000D02*
D03*
D101*
X1209000Y2453000D02*
D03*
D102*
X1687000Y2379000D02*
D03*
Y2463000D02*
D03*
D103*
X1678000Y2413000D02*
D03*
Y2429000D02*
D03*
X1696000Y2437000D02*
D03*
Y2421000D02*
D03*
Y2405000D02*
D03*
X1758000Y2251750D02*
D03*
X1600000Y2211750D02*
D03*
X1479000Y2332500D02*
D03*
X1845250Y2341500D02*
D03*
X1408750Y2431250D02*
D03*
X1371750Y2474750D02*
D03*
X1775750Y2169750D02*
D03*
Y2240250D02*
D03*
X1601000Y2325750D02*
D03*
X1596750Y2170500D02*
D03*
X1582250D02*
D03*
X1582750Y2311250D02*
D03*
X1582750Y2326250D02*
D03*
X1769750Y2268000D02*
D03*
X1866250Y2300500D02*
D03*
Y2313750D02*
D03*
X1866500Y2327500D02*
D03*
X1820250Y2298750D02*
D03*
X1782250Y2300750D02*
D03*
X1764750D02*
D03*
X1797250Y2330250D02*
D03*
X1779250Y2330750D02*
D03*
X1845500Y2286750D02*
D03*
X1816500Y2340750D02*
D03*
X1761000Y2341250D02*
D03*
X645250Y1760300D02*
D03*
X398250Y2210500D02*
D03*
X265750Y2394000D02*
D03*
X829500Y1614000D02*
D03*
X296000Y2079500D02*
D03*
X417000Y2272000D02*
D03*
X346500Y2160500D02*
D03*
X264000Y2322500D02*
D03*
X417000D02*
D03*
X869000Y1652000D02*
D03*
X1174500Y1848500D02*
D03*
X1115000Y1869500D02*
D03*
X1211000Y1898500D02*
D03*
X1188000Y1897500D02*
D03*
X1173000Y1885500D02*
D03*
X1129000Y1782000D02*
D03*
X1113000Y1792000D02*
D03*
X1128900Y1802400D02*
D03*
X1113000Y1814000D02*
D03*
X1129000Y1824000D02*
D03*
X1218000Y2256000D02*
D03*
X596500D02*
D03*
X1007500D02*
D03*
X1099500Y1683500D02*
D03*
X1123000Y1651750D02*
D03*
X1109000Y1667000D02*
D03*
X809530Y1616030D02*
D03*
X1205250Y1532250D02*
D03*
X1402030Y2052030D02*
D03*
X390000Y1805500D02*
D03*
X1509100Y2064000D02*
D03*
X1327030Y2435970D02*
D03*
X1444000Y2378000D02*
D03*
X1442000Y2396000D02*
D03*
X1420500Y2386500D02*
D03*
X1407000Y2380000D02*
D03*
X1583000Y2348000D02*
D03*
X1613000Y2398000D02*
D03*
X1452000Y2428000D02*
D03*
X1360000Y2393000D02*
D03*
X1226000Y2503000D02*
D03*
X1340000Y2369000D02*
D03*
X1212000Y2027000D02*
D03*
X1489000Y2383000D02*
D03*
X1434000Y2331000D02*
D03*
X1417000Y2464000D02*
D03*
X1364000Y2334000D02*
D03*
X1379000Y2349000D02*
D03*
X1378000Y2294000D02*
D03*
X1365000Y2280000D02*
D03*
X1351000Y2269000D02*
D03*
X1323000Y1901000D02*
D03*
X1232000Y2003000D02*
D03*
X1515000Y2402000D02*
D03*
X1404000Y2403000D02*
D03*
X1463000Y2466000D02*
D03*
X1624000Y2457000D02*
D03*
X1222000Y1816000D02*
D03*
X1230000Y1790000D02*
D03*
D104*
X1105000Y2486000D02*
D03*
X974000Y2456000D02*
D03*
D105*
X1769500Y1533000D02*
D03*
X1279500D02*
D03*
Y2113000D02*
D03*
X1769500D02*
D03*
X539500Y1604500D02*
D03*
Y2344500D02*
D03*
X1089500Y1604500D02*
D03*
Y2344500D02*
D03*
D106*
X1198500Y2233500D02*
D03*
X1555000Y2058500D02*
D03*
X1337000Y2091000D02*
D03*
X1582000Y2139000D02*
D03*
X1528000Y2139500D02*
D03*
X1465000Y2241000D02*
D03*
X1334000Y2477000D02*
D03*
X1338000Y2453000D02*
D03*
X1327000Y1648000D02*
D03*
D107*
X1850000Y1600000D02*
D03*
Y2500000D02*
D03*
X250000Y1600000D02*
D03*
Y2500000D02*
D03*
D108*
X1054000Y2486000D02*
D03*
X894000D02*
D03*
M02*
