%FSTAX44Y44*%
%MOMM*%
%SFA1B1*%

%IPPOS*%
%ADD10C,0.253999*%
%ADD37C,0.799998*%
%ADD39C,0.599999*%
%ADD40C,0.399999*%
%ADD41C,0.499999*%
%ADD43C,0.203200*%
%ADD45C,1.523997*%
%ADD46C,1.777996*%
%ADD47R,1.777996X1.777996*%
%ADD48C,1.699997*%
%ADD49R,1.523997X1.523997*%
%ADD50O,2.031996X4.571991*%
%ADD51O,4.571991X2.031996*%
%ADD52C,1.799996*%
%ADD53R,1.777996X1.777996*%
%ADD54O,3.199994X3.299993*%
%ADD55C,0.999998*%
%ADD56C,2.499995*%
%ADD57C,4.999990*%
%ADD58C,1.269997*%
%ADD59C,4.499991*%
%ADD60C,3.999992*%
%LNbackplane-1*%
%LPD*%
G36*
X01699999Y00042474D02*
X01699739D01*
X01651632*
Y00019999*
X0160214*
X01601608Y00021152*
X01604656Y00024721*
X01607206Y00028882*
X01609073Y0003339*
X01610212Y00038135*
X01610595Y00042999*
X01610212Y00047863*
X01609073Y00052608*
X01607206Y00057116*
X01604656Y00061277*
X01601487Y00064987*
X01597777Y00068156*
X01593616Y00070706*
X01589108Y00072573*
X01584363Y00073712*
X01579499Y00074095*
X01574634Y00073712*
X0156989Y00072573*
X01565382Y00070706*
X01561221Y00068156*
X01557511Y00064987*
X01554342Y00061277*
X01551792Y00057116*
X01549925Y00052608*
X01548786Y00047863*
X01548403Y00042999*
X01548786Y00038135*
X01549925Y0003339*
X01551792Y00028882*
X01554342Y00024721*
X0155739Y00021152*
X01556858Y00019999*
X0111214*
X01111608Y00021152*
X01114656Y00024721*
X01117206Y00028882*
X01119073Y0003339*
X01120212Y00038135*
X01120595Y00042999*
X01120212Y00047863*
X01119073Y00052608*
X01117206Y00057116*
X01114656Y00061277*
X01111487Y00064987*
X01107777Y00068156*
X01103616Y00070706*
X01099108Y00072573*
X01094363Y00073712*
X01089499Y00074095*
X01084634Y00073712*
X0107989Y00072573*
X01075382Y00070706*
X01071221Y00068156*
X01067511Y00064987*
X01064342Y00061277*
X01061792Y00057116*
X01059925Y00052608*
X01058786Y00047863*
X01058403Y00042999*
X01058786Y00038135*
X01059925Y0003339*
X01061792Y00028882*
X01064342Y00024721*
X0106739Y00021152*
X01066858Y00019999*
X00019999*
Y01049999*
X01699999*
Y00042474*
G37*
%LNbackplane-2*%
%LPC*%
G36*
X00317999Y00406195D02*
X00315696Y00405892D01*
X00313551Y00405003*
X00311708Y0040359*
X00310295Y00401747*
X00309406Y00399602*
X00309103Y00397299*
X00309406Y00394996*
X00310295Y00392851*
X00311708Y00391008*
X00313551Y00389595*
X00315696Y00388706*
X00317999Y00388403*
X00320302Y00388706*
X00322447Y00389595*
X0032429Y00391008*
X00325703Y00392851*
X00326592Y00394996*
X00326895Y00397299*
X00326592Y00399602*
X00325703Y00401747*
X0032429Y0040359*
X00322447Y00405003*
X00320302Y00405892*
X00317999Y00406195*
G37*
G36*
X01102199Y00405395D02*
X01099897Y00405092D01*
X01097751Y00404203*
X01095909Y00402789*
X01094495Y00400947*
X01093606Y00398801*
X01093303Y00396499*
X01093606Y00394197*
X01094495Y00392051*
X01095909Y00390209*
X01097751Y00388795*
X01099897Y00387906*
X01102199Y00387604*
X01104501Y00387906*
X01106647Y00388795*
X0110849Y00390209*
X01109903Y00392051*
X01110792Y00394197*
X01111095Y00396499*
X01110792Y00398801*
X01109903Y00400947*
X0110849Y00402789*
X01106647Y00404203*
X01104501Y00405092*
X01102199Y00405395*
G37*
G36*
X00617467Y00389879D02*
X00607769D01*
Y00380181*
X00609381Y00380393*
X00612067Y00381506*
X00614373Y00383275*
X00616142Y00385581*
X00617255Y00388267*
X00617467Y00389879*
G37*
G36*
X00244479Y00413479D02*
X00234781D01*
X00234993Y00411867*
X00236106Y00409181*
X00237875Y00406875*
X00240181Y00405106*
X00242867Y00403993*
X00244479Y00403781*
Y00413479*
G37*
G36*
X00607769Y00402117D02*
Y00392419D01*
X00617467*
X00617255Y00394031*
X00616142Y00396717*
X00614373Y00399023*
X00612067Y00400792*
X00609381Y00401905*
X00607769Y00402117*
G37*
G36*
X00605229D02*
X00603617Y00401905D01*
X00600931Y00400792*
X00598625Y00399023*
X00596856Y00396717*
X00595743Y00394031*
X00595531Y00392419*
X00605229*
Y00402117*
G37*
G36*
X00041269Y00377437D02*
Y00371269D01*
X00047437*
X00047345Y00371967*
X00046585Y00373801*
X00045377Y00375377*
X00043801Y00376585*
X00041967Y00377345*
X00041269Y00377437*
G37*
G36*
X00038729D02*
X00038031Y00377345D01*
X00036197Y00376585*
X00034621Y00375377*
X00033413Y00373801*
X00032653Y00371967*
X00032561Y00371269*
X00038729*
Y00377437*
G37*
G36*
X00317999Y00380795D02*
X00315696Y00380492D01*
X00313551Y00379603*
X00311708Y00378189*
X00310295Y00376347*
X00309406Y00374201*
X00309103Y00371899*
X00309406Y00369597*
X00310295Y00367451*
X00311708Y00365609*
X00313551Y00364195*
X00315696Y00363306*
X00317999Y00363003*
X00320302Y00363306*
X00322447Y00364195*
X0032429Y00365609*
X00325703Y00367451*
X00326592Y00369597*
X00326895Y00371899*
X00326592Y00374201*
X00325703Y00376347*
X0032429Y00378189*
X00322447Y00379603*
X00320302Y00380492*
X00317999Y00380795*
G37*
G36*
X00605229Y00389879D02*
X00595531D01*
X00595743Y00388267*
X00596856Y00385581*
X00598625Y00383275*
X00600931Y00381506*
X00603617Y00380393*
X00605229Y00380181*
Y00389879*
G37*
G36*
X00081269Y00377437D02*
Y00371269D01*
X00087437*
X00087345Y00371967*
X00086585Y00373801*
X00085377Y00375377*
X00083801Y00376585*
X00081967Y00377345*
X00081269Y00377437*
G37*
G36*
X00078729D02*
X00078031Y00377345D01*
X00076197Y00376585*
X00074621Y00375377*
X00073413Y00373801*
X00072653Y00371967*
X00072561Y00371269*
X00078729*
Y00377437*
G37*
G36*
X00256717Y00413479D02*
X00247019D01*
Y00403781*
X00248631Y00403993*
X00251317Y00405106*
X00253623Y00406875*
X00255392Y00409181*
X00256505Y00411867*
X00256717Y00413479*
G37*
G36*
X00244479Y00438879D02*
X00234781D01*
X00234993Y00437267*
X00236106Y00434581*
X00237875Y00432275*
X00240181Y00430506*
X00242867Y00429393*
X00244479Y00429181*
Y00438879*
G37*
G36*
X01078069Y0043198D02*
Y00423169D01*
X01086879*
X01086698Y00424551*
X01085674Y00427023*
X01084045Y00429145*
X01081923Y00430774*
X01079451Y00431798*
X01078069Y0043198*
G37*
G36*
X01075529D02*
X01074147Y00431798D01*
X01071675Y00430774*
X01069553Y00429145*
X01067924Y00427023*
X010669Y00424551*
X01066719Y00423169*
X01075529*
Y0043198*
G37*
G36*
X00328079Y00446829D02*
X00319269D01*
Y00438018*
X00320651Y004382*
X00323123Y00439224*
X00325245Y00440853*
X00326874Y00442976*
X00327897Y00445447*
X00328079Y00446829*
G37*
G36*
X00316729D02*
X00307919D01*
X00308102Y00445447*
X00309124Y00442976*
X00310753Y00440853*
X00312875Y00439224*
X00315347Y004382*
X00316729Y00438018*
Y00446829*
G37*
G36*
X00256717Y00438879D02*
X00247019D01*
Y00429181*
X00248631Y00429393*
X00251317Y00430506*
X00253623Y00432275*
X00255392Y00434581*
X00256505Y00437267*
X00256717Y00438879*
G37*
G36*
X01086879Y00420629D02*
X01078069D01*
Y00411818*
X01079451Y00412*
X01081923Y00413024*
X01084045Y00414653*
X01085674Y00416775*
X01086698Y00419247*
X01086879Y00420629*
G37*
G36*
X01075529D02*
X01066719D01*
X010669Y00419247*
X01067924Y00416775*
X01069553Y00414653*
X01071675Y00413024*
X01074147Y00412*
X01075529Y00411818*
Y00420629*
G37*
G36*
X01102199Y00430795D02*
X01099897Y00430492D01*
X01097751Y00429603*
X01095909Y00428189*
X01094495Y00426347*
X01093606Y00424201*
X01093303Y00421899*
X01093606Y00419597*
X01094495Y00417451*
X01095909Y00415609*
X01097751Y00414195*
X01099897Y00413306*
X01100059Y00413285*
X01099976Y00412017*
X01088299*
X01087335Y00411826*
X01086518Y0041128*
X0107997Y00404732*
X01079101Y00405092*
X01076799Y00405395*
X01074497Y00405092*
X01072351Y00404203*
X01070508Y00402789*
X01069095Y00400947*
X01068206Y00398801*
X01067903Y00396499*
X01068206Y00394197*
X01069095Y00392051*
X01070508Y00390209*
X01072351Y00388795*
X01074497Y00387906*
X01076799Y00387604*
X01079101Y00387906*
X01081247Y00388795*
X0108309Y00390209*
X01084503Y00392051*
X01085392Y00394197*
X01085695Y00396499*
X01085392Y00398801*
X01084503Y00400947*
X01083985Y00401623*
X01089342Y00406981*
X01123499*
X01124463Y00407172*
X0112528Y00407718*
X01126042Y00408481*
X01127307Y00408357*
X01128529Y00406529*
X0113058Y00405159*
X01132999Y00404678*
X01135418Y00405159*
X01137469Y00406529*
X01138839Y0040858*
X0113932Y00410999*
X01138839Y00413418*
X01137469Y00415469*
X01135418Y00416839*
X01132999Y00417322*
X0113058Y00416839*
X01128529Y00415469*
X01127225Y00413517*
X01124999*
X01124035Y00413326*
X01123218Y0041278*
X01122456Y00412017*
X01104422*
X01104339Y00413285*
X01104501Y00413306*
X01106647Y00414195*
X0110849Y00415609*
X01109903Y00417451*
X01110792Y00419597*
X01111095Y00421899*
X01110792Y00424201*
X01109903Y00426347*
X0110849Y00428189*
X01106647Y00429603*
X01104501Y00430492*
X01102199Y00430795*
G37*
G36*
X00247019Y00425717D02*
Y00416019D01*
X00256717*
X00256505Y00417631*
X00255392Y00420317*
X00253623Y00422623*
X00251317Y00424392*
X00248631Y00425505*
X00247019Y00425717*
G37*
G36*
X00244479D02*
X00242867Y00425505D01*
X00240181Y00424392*
X00237875Y00422623*
X00236106Y00420317*
X00234993Y00417631*
X00234781Y00416019*
X00244479*
Y00425717*
G37*
G36*
X00317999Y00431595D02*
X00315696Y00431292D01*
X00313551Y00430403*
X00311708Y0042899*
X00310295Y00427147*
X00309406Y00425002*
X00309103Y00422699*
X00309406Y00420396*
X00310295Y00418251*
X00311708Y00416408*
X00313551Y00414995*
X00315696Y00414106*
X00317999Y00413803*
X00320302Y00414106*
X00322447Y00414995*
X0032429Y00416408*
X00325703Y00418251*
X00326592Y00420396*
X00326895Y00422699*
X00326592Y00425002*
X00325703Y00427147*
X0032429Y0042899*
X00322447Y00430403*
X00320302Y00431292*
X00317999Y00431595*
G37*
G36*
X00081269Y00337437D02*
Y00331269D01*
X00087437*
X00087345Y00331967*
X00086585Y00333801*
X00085377Y00335377*
X00083801Y00336585*
X00081967Y00337345*
X00081269Y00337437*
G37*
G36*
X00078729D02*
X00078031Y00337345D01*
X00076197Y00336585*
X00074621Y00335377*
X00073413Y00333801*
X00072653Y00331967*
X00072561Y00331269*
X00078729*
Y00337437*
G37*
G36*
X00041269D02*
Y00331269D01*
X00047437*
X00047345Y00331967*
X00046585Y00333801*
X00045377Y00335377*
X00043801Y00336585*
X00041967Y00337345*
X00041269Y00337437*
G37*
G36*
X00317999Y00355395D02*
X00315696Y00355092D01*
X00313551Y00354203*
X00311708Y00352789*
X00310295Y00350947*
X00309406Y00348801*
X00309103Y00346499*
X00309406Y00344197*
X00310295Y00342051*
X00311708Y00340209*
X00313551Y00338795*
X00315696Y00337906*
X00317999Y00337603*
X00320302Y00337906*
X00322447Y00338795*
X0032429Y00340209*
X00325703Y00342051*
X00326592Y00344197*
X00326895Y00346499*
X00326592Y00348801*
X00325703Y00350947*
X0032429Y00352789*
X00322447Y00354203*
X00320302Y00355092*
X00317999Y00355395*
G37*
G36*
X01086879Y00344429D02*
X01078069D01*
Y00335619*
X01079451Y00335801*
X01081923Y00336824*
X01084045Y00338453*
X01085674Y00340575*
X01086698Y00343047*
X01086879Y00344429*
G37*
G36*
X01075529D02*
X01066719D01*
X010669Y00343047*
X01067924Y00340575*
X01069553Y00338453*
X01071675Y00336824*
X01074147Y00335801*
X01075529Y00335619*
Y00344429*
G37*
G36*
X00078729Y00328729D02*
X00072561D01*
X00072653Y00328031*
X00073413Y00326197*
X00074621Y00324621*
X00076197Y00323413*
X00078031Y00322653*
X00078729Y00322561*
Y00328729*
G37*
G36*
X00047437D02*
X00041269D01*
Y00322561*
X00041967Y00322653*
X00043801Y00323413*
X00045377Y00324621*
X00046585Y00326197*
X00047345Y00328031*
X00047437Y00328729*
G37*
G36*
X00038729D02*
X00032561D01*
X00032653Y00328031*
X00033413Y00326197*
X00034621Y00324621*
X00036197Y00323413*
X00038031Y00322653*
X00038729Y00322561*
Y00328729*
G37*
G36*
Y00337437D02*
X00038031Y00337345D01*
X00036197Y00336585*
X00034621Y00335377*
X00033413Y00333801*
X00032653Y00331967*
X00032561Y00331269*
X00038729*
Y00337437*
G37*
G36*
X00606499Y00350133D02*
X00603967Y00349799D01*
X00601607Y00348822*
X00599581Y00347267*
X00598026Y00345241*
X00597049Y00342881*
X00596715Y00340349*
X00597049Y00337817*
X00598026Y00335457*
X00599581Y00333431*
X00601607Y00331876*
X00603967Y00330899*
X00606499Y00330565*
X00609031Y00330899*
X00611391Y00331876*
X00613417Y00333431*
X00614972Y00335457*
X0061595Y00337817*
X00615951Y00337831*
X00631106*
X00636718Y00332218*
X00637535Y00331672*
X00638499Y00331481*
X00922353*
X00922364Y0033137*
X00922478Y00330217*
X0092058Y00329839*
X00918529Y00328469*
X00917225Y00326517*
X00638999*
X00638035Y00326326*
X00637218Y0032578*
X00628906Y00317467*
X00615951*
X0061595Y00317481*
X00614972Y00319841*
X00613417Y00321867*
X00611391Y00323422*
X00609031Y00324399*
X00606499Y00324733*
X00603967Y00324399*
X00601607Y00323422*
X00599581Y00321867*
X00598026Y00319841*
X00597049Y00317481*
X00596715Y00314949*
X00597049Y00312417*
X00598026Y00310057*
X00599581Y00308031*
X00601607Y00306476*
X00603967Y00305499*
X00606499Y00305165*
X00609031Y00305499*
X00611391Y00306476*
X00613417Y00308031*
X00614972Y00310057*
X0061595Y00312417*
X00615951Y00312431*
X00629949*
X00630913Y00312622*
X0063173Y00313168*
X00640042Y00321481*
X00917225*
X00918529Y00319529*
X0092058Y00318159*
X00922999Y00317678*
X00925418Y00318159*
X00927469Y00319529*
X00928839Y0032158*
X00929321Y00323999*
X00928839Y00326418*
X00927469Y00328469*
X00925418Y00329839*
X0092352Y00330217*
X00923634Y0033137*
X00923645Y00331481*
X00933225*
X00934529Y00329529*
X0093658Y00328159*
X00938999Y00327678*
X00941418Y00328159*
X00943469Y00329529*
X00944839Y0033158*
X00945321Y00333999*
X00944839Y00336418*
X00943469Y00338469*
X00941418Y00339839*
X00938999Y00340321*
X0093658Y00339839*
X00934529Y00338469*
X00933225Y00336517*
X00639542*
X0063393Y0034213*
X00633113Y00342676*
X00632149Y00342867*
X00615951*
X0061595Y00342881*
X00614972Y00345241*
X00613417Y00347267*
X00611391Y00348822*
X00609031Y00349799*
X00606499Y00350133*
G37*
G36*
X00087437Y00328729D02*
X00081269D01*
Y00322561*
X00081967Y00322653*
X00083801Y00323413*
X00085377Y00324621*
X00086585Y00326197*
X00087345Y00328031*
X00087437Y00328729*
G37*
G36*
X00269979Y00349479D02*
X00263811D01*
X00263903Y00348781*
X00264663Y00346947*
X00265871Y00345371*
X00267446Y00344163*
X00269281Y00343403*
X00269979Y00343311*
Y00349479*
G37*
G36*
X00038729Y00368729D02*
X00032561D01*
X00032653Y00368031*
X00033413Y00366197*
X00034621Y00364621*
X00036197Y00363413*
X00038031Y00362653*
X00038729Y00362561*
Y00368729*
G37*
G36*
X01102199Y00379995D02*
X01099897Y00379692D01*
X01097751Y00378803*
X01095909Y0037739*
X01094495Y00375547*
X01093606Y00373401*
X01093303Y00371099*
X01093606Y00368796*
X01094495Y00366651*
X01095909Y00364808*
X01097751Y00363395*
X01099897Y00362506*
X01102199Y00362204*
X01104501Y00362506*
X01106647Y00363395*
X0110849Y00364808*
X01109903Y00366651*
X01110792Y00368796*
X01111095Y00371099*
X01110792Y00373401*
X01109903Y00375547*
X0110849Y0037739*
X01106647Y00378803*
X01104501Y00379692*
X01102199Y00379995*
G37*
G36*
X01076799D02*
X01074497Y00379692D01*
X01072351Y00378803*
X01070508Y0037739*
X01069095Y00375547*
X01068206Y00373401*
X01067903Y00371099*
X01068206Y00368796*
X01069095Y00366651*
X01070508Y00364808*
X01072351Y00363395*
X01074497Y00362506*
X01076799Y00362204*
X01079101Y00362506*
X01081247Y00363395*
X0108309Y00364808*
X01084503Y00366651*
X01085392Y00368796*
X01085695Y00371099*
X01085392Y00373401*
X01084503Y00375547*
X0108309Y0037739*
X01081247Y00378803*
X01079101Y00379692*
X01076799Y00379995*
G37*
G36*
X00087437Y00368729D02*
X00081269D01*
Y00362561*
X00081967Y00362653*
X00083801Y00363413*
X00085377Y00364621*
X00086585Y00366197*
X00087345Y00368031*
X00087437Y00368729*
G37*
G36*
X00078729D02*
X00072561D01*
X00072653Y00368031*
X00073413Y00366197*
X00074621Y00364621*
X00076197Y00363413*
X00078031Y00362653*
X00078729Y00362561*
Y00368729*
G37*
G36*
X00047437D02*
X00041269D01*
Y00362561*
X00041967Y00362653*
X00043801Y00363413*
X00045377Y00364621*
X00046585Y00366197*
X00047345Y00368031*
X00047437Y00368729*
G37*
G36*
X01078069Y00355779D02*
Y00346969D01*
X01086879*
X01086698Y00348351*
X01085674Y00350823*
X01084045Y00352945*
X01081923Y00354574*
X01079451Y00355597*
X01078069Y00355779*
G37*
G36*
X01075529D02*
X01074147Y00355597D01*
X01071675Y00354574*
X01069553Y00352945*
X01067924Y00350823*
X010669Y00348351*
X01066719Y00346969*
X01075529*
Y00355779*
G37*
G36*
X00278687Y00349479D02*
X00272519D01*
Y00343311*
X00273217Y00343403*
X00275052Y00344163*
X00276627Y00345371*
X00277835Y00346947*
X00278595Y00348781*
X00278687Y00349479*
G37*
G36*
X00272519Y00358187D02*
Y00352019D01*
X00278687*
X00278595Y00352717*
X00277835Y00354551*
X00276627Y00356127*
X00275052Y00357335*
X00273217Y00358095*
X00272519Y00358187*
G37*
G36*
X00269979D02*
X00269281Y00358095D01*
X00267446Y00357335*
X00265871Y00356127*
X00264663Y00354551*
X00263903Y00352717*
X00263811Y00352019*
X00269979*
Y00358187*
G37*
G36*
X00924999Y0038582D02*
X0092258Y00385339D01*
X00920529Y00383969*
X00919159Y00381918*
X00918678Y00379499*
X00919052Y00377614*
X00892956Y00351517*
X00650792*
X0063478Y0036753*
X00633963Y00368076*
X00632999Y00368267*
X00615951*
X0061595Y00368281*
X00614972Y00370641*
X00613417Y00372667*
X00611391Y00374222*
X00609031Y00375199*
X00606499Y00375533*
X00603967Y00375199*
X00601607Y00374222*
X00599581Y00372667*
X00598026Y00370641*
X00597049Y00368281*
X00597047Y00368267*
X00550699*
X00549735Y00368076*
X00548918Y0036753*
X00457551Y00276163*
X00455249Y0027662*
X0045283Y00276139*
X00450779Y00274769*
X00449409Y00272718*
X00448927Y00270299*
X00449409Y0026788*
X00450779Y00265829*
X0045283Y00264459*
X00455249Y00263978*
X00457668Y00264459*
X00459719Y00265829*
X00461089Y0026788*
X0046157Y00270299*
X00461113Y00272601*
X00551742Y00363231*
X00597047*
X00597049Y00363217*
X00598026Y00360857*
X00599581Y00358831*
X00601607Y00357276*
X00603967Y00356299*
X00606499Y00355965*
X00609031Y00356299*
X00611391Y00357276*
X00613417Y00358831*
X00614972Y00360857*
X0061595Y00363217*
X00615951Y00363231*
X00631956*
X00647968Y00347218*
X00648785Y00346672*
X00649749Y00346481*
X00893999*
X00894963Y00346672*
X0089578Y00347218*
X00922364Y00373803*
X0092258Y00373659*
X00924999Y00373178*
X00927418Y00373659*
X00929469Y00375029*
X00930839Y0037708*
X0093132Y00379499*
X00930839Y00381918*
X00929469Y00383969*
X00927418Y00385339*
X00924999Y0038582*
G37*
G36*
X01076799Y00456195D02*
X01074497Y00455892D01*
X01072351Y00455003*
X01070508Y0045359*
X01069095Y00451747*
X01068206Y00449602*
X01067903Y00447299*
X01068206Y00444996*
X01069095Y00442851*
X01070508Y00441008*
X01072351Y00439595*
X01074497Y00438706*
X01076799Y00438404*
X01079101Y00438706*
X01081247Y00439595*
X0108309Y00441008*
X01084503Y00442851*
X01085392Y00444996*
X01085695Y00447299*
X01085392Y00449602*
X01084503Y00451747*
X0108309Y0045359*
X01081247Y00455003*
X01079101Y00455892*
X01076799Y00456195*
G37*
G36*
X01219467Y00560759D02*
X01213299D01*
Y00554591*
X01213997Y00554683*
X01215832Y00555443*
X01217407Y00556651*
X01218615Y00558227*
X01219375Y00560061*
X01219467Y00560759*
G37*
G36*
X01210759D02*
X01204591D01*
X01204683Y00560061*
X01205443Y00558227*
X01206651Y00556651*
X01208226Y00555443*
X01210061Y00554683*
X01210759Y00554591*
Y00560759*
G37*
G36*
X00317999Y00558595D02*
X00315696Y00558292D01*
X00313551Y00557403*
X00311708Y00555989*
X00310295Y00554147*
X00309406Y00552001*
X00309103Y00549699*
X00309406Y00547396*
X00310295Y00545251*
X00311708Y00543409*
X00313551Y00541995*
X00315696Y00541106*
X00317999Y00540803*
X00320302Y00541106*
X00322447Y00541995*
X0032429Y00543409*
X00325703Y00545251*
X00326592Y00547396*
X00326895Y00549699*
X00326592Y00552001*
X00325703Y00554147*
X0032429Y00555989*
X00322447Y00557403*
X00320302Y00558292*
X00317999Y00558595*
G37*
G36*
X01076799Y00583195D02*
X01074497Y00582892D01*
X01072351Y00582003*
X01070508Y0058059*
X01069095Y00578747*
X01068206Y00576602*
X01067903Y00574299*
X01068206Y00571996*
X01069095Y00569851*
X01070508Y00568008*
X01072351Y00566595*
X01074497Y00565706*
X01076799Y00565404*
X01079101Y00565706*
X01081247Y00566595*
X0108309Y00568008*
X01084503Y00569851*
X01085392Y00571996*
X01085695Y00574299*
X01085392Y00576602*
X01084503Y00578747*
X0108309Y0058059*
X01081247Y00582003*
X01079101Y00582892*
X01076799Y00583195*
G37*
G36*
X01146999Y00608614D02*
X01145028Y00608355D01*
X01143191Y00607594*
X01141614Y00606384*
X01140404Y00604807*
X01139643Y0060297*
X01139384Y00600999*
X01139643Y00599028*
X01140404Y00597191*
X01141614Y00595614*
X01143191Y00594404*
X01145028Y00593643*
X01146999Y00593384*
X0114897Y00593643*
X01150807Y00594404*
X01152384Y00595614*
X0115323Y00596717*
X01330725*
X01357565Y00569877*
X01357384Y00568499*
X01357643Y00566528*
X01358404Y00564691*
X01359614Y00563114*
X01361191Y00561904*
X01363028Y00561143*
X01364999Y00560884*
X0136697Y00561143*
X01368807Y00561904*
X01370384Y00563114*
X01371594Y00564691*
X01372355Y00566528*
X01372614Y00568499*
X01372355Y0057047*
X01371594Y00572307*
X01370384Y00573884*
X01368807Y00575094*
X0136697Y00575855*
X01364999Y00576114*
X01363621Y00575933*
X01335527Y00604027*
X01334138Y00604955*
X01332499Y00605282*
X0115323*
X01152384Y00606384*
X01150807Y00607594*
X0114897Y00608355*
X01146999Y00608614*
G37*
G36*
X00245749Y00576933D02*
X00243217Y00576599D01*
X00240857Y00575622*
X00238831Y00574067*
X00237276Y00572041*
X00236299Y00569681*
X00235966Y00567149*
X00236299Y00564617*
X00237276Y00562257*
X00238831Y00560231*
X00240857Y00558676*
X00243217Y00557699*
X00245749Y00557365*
X00248281Y00557699*
X00250641Y00558676*
X00252667Y00560231*
X00254222Y00562257*
X00255199Y00564617*
X00255533Y00567149*
X00255199Y00569681*
X00254222Y00572041*
X00252667Y00574067*
X00250641Y00575622*
X00248281Y00576599*
X00245749Y00576933*
G37*
G36*
X00999597Y00546422D02*
X00997986Y00546209D01*
X009953Y00545097*
X00992994Y00543327*
X00991224Y00541021*
X00990112Y00538335*
X009899Y00536723*
X00999597*
Y00546422*
G37*
G36*
X00245749Y00551533D02*
X00243217Y00551199D01*
X00240857Y00550222*
X00238831Y00548667*
X00237276Y00546641*
X00236299Y00544281*
X00235966Y00541749*
X00236299Y00539217*
X00237276Y00536857*
X00238831Y00534831*
X00240857Y00533276*
X00243217Y00532299*
X00245749Y00531965*
X00248281Y00532299*
X00250641Y00533276*
X00252667Y00534831*
X00254222Y00536857*
X00255199Y00539217*
X00255533Y00541749*
X00255199Y00544281*
X00254222Y00546641*
X00252667Y00548667*
X00250641Y00550222*
X00248281Y00551199*
X00245749Y00551533*
G37*
G36*
X01011836Y00534183D02*
X01002138D01*
Y00524485*
X0100375Y00524698*
X01006435Y0052581*
X01008741Y0052758*
X01010511Y00529886*
X01011623Y00532571*
X01011836Y00534183*
G37*
G36*
X01076799Y00557795D02*
X01074497Y00557492D01*
X01072351Y00556603*
X01070508Y0055519*
X01069095Y00553347*
X01068206Y00551202*
X01067903Y00548899*
X01068206Y00546597*
X01069095Y00544451*
X01070508Y00542608*
X01072351Y00541195*
X01074497Y00540306*
X01076799Y00540004*
X01079101Y00540306*
X01081247Y00541195*
X0108309Y00542608*
X01084503Y00544451*
X01085392Y00546597*
X01085695Y00548899*
X01085392Y00551202*
X01084503Y00553347*
X0108309Y0055519*
X01081247Y00556603*
X01079101Y00557492*
X01076799Y00557795*
G37*
G36*
X01102199D02*
X01099897Y00557492D01*
X01097751Y00556603*
X01095909Y0055519*
X01094495Y00553347*
X01093606Y00551202*
X01093303Y00548899*
X01093606Y00546597*
X01093966Y00545727*
X01086256Y00538017*
X01028118*
X01027839Y00539418*
X01026469Y00541469*
X01024418Y00542839*
X01021999Y0054332*
X0101958Y00542839*
X01017529Y00541469*
X01016159Y00539418*
X01015677Y00536999*
X01016159Y0053458*
X01017529Y00532529*
X01019481Y00531225*
Y00528042*
X01008372Y00516933*
X01007786Y00516972*
X01005759Y00518526*
X010034Y00519504*
X01000868Y00519837*
X00998335Y00519504*
X00995976Y00518526*
X00993949Y00516972*
X00992395Y00514945*
X00991417Y00512586*
X00991084Y00510053*
X00991417Y00507521*
X00992395Y00505162*
X00993949Y00503135*
X00995976Y0050158*
X00998335Y00500603*
X01000868Y0050027*
X010034Y00500603*
X01005759Y0050158*
X01007786Y00503135*
X0100934Y00505162*
X01010318Y00507521*
X01010651Y00510053*
X01010414Y00511853*
X0102378Y00525218*
X01024326Y00526035*
X01024517Y00526999*
Y00531225*
X01026469Y00532529*
X01026771Y00532981*
X0107049*
X01070899Y00531778*
X01069553Y00530745*
X01067924Y00528623*
X010669Y00526151*
X01066719Y00524769*
X01086879*
X01086698Y00526151*
X01085674Y00528623*
X01084045Y00530745*
X01082699Y00531778*
X01083108Y00532981*
X01087299*
X01088263Y00533172*
X0108908Y00533718*
X01097075Y00541714*
X01097751Y00541195*
X01099897Y00540306*
X01102199Y00540004*
X01104501Y00540306*
X01106647Y00541195*
X0110849Y00542608*
X01109903Y00544451*
X01110792Y00546597*
X01111095Y00548899*
X01110792Y00551202*
X01109903Y00553347*
X0110849Y0055519*
X01106647Y00556603*
X01104501Y00557492*
X01102199Y00557795*
G37*
G36*
X01002138Y00546422D02*
Y00536723D01*
X01011836*
X01011623Y00538335*
X01010511Y00541021*
X01008741Y00543327*
X01006435Y00545097*
X0100375Y00546209*
X01002138Y00546422*
G37*
G36*
X00317999Y00583995D02*
X00315696Y00583692D01*
X00313551Y00582803*
X00311708Y00581389*
X00310295Y00579547*
X00309406Y00577401*
X00309103Y00575099*
X00309406Y00572797*
X00310295Y00570651*
X00311708Y00568809*
X00313551Y00567395*
X00315696Y00566506*
X00317999Y00566203*
X00320302Y00566506*
X00322447Y00567395*
X0032429Y00568809*
X00325703Y00570651*
X00326592Y00572797*
X00326895Y00575099*
X00326592Y00577401*
X00325703Y00579547*
X0032429Y00581389*
X00322447Y00582803*
X00320302Y00583692*
X00317999Y00583995*
G37*
G36*
X00106729Y00629937D02*
X00106031Y00629845D01*
X00104197Y00629085*
X00102621Y00627877*
X00101413Y00626301*
X00100653Y00624467*
X00100561Y00623769*
X00106729*
Y00629937*
G37*
G36*
X00317999Y00634795D02*
X00315696Y00634492D01*
X00313551Y00633603*
X00311708Y0063219*
X00310295Y00630347*
X00309406Y00628202*
X00309103Y00625899*
X00309406Y00623596*
X00310295Y00621451*
X00311708Y00619608*
X00313551Y00618195*
X00315696Y00617306*
X00317999Y00617003*
X00320302Y00617306*
X00322447Y00618195*
X0032429Y00619608*
X00325703Y00621451*
X00326592Y00623596*
X00326895Y00625899*
X00326592Y00628202*
X00325703Y00630347*
X0032429Y0063219*
X00322447Y00633603*
X00320302Y00634492*
X00317999Y00634795*
G37*
G36*
X00115437Y00621229D02*
X00109269D01*
Y00615061*
X00109967Y00615153*
X00111802Y00615913*
X00113377Y00617121*
X00114585Y00618697*
X00115345Y00620531*
X00115437Y00621229*
G37*
G36*
X01337999Y00657114D02*
X01336028Y00656855D01*
X01334191Y00656094*
X01332614Y00654884*
X01331404Y00653307*
X01330643Y0065147*
X01330384Y00649499*
X01330643Y00647528*
X01331404Y00645691*
X01332614Y00644114*
X01334191Y00642904*
X01336028Y00642143*
X01337999Y00641884*
X0133997Y00642143*
X01341807Y00642904*
X01343384Y00644114*
X0134423Y00645217*
X01385394*
X01385404Y00645191*
X01386614Y00643614*
X01388191Y00642404*
X01390028Y00641643*
X01391999Y00641384*
X0139397Y00641643*
X01395807Y00642404*
X01397384Y00643614*
X01398594Y00645191*
X01399355Y00647028*
X01399614Y00648999*
X01399355Y0065097*
X01398594Y00652807*
X01397384Y00654384*
X01395807Y00655594*
X0139397Y00656355*
X01391999Y00656614*
X01390028Y00656355*
X01388191Y00655594*
X01386614Y00654384*
X01386152Y00653781*
X0134423*
X01343384Y00654884*
X01341807Y00656094*
X0133997Y00656855*
X01337999Y00657114*
G37*
G36*
X00245749Y00653133D02*
X00243217Y00652799D01*
X00240857Y00651822*
X00238831Y00650267*
X00237276Y00648241*
X00236299Y00645881*
X00235966Y00643349*
X00236299Y00640817*
X00237276Y00638457*
X00238831Y00636431*
X00240857Y00634876*
X00243217Y00633899*
X00245749Y00633565*
X00248281Y00633899*
X00250641Y00634876*
X00252667Y00636431*
X00254222Y00638457*
X00255199Y00640817*
X00255533Y00643349*
X00255199Y00645881*
X00254222Y00648241*
X00252667Y00650267*
X00250641Y00651822*
X00248281Y00652799*
X00245749Y00653133*
G37*
G36*
X00109269Y00629937D02*
Y00623769D01*
X00115437*
X00115345Y00624467*
X00114585Y00626301*
X00113377Y00627877*
X00111802Y00629085*
X00109967Y00629845*
X00109269Y00629937*
G37*
G36*
X00317999Y00609395D02*
X00315696Y00609092D01*
X00313551Y00608203*
X00311708Y0060679*
X00310295Y00604947*
X00309406Y00602802*
X00309103Y00600499*
X00309406Y00598197*
X00310295Y00596051*
X00311708Y00594209*
X00313551Y00592795*
X00315696Y00591906*
X00317999Y00591603*
X00320302Y00591906*
X00322447Y00592795*
X0032429Y00594209*
X00325703Y00596051*
X00326592Y00598197*
X00326895Y00600499*
X00326592Y00602802*
X00325703Y00604947*
X0032429Y0060679*
X00322447Y00608203*
X00320302Y00609092*
X00317999Y00609395*
G37*
G36*
X00245749Y00602333D02*
X00243217Y00601999D01*
X00240857Y00601022*
X00238831Y00599467*
X00237276Y00597441*
X00236299Y00595081*
X00235966Y00592549*
X00236299Y00590017*
X00237276Y00587657*
X00238831Y00585631*
X00240857Y00584076*
X00243217Y00583099*
X00245749Y00582765*
X00248281Y00583099*
X00250641Y00584076*
X00252667Y00585631*
X00254222Y00587657*
X00255199Y00590017*
X00255533Y00592549*
X00255199Y00595081*
X00254222Y00597441*
X00252667Y00599467*
X00250641Y00601022*
X00248281Y00601999*
X00245749Y00602333*
G37*
G36*
X01102199Y00583195D02*
X01099897Y00582892D01*
X01097751Y00582003*
X01095909Y0058059*
X01094495Y00578747*
X01093606Y00576602*
X01093303Y00574299*
X01093606Y00571996*
X01094495Y00569851*
X01095909Y00568008*
X01097751Y00566595*
X01099897Y00565706*
X01102199Y00565404*
X01104501Y00565706*
X01106647Y00566595*
X0110849Y00568008*
X01109903Y00569851*
X01110059Y00570227*
X01208862*
X01209109Y00568981*
X01208226Y00568615*
X01206651Y00567407*
X01205443Y00565831*
X01204683Y00563997*
X01204591Y00563299*
X01219467*
X01219375Y00563997*
X01218615Y00565831*
X01217407Y00567407*
X01215832Y00568615*
X01214948Y00568981*
X01215196Y00570227*
X01314163*
X01314629Y00569529*
X0131668Y00568159*
X01319099Y00567678*
X01321518Y00568159*
X01323569Y00569529*
X01324939Y0057158*
X0132542Y00573999*
X01324939Y00576418*
X01323569Y00578469*
X01321518Y00579839*
X01319099Y00580321*
X0131668Y00579839*
X01314629Y00578469*
X01314163Y00577771*
X01110307*
X01109903Y00578747*
X0110849Y0058059*
X01106647Y00582003*
X01104501Y00582892*
X01102199Y00583195*
G37*
G36*
X00106729Y00621229D02*
X00100561D01*
X00100653Y00620531*
X00101413Y00618697*
X00102621Y00617121*
X00104197Y00615913*
X00106031Y00615153*
X00106729Y00615061*
Y00621229*
G37*
G36*
X01579499Y00654095D02*
X01574634Y00653712D01*
X0156989Y00652573*
X01565382Y00650706*
X01561221Y00648156*
X01557511Y00644987*
X01554342Y00641277*
X01551792Y00637116*
X01549925Y00632608*
X01548786Y00627863*
X01548403Y00622999*
X01548786Y00618135*
X01549925Y0061339*
X01551792Y00608882*
X01554342Y00604721*
X01557511Y00601011*
X01561221Y00597842*
X01565382Y00595292*
X0156989Y00593425*
X01574634Y00592286*
X01579499Y00591903*
X01584363Y00592286*
X01589108Y00593425*
X01593616Y00595292*
X01597777Y00597842*
X01601487Y00601011*
X01604656Y00604721*
X01607206Y00608882*
X01609073Y0061339*
X01610212Y00618135*
X01610595Y00622999*
X01610212Y00627863*
X01609073Y00632608*
X01607206Y00637116*
X01604656Y00641277*
X01601487Y00644987*
X01597777Y00648156*
X01593616Y00650706*
X01589108Y00652573*
X01584363Y00653712*
X01579499Y00654095*
G37*
G36*
X01089499D02*
X01084634Y00653712D01*
X0107989Y00652573*
X01075382Y00650706*
X01071221Y00648156*
X01067511Y00644987*
X01064342Y00641277*
X01061792Y00637116*
X01059925Y00632608*
X01058786Y00627863*
X01058403Y00622999*
X01058786Y00618135*
X01059925Y0061339*
X01061792Y00608882*
X01064342Y00604721*
X01067511Y00601011*
X01071221Y00597842*
X01075382Y00595292*
X0107989Y00593425*
X01084634Y00592286*
X01089499Y00591903*
X01094363Y00592286*
X01099108Y00593425*
X01103616Y00595292*
X01107777Y00597842*
X01111487Y00601011*
X01114656Y00604721*
X01117206Y00608882*
X01119073Y0061339*
X01120212Y00618135*
X01120595Y00622999*
X01120212Y00627863*
X01119073Y00632608*
X01117206Y00637116*
X01114656Y00641277*
X01111487Y00644987*
X01107777Y00648156*
X01103616Y00650706*
X01099108Y00652573*
X01094363Y00653712*
X01089499Y00654095*
G37*
G36*
X01100929Y00471429D02*
X01092119D01*
X010923Y00470047*
X01093324Y00467575*
X01094953Y00465453*
X01097075Y00463824*
X01099547Y00462801*
X01100929Y00462619*
Y00471429*
G37*
G36*
X00256717Y00464279D02*
X00247019D01*
Y00454581*
X00248631Y00454793*
X00251317Y00455906*
X00253623Y00457675*
X00255392Y00459981*
X00256505Y00462667*
X00256717Y00464279*
G37*
G36*
X00244479D02*
X00234781D01*
X00234993Y00462667*
X00236106Y00459981*
X00237875Y00457675*
X00240181Y00455906*
X00242867Y00454793*
X00244479Y00454581*
Y00464279*
G37*
G36*
X00317999Y00482395D02*
X00315696Y00482092D01*
X00313551Y00481203*
X00311708Y00479789*
X00310295Y00477947*
X00309406Y00475801*
X00309103Y00473499*
X00309406Y00471197*
X00310295Y00469051*
X00311708Y00467209*
X00313551Y00465795*
X00315696Y00464906*
X00317999Y00464603*
X00320302Y00464906*
X00322447Y00465795*
X0032429Y00467209*
X00325703Y00469051*
X00326592Y00471197*
X00326895Y00473499*
X00326592Y00475801*
X00325703Y00477947*
X0032429Y00479789*
X00322447Y00481203*
X00320302Y00482092*
X00317999Y00482395*
G37*
G36*
X01076799Y00481595D02*
X01074497Y00481292D01*
X01072351Y00480403*
X01070508Y0047899*
X01069095Y00477147*
X01068206Y00475002*
X01067903Y00472699*
X01068206Y00470396*
X01069095Y00468251*
X01070508Y00466408*
X01072351Y00464995*
X01074497Y00464106*
X01076799Y00463804*
X01079101Y00464106*
X01081247Y00464995*
X0108309Y00466408*
X01084503Y00468251*
X01085392Y00470396*
X01085695Y00472699*
X01085392Y00475002*
X01084503Y00477147*
X0108309Y0047899*
X01081247Y00480403*
X01079101Y00481292*
X01076799Y00481595*
G37*
G36*
X0111228Y00471429D02*
X01103469D01*
Y00462619*
X01104851Y00462801*
X01107323Y00463824*
X01109445Y00465453*
X01111074Y00467575*
X01112097Y00470047*
X0111228Y00471429*
G37*
G36*
X00247019Y00451117D02*
Y00441419D01*
X00256717*
X00256505Y00443031*
X00255392Y00445717*
X00253623Y00448023*
X00251317Y00449792*
X00248631Y00450905*
X00247019Y00451117*
G37*
G36*
X00244479D02*
X00242867Y00450905D01*
X00240181Y00449792*
X00237875Y00448023*
X00236106Y00445717*
X00234993Y00443031*
X00234781Y00441419*
X00244479*
Y00451117*
G37*
G36*
X01102199Y00456195D02*
X01099897Y00455892D01*
X01097751Y00455003*
X01095909Y0045359*
X01094495Y00451747*
X01093606Y00449602*
X01093303Y00447299*
X01093606Y00444996*
X01094495Y00442851*
X01095909Y00441008*
X01097751Y00439595*
X01099897Y00438706*
X01102199Y00438404*
X01104501Y00438706*
X01106647Y00439595*
X0110849Y00441008*
X01109903Y00442851*
X01110792Y00444996*
X01111095Y00447299*
X01110792Y00449602*
X01109903Y00451747*
X0110849Y0045359*
X01106647Y00455003*
X01104501Y00455892*
X01102199Y00456195*
G37*
G36*
X01000868Y00469037D02*
X00998335Y00468704D01*
X00995976Y00467726*
X00993949Y00466171*
X00992395Y00464145*
X00991417Y00461786*
X00991084Y00459253*
X00991417Y00456721*
X00992395Y00454362*
X00993949Y00452335*
X00995976Y00450781*
X00998335Y00449803*
X01000868Y0044947*
X010034Y00449803*
X01005759Y00450781*
X01007786Y00452335*
X0100934Y00454362*
X01010318Y00456721*
X01010651Y00459253*
X01010318Y00461786*
X0100934Y00464145*
X01007786Y00466171*
X01005759Y00467726*
X010034Y00468704*
X01000868Y00469037*
G37*
G36*
X00319269Y0045818D02*
Y00449369D01*
X00328079*
X00327897Y00450751*
X00326874Y00453223*
X00325245Y00455345*
X00323123Y00456974*
X00320651Y00457998*
X00319269Y0045818*
G37*
G36*
X00316729D02*
X00315347Y00457998D01*
X00312875Y00456974*
X00310753Y00455345*
X00309124Y00453223*
X00308102Y00450751*
X00307919Y00449369*
X00316729*
Y0045818*
G37*
G36*
X00244479Y00476517D02*
X00242867Y00476305D01*
X00240181Y00475192*
X00237875Y00473423*
X00236106Y00471117*
X00234993Y00468431*
X00234781Y00466819*
X00244479*
Y00476517*
G37*
G36*
X00245749Y00526133D02*
X00243217Y00525799D01*
X00240857Y00524822*
X00238831Y00523267*
X00237276Y00521241*
X00236299Y00518881*
X00235966Y00516349*
X00236299Y00513817*
X00237276Y00511457*
X00238831Y00509431*
X00240857Y00507876*
X00243217Y00506899*
X00245749Y00506565*
X00248281Y00506899*
X00250641Y00507876*
X00252667Y00509431*
X00254222Y00511457*
X00255199Y00513817*
X00255533Y00516349*
X00255199Y00518881*
X00254222Y00521241*
X00252667Y00523267*
X00250641Y00524822*
X00248281Y00525799*
X00245749Y00526133*
G37*
G36*
X01374499Y00493072D02*
X01224572Y00492999D01*
X01224499Y00493072*
X01221559Y00492782*
X01218731Y00491924*
X01216125Y00490531*
X01213841Y00488657*
X01211967Y00486373*
X01210574Y00483767*
X01209716Y0048094*
X01209426Y00477999*
X01209499Y00328072*
X01209426Y00327999*
X01209716Y00325059*
X01210574Y00322231*
X01211967Y00319625*
X01213841Y00317341*
X01216125Y00315468*
X01218731Y00314074*
X01221559Y00313216*
X01224499Y00312926*
X01374426Y00312999*
X01374499Y00312926*
X01377439Y00313216*
X01380267Y00314074*
X01382873Y00315468*
X01385157Y00317341*
X01387031Y00319625*
X01388424Y00322231*
X01389282Y00325059*
X01389572Y00327999*
X01389499Y00477926*
X01389572Y00477999*
X01389571*
X01389282Y0048094*
X01388424Y00483767*
X01387031Y00486373*
X01385157Y00488657*
X01382873Y00490531*
X01380267Y00491924*
X01377439Y00492782*
X01374499Y00493072*
G37*
G36*
X00317999Y00507795D02*
X00315696Y00507492D01*
X00313551Y00506603*
X00311708Y0050519*
X00310295Y00503347*
X00309406Y00501202*
X00309103Y00498899*
X00309406Y00496597*
X00310295Y00494451*
X00311708Y00492608*
X00313551Y00491195*
X00315696Y00490306*
X00317999Y00490003*
X00320302Y00490306*
X00322447Y00491195*
X0032429Y00492608*
X00325703Y00494451*
X00326592Y00496597*
X00326895Y00498899*
X00326592Y00501202*
X00325703Y00503347*
X0032429Y0050519*
X00322447Y00506603*
X00320302Y00507492*
X00317999Y00507795*
G37*
G36*
X00999597Y00534183D02*
X009899D01*
X00990112Y00532571*
X00991224Y00529886*
X00992994Y0052758*
X009953Y0052581*
X00997986Y00524698*
X00999597Y00524485*
Y00534183*
G37*
G36*
X00317999Y00533195D02*
X00315696Y00532892D01*
X00313551Y00532003*
X00311708Y0053059*
X00310295Y00528747*
X00309406Y00526602*
X00309103Y00524299*
X00309406Y00521996*
X00310295Y00519851*
X00311708Y00518008*
X00313551Y00516595*
X00315696Y00515706*
X00317999Y00515403*
X00320302Y00515706*
X00322447Y00516595*
X0032429Y00518008*
X00325703Y00519851*
X00326592Y00521996*
X00326895Y00524299*
X00326592Y00526602*
X00325703Y00528747*
X0032429Y0053059*
X00322447Y00532003*
X00320302Y00532892*
X00317999Y00533195*
G37*
G36*
X01102199Y00532395D02*
X01099897Y00532092D01*
X01097751Y00531203*
X01095909Y00529789*
X01094495Y00527947*
X01093606Y00525801*
X01093303Y00523499*
X01093606Y00521197*
X01093966Y00520327*
X01087156Y00513517*
X01082456*
X01082048Y0051472*
X01084045Y00516253*
X01085674Y00518375*
X01086698Y00520847*
X01086879Y00522229*
X01066719*
X010669Y00520847*
X01067924Y00518375*
X01069553Y00516253*
X0107155Y0051472*
X01071142Y00513517*
X01048217*
X01047839Y00515418*
X01046469Y00517469*
X01044418Y00518839*
X01041999Y00519321*
X0103958Y00518839*
X01037529Y00517469*
X01036159Y00515418*
X01035677Y00512999*
X01036135Y00510697*
X0101261Y00487172*
X0101032*
X01010318Y00487186*
X0100934Y00489545*
X01007786Y00491571*
X01005759Y00493126*
X010034Y00494104*
X01000868Y00494437*
X00998335Y00494104*
X00995976Y00493126*
X00993949Y00491571*
X00992395Y00489545*
X00991417Y00487186*
X00991084Y00484653*
X00991417Y00482121*
X00992395Y00479762*
X00993949Y00477735*
X00995976Y0047618*
X00998335Y00475203*
X01000868Y0047487*
X010034Y00475203*
X01005759Y0047618*
X01007786Y00477735*
X0100934Y00479762*
X01010318Y00482121*
X0101032Y00482135*
X01013653*
X01014617Y00482327*
X01015434Y00482873*
X01039697Y00507135*
X01041999Y00506678*
X01044418Y00507159*
X01046396Y00508481*
X01088199*
X01089163Y00508672*
X0108998Y00509218*
X01097075Y00516314*
X01097751Y00515795*
X01099897Y00514906*
X01102199Y00514604*
X01104501Y00514906*
X01106647Y00515795*
X0110849Y00517209*
X01109903Y00519051*
X01110792Y00521197*
X01111095Y00523499*
X01110792Y00525801*
X01109903Y00527947*
X0110849Y00529789*
X01106647Y00531203*
X01104501Y00532092*
X01102199Y00532395*
G37*
G36*
X01103469Y00482779D02*
Y00473969D01*
X0111228*
X01112097Y00475351*
X01111074Y00477823*
X01109445Y00479945*
X01107323Y00481574*
X01104851Y00482597*
X01103469Y00482779*
G37*
G36*
X01100929D02*
X01099547Y00482597D01*
X01097075Y00481574*
X01094953Y00479945*
X01093324Y00477823*
X010923Y00475351*
X01092119Y00473969*
X01100929*
Y00482779*
G37*
G36*
X00247019Y00476517D02*
Y00466819D01*
X00256717*
X00256505Y00468431*
X00255392Y00471117*
X00253623Y00473423*
X00251317Y00475192*
X00248631Y00476305*
X00247019Y00476517*
G37*
G36*
X01102199Y00506995D02*
X01099897Y00506692D01*
X01097751Y00505803*
X01095909Y00504389*
X01094495Y00502547*
X01093606Y00500401*
X01093303Y00498099*
X01093606Y00495797*
X01094495Y00493651*
X01095909Y00491809*
X01097751Y00490395*
X01099897Y00489506*
X01102199Y00489204*
X01104501Y00489506*
X01106647Y00490395*
X0110849Y00491809*
X01109903Y00493651*
X01110792Y00495797*
X01111095Y00498099*
X01110792Y00500401*
X01109903Y00502547*
X0110849Y00504389*
X01106647Y00505803*
X01104501Y00506692*
X01102199Y00506995*
G37*
G36*
X01076799D02*
X01074497Y00506692D01*
X01072351Y00505803*
X01070508Y00504389*
X01069095Y00502547*
X01068206Y00500401*
X01067903Y00498099*
X01068206Y00495797*
X01069095Y00493651*
X01070508Y00491809*
X01072351Y00490395*
X01074497Y00489506*
X01076799Y00489204*
X01079101Y00489506*
X01081247Y00490395*
X0108309Y00491809*
X01084503Y00493651*
X01085392Y00495797*
X01085695Y00498099*
X01085392Y00500401*
X01084503Y00502547*
X0108309Y00504389*
X01081247Y00505803*
X01079101Y00506692*
X01076799Y00506995*
G37*
G36*
X00245749Y00500733D02*
X00243217Y00500399D01*
X00240857Y00499422*
X00238831Y00497867*
X00237276Y00495841*
X00236299Y00493481*
X00235966Y00490949*
X00236299Y00488417*
X00237276Y00486057*
X00238831Y00484031*
X00240857Y00482476*
X00243217Y00481499*
X00245749Y00481165*
X00248281Y00481499*
X00250641Y00482476*
X00252667Y00484031*
X00254222Y00486057*
X00255199Y00488417*
X00255533Y00490949*
X00255199Y00493481*
X00254222Y00495841*
X00252667Y00497867*
X00250641Y00499422*
X00248281Y00500399*
X00245749Y00500733*
G37*
G36*
X00677729Y00160729D02*
X00671561D01*
X00671653Y00160031*
X00672413Y00158196*
X00673621Y00156621*
X00675197Y00155413*
X00677031Y00154653*
X00677729Y00154561*
Y00160729*
G37*
G36*
X01136999Y00165614D02*
X01135028Y00165355D01*
X01133191Y00164594*
X01131614Y00163384*
X01130404Y00161807*
X01129643Y0015997*
X01129384Y00157999*
X01129643Y00156028*
X01130177Y00154739*
X01115218Y0013978*
X01114672Y00138963*
X01114481Y00137999*
Y00113042*
X01108456Y00107017*
X01102903*
X01102834Y00108072*
X0110282Y00108285*
X01104501Y00108506*
X01106647Y00109395*
X0110849Y00110808*
X01109903Y00112651*
X01110792Y00114796*
X01111095Y00117099*
X01110792Y00119402*
X01109903Y00121547*
X0110849Y0012339*
X01106647Y00124803*
X01104501Y00125692*
X01102199Y00125995*
X01099897Y00125692*
X01097751Y00124803*
X01095909Y0012339*
X01094495Y00121547*
X01093606Y00119402*
X01093303Y00117099*
X01093606Y00114796*
X01094495Y00112651*
X01095909Y00110808*
X01097751Y00109395*
X01099897Y00108506*
X01101578Y00108285*
X01101564Y00108072*
X01101495Y00107017*
X01088099*
X01087135Y00106826*
X01086318Y0010628*
X0107997Y00099932*
X01079101Y00100292*
X01076799Y00100595*
X01074497Y00100292*
X01072351Y00099403*
X01070508Y0009799*
X01069095Y00096147*
X01068206Y00094002*
X01067903Y00091699*
X01068206Y00089396*
X01069095Y00087251*
X01070508Y00085408*
X01072351Y00083995*
X01074497Y00083106*
X01076799Y00082804*
X01079101Y00083106*
X01081247Y00083995*
X0108309Y00085408*
X01084503Y00087251*
X01085392Y00089396*
X01085695Y00091699*
X01085392Y00094002*
X01084503Y00096147*
X01083985Y00096823*
X01089142Y00101981*
X01097217*
X01097465Y00100735*
X01097075Y00100574*
X01094953Y00098945*
X01093324Y00096823*
X010923Y00094351*
X01092119Y00092969*
X0111228*
X01112097Y00094351*
X01111074Y00096823*
X01109445Y00098945*
X01107323Y00100574*
X01106934Y00100735*
X01107181Y00101981*
X01109499*
X01110463Y00102172*
X0111128Y00102718*
X0111878Y00110218*
X01119326Y00111035*
X01119517Y00111999*
Y00136956*
X01133739Y00151177*
X01135028Y00150643*
X01136999Y00150384*
X0113897Y00150643*
X01140806Y00151404*
X01142384Y00152614*
X01143594Y00154191*
X01144355Y00156028*
X01144614Y00157999*
X01144355Y0015997*
X01143594Y00161807*
X01142384Y00163384*
X01140806Y00164594*
X0113897Y00165355*
X01136999Y00165614*
G37*
G36*
X01020749Y00158533D02*
X01018217Y00158199D01*
X01015857Y00157222*
X01013831Y00155667*
X01012276Y00153641*
X01011299Y00151281*
X01010965Y00148749*
X01011299Y00146217*
X01012276Y00143857*
X01013831Y00141831*
X01015857Y00140276*
X01018217Y00139299*
X01020749Y00138965*
X01023281Y00139299*
X01025641Y00140276*
X01027667Y00141831*
X01029222Y00143857*
X01030199Y00146217*
X01030533Y00148749*
X01030199Y00151281*
X01029222Y00153641*
X01027667Y00155667*
X01025641Y00157222*
X01023281Y00158199*
X01020749Y00158533*
G37*
G36*
X01086879Y00166629D02*
X01078069D01*
Y00157818*
X01079451Y00158*
X01081923Y00159024*
X01084045Y00160653*
X01085674Y00162775*
X01086698Y00165247*
X01086879Y00166629*
G37*
G36*
X01075529D02*
X01066719D01*
X010669Y00165247*
X01067924Y00162775*
X01069553Y00160653*
X01071675Y00159024*
X01074147Y00158*
X01075529Y00157818*
Y00166629*
G37*
G36*
X00686437Y00160729D02*
X00680269D01*
Y00154561*
X00680967Y00154653*
X00682802Y00155413*
X00684377Y00156621*
X00685585Y00158196*
X00686345Y00160031*
X00686437Y00160729*
G37*
G36*
X00247249Y00148787D02*
X00244586Y00148436D01*
X00242105Y00147409*
X00239974Y00145774*
X00238339Y00143643*
X00237312Y00141162*
X00236961Y00138499*
X00237312Y00135836*
X00238339Y00133355*
X00239974Y00131224*
X00242105Y00129589*
X00244586Y00128562*
X00247249Y00128211*
X00249912Y00128562*
X00252393Y00129589*
X00254524Y00131224*
X00256159Y00133355*
X00257186Y00135836*
X00257537Y00138499*
X00257186Y00141162*
X00256159Y00143643*
X00254524Y00145774*
X00252393Y00147409*
X00249912Y00148436*
X00247249Y00148787*
G37*
G36*
X00620799Y00133467D02*
Y00127299D01*
X00626967*
X00626875Y00127997*
X00626115Y00129831*
X00624907Y00131407*
X00623331Y00132615*
X00621497Y00133375*
X00620799Y00133467*
G37*
G36*
X00618259D02*
X00617561Y00133375D01*
X00615727Y00132615*
X00614151Y00131407*
X00612943Y00129831*
X00612183Y00127997*
X00612091Y00127299*
X00618259*
Y00133467*
G37*
G36*
X00159699Y00161457D02*
X00134299D01*
X00131333Y00161067*
X0012857Y00159922*
X00126197Y00158101*
X00124376Y00155728*
X00123231Y00152965*
X00122841Y00149999*
X00123231Y00147034*
X00124376Y0014427*
X00126197Y00141897*
X0012857Y00140076*
X00131333Y00138931*
X00134299Y00138541*
X00159699*
X00162665Y00138931*
X00165428Y00140076*
X00167801Y00141897*
X00169622Y0014427*
X00170767Y00147034*
X00171157Y00149999*
X00170767Y00152965*
X00169622Y00155728*
X00167801Y00158101*
X00165428Y00159922*
X00162665Y00161067*
X00159699Y00161457*
G37*
G36*
X01102199Y00151395D02*
X01099897Y00151092D01*
X01097751Y00150203*
X01095909Y0014879*
X01094495Y00146947*
X01093606Y00144802*
X01093303Y00142499*
X01093606Y00140196*
X01094495Y00138051*
X01095909Y00136208*
X01097751Y00134795*
X01099897Y00133906*
X01102199Y00133604*
X01104501Y00133906*
X01106647Y00134795*
X0110849Y00136208*
X01109903Y00138051*
X01110792Y00140196*
X01111095Y00142499*
X01110792Y00144802*
X01109903Y00146947*
X0110849Y0014879*
X01106647Y00150203*
X01104501Y00151092*
X01102199Y00151395*
G37*
G36*
X01076799D02*
X01074497Y00151092D01*
X01072351Y00150203*
X01070508Y0014879*
X01069095Y00146947*
X01068206Y00144802*
X01067903Y00142499*
X01068206Y00140196*
X01069095Y00138051*
X01070508Y00136208*
X01072351Y00134795*
X01074497Y00133906*
X01076799Y00133604*
X01079101Y00133906*
X01081247Y00134795*
X0108309Y00136208*
X01084503Y00138051*
X01085392Y00140196*
X01085695Y00142499*
X01085392Y00144802*
X01084503Y00146947*
X0108309Y0014879*
X01081247Y00150203*
X01079101Y00151092*
X01076799Y00151395*
G37*
G36*
X01102199Y00176795D02*
X01099897Y00176492D01*
X01097751Y00175603*
X01095909Y0017419*
X01094495Y00172347*
X01093606Y00170202*
X01093303Y00167899*
X01093606Y00165596*
X01094495Y00163451*
X01095909Y00161608*
X01097751Y00160195*
X01099897Y00159306*
X01102199Y00159004*
X01104501Y00159306*
X01106647Y00160195*
X0110849Y00161608*
X01109903Y00163451*
X01110792Y00165596*
X01111095Y00167899*
X01110792Y00170202*
X01109903Y00172347*
X0110849Y0017419*
X01106647Y00175603*
X01104501Y00176492*
X01102199Y00176795*
G37*
G36*
Y00202195D02*
X01099897Y00201892D01*
X01097751Y00201003*
X01095909Y00199589*
X01094495Y00197747*
X01093606Y00195601*
X01093303Y00193299*
X01093606Y00190997*
X01094495Y00188851*
X01095909Y00187009*
X01097751Y00185595*
X01099897Y00184706*
X01102199Y00184404*
X01104501Y00184706*
X01106647Y00185595*
X0110849Y00187009*
X01109903Y00188851*
X01110792Y00190997*
X01111095Y00193299*
X01110792Y00195601*
X01109903Y00197747*
X0110849Y00199589*
X01106647Y00201003*
X01104501Y00201892*
X01102199Y00202195*
G37*
G36*
X01076799D02*
X01074497Y00201892D01*
X01072351Y00201003*
X01070508Y00199589*
X01069095Y00197747*
X01068206Y00195601*
X01067903Y00193299*
X01068206Y00190997*
X01069095Y00188851*
X01070508Y00187009*
X01072351Y00185595*
X01074497Y00184706*
X01076799Y00184404*
X01079101Y00184706*
X01081247Y00185595*
X0108309Y00187009*
X01084503Y00188851*
X01085392Y00190997*
X01085695Y00193299*
X01085392Y00195601*
X01084503Y00197747*
X0108309Y00199589*
X01081247Y00201003*
X01079101Y00201892*
X01076799Y00202195*
G37*
G36*
X00247249Y00198787D02*
X00244586Y00198436D01*
X00242105Y00197409*
X00239974Y00195774*
X00238339Y00193643*
X00237312Y00191162*
X00236961Y00188499*
X00237312Y00185836*
X00238339Y00183355*
X00239974Y00181224*
X00242105Y00179589*
X00244586Y00178562*
X00247249Y00178211*
X00249912Y00178562*
X00252393Y00179589*
X00254524Y00181224*
X00256159Y00183355*
X00257186Y00185836*
X00257537Y00188499*
X00257186Y00191162*
X00256159Y00193643*
X00254524Y00195774*
X00252393Y00197409*
X00249912Y00198436*
X00247249Y00198787*
G37*
G36*
X01075529Y00217429D02*
X01066719D01*
X010669Y00216047*
X01067924Y00213575*
X01069553Y00211453*
X01071675Y00209824*
X01074147Y002088*
X01075529Y00208618*
Y00217429*
G37*
G36*
X00982999Y0040182D02*
X0098058Y00401339D01*
X00978529Y00399969*
X00977159Y00397918*
X00976677Y00395499*
X00977159Y0039308*
X00978529Y00391029*
X00980236Y00389888*
Y00363107*
X00980029Y00362969*
X00978659Y00360918*
X00978177Y00358499*
X00978659Y0035608*
X00980029Y00354029*
X0098208Y00352659*
X00982236Y00352628*
Y0030385*
X00953692Y00275306*
X00952985Y00274248*
X00952736Y00272999*
Y00220351*
X00929147Y00196762*
X00914776*
X00913969Y00197969*
X00911918Y00199339*
X00909499Y0019982*
X0090708Y00199339*
X00905029Y00197969*
X00903659Y00195918*
X00903177Y00193499*
X00903659Y0019108*
X00905029Y00189029*
X0090708Y00187659*
X00909499Y00187177*
X00911918Y00187659*
X00913969Y00189029*
X00914776Y00190236*
X00930499*
X00931748Y00190485*
X00932806Y00191192*
X00958306Y00216692*
X00959013Y00217751*
X00959262Y00218999*
Y00271648*
X00987806Y00300192*
X00988513Y0030125*
X00988762Y00302499*
Y00353891*
X00988969Y00354029*
X00990339Y0035608*
X0099082Y00358499*
X00990339Y00360918*
X00988969Y00362969*
X00986918Y00364339*
X00986762Y0036437*
Y00390557*
X00987469Y00391029*
X00988839Y0039308*
X0098932Y00395499*
X00988839Y00397918*
X00987469Y00399969*
X00985418Y00401339*
X00982999Y0040182*
G37*
G36*
X01020749Y00209333D02*
X01018217Y00208999D01*
X01015857Y00208022*
X01013831Y00206467*
X01012276Y00204441*
X01011299Y00202081*
X01010965Y00199549*
X01011299Y00197017*
X01012276Y00194657*
X01013831Y00192631*
X01015857Y00191076*
X01018217Y00190099*
X01020749Y00189765*
X01023281Y00190099*
X01025641Y00191076*
X01027667Y00192631*
X01029222Y00194657*
X01030199Y00197017*
X01030533Y00199549*
X01030199Y00202081*
X01029222Y00204441*
X01027667Y00206467*
X01025641Y00208022*
X01023281Y00208999*
X01020749Y00209333*
G37*
G36*
Y00183933D02*
X01018217Y00183599D01*
X01015857Y00182622*
X01013831Y00181067*
X01012276Y00179041*
X01011299Y00176681*
X01010965Y00174149*
X01011299Y00171617*
X01012276Y00169257*
X01013831Y00167231*
X01015857Y00165676*
X01018217Y00164699*
X01020749Y00164365*
X01023281Y00164699*
X01025641Y00165676*
X01027667Y00167231*
X01029222Y00169257*
X01030199Y00171617*
X01030533Y00174149*
X01030199Y00176681*
X01029222Y00179041*
X01027667Y00181067*
X01025641Y00182622*
X01023281Y00183599*
X01020749Y00183933*
G37*
G36*
X00680269Y00169437D02*
Y00163269D01*
X00686437*
X00686345Y00163967*
X00685585Y00165801*
X00684377Y00167377*
X00682802Y00168585*
X00680967Y00169345*
X00680269Y00169437*
G37*
G36*
X00677729D02*
X00677031Y00169345D01*
X00675197Y00168585*
X00673621Y00167377*
X00672413Y00165801*
X00671653Y00163967*
X00671561Y00163269*
X00677729*
Y00169437*
G37*
G36*
X01078069Y00177979D02*
Y00169169D01*
X01086879*
X01086698Y00170551*
X01085674Y00173023*
X01084045Y00175145*
X01081923Y00176774*
X01079451Y00177798*
X01078069Y00177979*
G37*
G36*
X01075529D02*
X01074147Y00177798D01*
X01071675Y00176774*
X01069553Y00175145*
X01067924Y00173023*
X010669Y00170551*
X01066719Y00169169*
X01075529*
Y00177979*
G37*
G36*
X01020999Y0041482D02*
X0101858Y00414339D01*
X01016529Y00412969*
X01015159Y00410918*
X01014677Y00408499*
X01015159Y0040608*
X01016529Y00404029*
X01018481Y00402725*
Y00363542*
X01008218Y0035328*
X01007672Y00352463*
X01007481Y00351499*
Y00294042*
X00977718Y0026428*
X00977172Y00263463*
X00976981Y00262499*
Y00209542*
X00935093Y00167654*
X00932999Y0016807*
X0093058Y00167589*
X00928529Y00166219*
X00927159Y00164168*
X00926677Y00161749*
X00927159Y0015933*
X00928529Y00157279*
X0093058Y00155909*
X00932999Y00155428*
X00935418Y00155909*
X00937469Y00157279*
X00938839Y0015933*
X0093932Y00161749*
X00938839Y00164168*
X00938795Y00164234*
X0098128Y00206718*
X00981826Y00207535*
X00982017Y00208499*
Y00261456*
X0101178Y00291218*
X01012326Y00292035*
X01012517Y00292999*
Y00350456*
X0102278Y00360718*
X01023326Y00361535*
X01023517Y00362499*
Y00402725*
X01025469Y00404029*
X01026839Y0040608*
X0102732Y00408499*
X01026839Y00410918*
X01025469Y00412969*
X01023418Y00414339*
X01020999Y0041482*
G37*
G36*
X01100929Y00090429D02*
X01092119D01*
X010923Y00089047*
X01093324Y00086575*
X01094953Y00084453*
X01097075Y00082824*
X01099547Y00081801*
X01100929Y00081619*
Y00090429*
G37*
G36*
X01659999Y00141095D02*
X01655135Y00140712D01*
X0165039Y00139573*
X01645882Y00137706*
X01641721Y00135156*
X01638011Y00131987*
X01634842Y00128277*
X01632292Y00124116*
X01630426Y00119608*
X01629286Y00114864*
X01628903Y00109999*
X01629286Y00105135*
X01630426Y0010039*
X01632292Y00095882*
X01634842Y00091721*
X01638011Y00088011*
X01641721Y00084842*
X01645882Y00082292*
X0165039Y00080425*
X01655135Y00079286*
X01659999Y00078903*
X01664864Y00079286*
X01669608Y00080425*
X01674116Y00082292*
X01678277Y00084842*
X01681988Y00088011*
X01685156Y00091721*
X01687706Y00095882*
X01689573Y0010039*
X01690712Y00105135*
X01691095Y00109999*
X01690712Y00114864*
X01689573Y00119608*
X01687706Y00124116*
X01685156Y00128277*
X01681988Y00131987*
X01678277Y00135156*
X01674116Y00137706*
X01669608Y00139573*
X01664864Y00140712*
X01659999Y00141095*
G37*
G36*
X00059999D02*
X00055135Y00140712D01*
X0005039Y00139573*
X00045882Y00137706*
X00041721Y00135156*
X00038011Y00131987*
X00034842Y00128277*
X00032292Y00124116*
X00030425Y00119608*
X00029286Y00114864*
X00028903Y00109999*
X00029286Y00105135*
X00030425Y0010039*
X00032292Y00095882*
X00034842Y00091721*
X00038011Y00088011*
X00041721Y00084842*
X00045882Y00082292*
X0005039Y00080425*
X00055135Y00079286*
X00059999Y00078903*
X00064864Y00079286*
X00069608Y00080425*
X00074116Y00082292*
X00078277Y00084842*
X00081987Y00088011*
X00085156Y00091721*
X00087706Y00095882*
X00089573Y0010039*
X00090712Y00105135*
X00091095Y00109999*
X00090712Y00114864*
X00089573Y00119608*
X00087706Y00124116*
X00085156Y00128277*
X00081987Y00131987*
X00078277Y00135156*
X00074116Y00137706*
X00069608Y00139573*
X00064864Y00140712*
X00059999Y00141095*
G37*
G36*
X00899499Y00145595D02*
X00894634Y00145212D01*
X0088989Y00144073*
X00885382Y00142206*
X00881221Y00139656*
X00877511Y00136487*
X00874342Y00132777*
X00871792Y00128616*
X00869925Y00124108*
X00868786Y00119364*
X00868403Y00114499*
X00868786Y00109634*
X00869925Y0010489*
X00871792Y00100382*
X00874342Y00096221*
X00877511Y00092511*
X00881221Y00089342*
X00885382Y00086792*
X0088989Y00084925*
X00894634Y00083786*
X00899499Y00083403*
X00904363Y00083786*
X00909108Y00084925*
X00913616Y00086792*
X00917777Y00089342*
X00921487Y00092511*
X00924656Y00096221*
X00927206Y00100382*
X00929073Y0010489*
X00930212Y00109634*
X00930595Y00114499*
X00930212Y00119364*
X00929073Y00124108*
X00927206Y00128616*
X00924656Y00132777*
X00921487Y00136487*
X00917777Y00139656*
X00913616Y00142206*
X00909108Y00144073*
X00904363Y00145212*
X00899499Y00145595*
G37*
G36*
X00349499D02*
X00344635Y00145212D01*
X0033989Y00144073*
X00335382Y00142206*
X00331221Y00139656*
X00327511Y00136487*
X00324342Y00132777*
X00321792Y00128616*
X00319925Y00124108*
X00318786Y00119364*
X00318403Y00114499*
X00318786Y00109634*
X00319925Y0010489*
X00321792Y00100382*
X00324342Y00096221*
X00327511Y00092511*
X00331221Y00089342*
X00335382Y00086792*
X0033989Y00084925*
X00344635Y00083786*
X00349499Y00083403*
X00354363Y00083786*
X00359108Y00084925*
X00363616Y00086792*
X00367777Y00089342*
X00371487Y00092511*
X00374656Y00096221*
X00377206Y00100382*
X00379073Y0010489*
X00380212Y00109634*
X00380595Y00114499*
X00380212Y00119364*
X00379073Y00124108*
X00377206Y00128616*
X00374656Y00132777*
X00371487Y00136487*
X00367777Y00139656*
X00363616Y00142206*
X00359108Y00144073*
X00354363Y00145212*
X00349499Y00145595*
G37*
G36*
X0111228Y00090429D02*
X01103469D01*
Y00081619*
X01104851Y00081801*
X01107323Y00082824*
X01109445Y00084453*
X01111074Y00086575*
X01112097Y00089047*
X0111228Y00090429*
G37*
G36*
X01013979Y00049687D02*
X01013281Y00049595D01*
X01011447Y00048835*
X01009871Y00047627*
X01008663Y00046051*
X01007903Y00044217*
X01007811Y00043519*
X01013979*
Y00049687*
G37*
G36*
X01022687Y00040979D02*
X01016519D01*
Y00034811*
X01017217Y00034903*
X01019052Y00035663*
X01020627Y00036871*
X01021835Y00038446*
X01022595Y00040281*
X01022687Y00040979*
G37*
G36*
X01013979D02*
X01007811D01*
X01007903Y00040281*
X01008663Y00038446*
X01009871Y00036871*
X01011447Y00035663*
X01013281Y00034903*
X01013979Y00034811*
Y00040979*
G37*
G36*
X00172333Y00081015D02*
X00153499D01*
Y00073233*
X00159699*
X00163395Y00073719*
X0016684Y00075146*
X00169799Y00077416*
X00172068Y00080374*
X00172333Y00081015*
G37*
G36*
X00140499D02*
X00121666D01*
X0012193Y00080374*
X001242Y00077416*
X00127158Y00075146*
X00130603Y00073719*
X00134299Y00073233*
X00140499*
Y00081015*
G37*
G36*
X01016519Y00049687D02*
Y00043519D01*
X01022687*
X01022595Y00044217*
X01021835Y00046051*
X01020627Y00047627*
X01019052Y00048835*
X01017217Y00049595*
X01016519Y00049687*
G37*
G36*
X00140499Y00101797D02*
X00134299D01*
X00130603Y00101311*
X00127158Y00099884*
X001242Y00097614*
X0012193Y00094656*
X00121666Y00094015*
X00140499*
Y00101797*
G37*
G36*
X00638229Y00131437D02*
X00637531Y00131345D01*
X00635697Y00130585*
X00634121Y00129377*
X00632913Y00127801*
X00632153Y00125967*
X00632061Y00125269*
X00638229*
Y00131437*
G37*
G36*
X00626967Y00124759D02*
X00620799D01*
Y00118591*
X00621497Y00118683*
X00623331Y00119443*
X00624907Y00120651*
X00626115Y00122226*
X00626875Y00124061*
X00626967Y00124759*
G37*
G36*
X00618259D02*
X00612091D01*
X00612183Y00124061*
X00612943Y00122226*
X00614151Y00120651*
X00615727Y00119443*
X00617561Y00118683*
X00618259Y00118591*
Y00124759*
G37*
G36*
X00201505Y00145361D02*
Y00126527D01*
X00209287*
Y00132727*
X002088Y00136424*
X00207374Y00139868*
X00205105Y00142826*
X00202146Y00145096*
X00201505Y00145361*
G37*
G36*
X00188505D02*
X00187864Y00145096D01*
X00184906Y00142826*
X00182636Y00139868*
X00181209Y00136424*
X00180723Y00132727*
Y00126527*
X00188505*
Y00145361*
G37*
G36*
X00640769Y00131437D02*
Y00125269D01*
X00646938*
X00646845Y00125967*
X00646085Y00127801*
X00644877Y00129377*
X00643302Y00130585*
X00641467Y00131345*
X00640769Y00131437*
G37*
G36*
X00209287Y00113527D02*
X00201505D01*
Y00094693*
X00202146Y00094958*
X00205105Y00097228*
X00207374Y00100186*
X002088Y0010363*
X00209287Y00107327*
Y00113527*
G37*
G36*
X00188505D02*
X00180723D01*
Y00107327*
X00181209Y0010363*
X00182636Y00100186*
X00184906Y00097228*
X00187864Y00094958*
X00188505Y00094693*
Y00113527*
G37*
G36*
X00159699Y00101797D02*
X00153499D01*
Y00094015*
X00172333*
X00172068Y00094656*
X00169799Y00097614*
X0016684Y00099884*
X00163395Y00101311*
X00159699Y00101797*
G37*
G36*
X00646938Y00122729D02*
X00640769D01*
Y00116561*
X00641467Y00116653*
X00643302Y00117413*
X00644877Y00118621*
X00646085Y00120196*
X00646845Y00122031*
X00646938Y00122729*
G37*
G36*
X00638229D02*
X00632061D01*
X00632153Y00122031*
X00632913Y00120196*
X00634121Y00118621*
X00635697Y00117413*
X00637531Y00116653*
X00638229Y00116561*
Y00122729*
G37*
G36*
X01076799Y00125995D02*
X01074497Y00125692D01*
X01072351Y00124803*
X01070508Y0012339*
X01069095Y00121547*
X01068206Y00119402*
X01067903Y00117099*
X01068206Y00114796*
X01069095Y00112651*
X01070508Y00110808*
X01072351Y00109395*
X01074497Y00108506*
X01076799Y00108204*
X01079101Y00108506*
X01081247Y00109395*
X0108309Y00110808*
X01084503Y00112651*
X01085392Y00114796*
X01085695Y00117099*
X01085392Y00119402*
X01084503Y00121547*
X0108309Y0012339*
X01081247Y00124803*
X01079101Y00125692*
X01076799Y00125995*
G37*
G36*
X01086879Y00217429D02*
X01078069D01*
Y00208618*
X01079451Y002088*
X01081923Y00209824*
X01084045Y00211453*
X01085674Y00213575*
X01086698Y00216047*
X01086879Y00217429*
G37*
G36*
X00078729Y00267437D02*
X00078031Y00267345D01*
X00076197Y00266585*
X00074621Y00265377*
X00073413Y00263802*
X00072653Y00261967*
X00072561Y00261269*
X00078729*
Y00267437*
G37*
G36*
X00041269D02*
Y00261269D01*
X00047437*
X00047345Y00261967*
X00046585Y00263802*
X00045377Y00265377*
X00043801Y00266585*
X00041967Y00267345*
X00041269Y00267437*
G37*
G36*
X00038729D02*
X00038031Y00267345D01*
X00036197Y00266585*
X00034621Y00265377*
X00033413Y00263802*
X00032653Y00261967*
X00032561Y00261269*
X00038729*
Y00267437*
G37*
G36*
X01019479Y00274479D02*
X01009781D01*
X01009993Y00272867*
X01011106Y00270181*
X01012875Y00267875*
X01015181Y00266106*
X01017867Y00264993*
X01019479Y00264781*
Y00274479*
G37*
G36*
X00317999Y00279195D02*
X00315696Y00278892D01*
X00313551Y00278003*
X00311708Y00276589*
X00310295Y00274747*
X00309406Y00272602*
X00309103Y00270299*
X00309406Y00267996*
X00310295Y00265851*
X00311708Y00264008*
X00313551Y00262595*
X00315696Y00261706*
X00317999Y00261403*
X00320302Y00261706*
X00322447Y00262595*
X0032429Y00264008*
X00325703Y00265851*
X00326592Y00267996*
X00326895Y00270299*
X00326592Y00272602*
X00325703Y00274747*
X0032429Y00276589*
X00322447Y00278003*
X00320302Y00278892*
X00317999Y00279195*
G37*
G36*
X00081269Y00267437D02*
Y00261269D01*
X00087437*
X00087345Y00261967*
X00086585Y00263802*
X00085377Y00265377*
X00083801Y00266585*
X00081967Y00267345*
X00081269Y00267437*
G37*
G36*
X0111228Y00268229D02*
X01103469D01*
Y00259418*
X01104851Y002596*
X01107323Y00260624*
X01109445Y00262253*
X01111074Y00264375*
X01112097Y00266847*
X0111228Y00268229*
G37*
G36*
X01100929D02*
X01092119D01*
X010923Y00266847*
X01093324Y00264375*
X01094953Y00262253*
X01097075Y00260624*
X01099547Y002596*
X01100929Y00259418*
Y00268229*
G37*
G36*
X00087437Y00258729D02*
X00081269D01*
Y00252561*
X00081967Y00252653*
X00083801Y00253413*
X00085377Y00254621*
X00086585Y00256196*
X00087345Y00258031*
X00087437Y00258729*
G37*
G36*
X01076799Y00278395D02*
X01074497Y00278092D01*
X01072351Y00277203*
X01070508Y0027579*
X01069095Y00273947*
X01068206Y00271802*
X01067903Y00269499*
X01068206Y00267196*
X01069095Y00265051*
X01070508Y00263208*
X01072351Y00261795*
X01074497Y00260906*
X01076799Y00260604*
X01079101Y00260906*
X01081247Y00261795*
X0108309Y00263208*
X01084503Y00265051*
X01085392Y00267196*
X01085695Y00269499*
X01085392Y00271802*
X01084503Y00273947*
X0108309Y0027579*
X01081247Y00277203*
X01079101Y00278092*
X01076799Y00278395*
G37*
G36*
X00941159Y00269229D02*
X00932269D01*
Y00260339*
X00941159*
Y00269229*
G37*
G36*
X00929729D02*
X00920839D01*
Y00260339*
X00929729*
Y00269229*
G37*
G36*
X01031717Y00274479D02*
X01022019D01*
Y00264781*
X01023631Y00264993*
X01026317Y00266106*
X01028623Y00267875*
X01030392Y00270181*
X01031505Y00272867*
X01031717Y00274479*
G37*
G36*
X00317999Y00304595D02*
X00315696Y00304292D01*
X00313551Y00303403*
X00311708Y0030199*
X00310295Y00300147*
X00309406Y00298001*
X00309103Y00295699*
X00309406Y00293397*
X00310295Y00291251*
X00311708Y00289409*
X00313551Y00287995*
X00315696Y00287106*
X00317999Y00286803*
X00320302Y00287106*
X00322447Y00287995*
X0032429Y00289409*
X00325703Y00291251*
X00326592Y00293397*
X00326895Y00295699*
X00326592Y00298001*
X00325703Y00300147*
X0032429Y0030199*
X00322447Y00303403*
X00320302Y00304292*
X00317999Y00304595*
G37*
G36*
X01031999Y00332321D02*
X0102958Y00331839D01*
X01027529Y00330469*
X0102616Y00328418*
X01025677Y00325999*
X0102616Y0032358*
X01027529Y00321529*
X01029481Y00320225*
Y00315042*
X01026218Y0031178*
X01025672Y00310963*
X01025481Y00309999*
Y00293999*
X01025672Y00293035*
X01026218Y00292218*
X01037718Y00280718*
X01038535Y00280172*
X01039499Y00279981*
X01088299*
X01089263Y00280172*
X0109008Y00280718*
X01097075Y00287714*
X01097751Y00287195*
X01099897Y00286306*
X01102199Y00286004*
X01104501Y00286306*
X01106647Y00287195*
X0110849Y00288609*
X01109903Y00290451*
X01110792Y00292597*
X01111095Y00294899*
X01110792Y00297201*
X01109903Y00299347*
X0110849Y00301189*
X01106647Y00302603*
X01104501Y00303492*
X01102199Y00303795*
X01099897Y00303492*
X01097751Y00302603*
X01095909Y00301189*
X01094495Y00299347*
X01093606Y00297201*
X01093303Y00294899*
X01093606Y00292597*
X01093966Y00291727*
X01087256Y00285017*
X01079022*
X01078939Y00286285*
X01079101Y00286306*
X01081247Y00287195*
X0108309Y00288609*
X01084503Y00290451*
X01085392Y00292597*
X01085695Y00294899*
X01085392Y00297201*
X01084503Y00299347*
X0108309Y00301189*
X01081247Y00302603*
X01079101Y00303492*
X01076799Y00303795*
X01074497Y00303492*
X01072351Y00302603*
X01070508Y00301189*
X01069095Y00299347*
X01068206Y00297201*
X01067903Y00294899*
X01068206Y00292597*
X01069095Y00290451*
X01070508Y00288609*
X01072351Y00287195*
X01074497Y00286306*
X01074659Y00286285*
X01074576Y00285017*
X01040542*
X01030517Y00295042*
Y00308956*
X0103378Y00312218*
X01034326Y00313035*
X01034517Y00313999*
Y00320225*
X01036469Y00321529*
X01037839Y0032358*
X0103832Y00325999*
X01037839Y00328418*
X01036469Y00330469*
X01034418Y00331839*
X01031999Y00332321*
G37*
G36*
X00922999Y0030832D02*
X0092058Y00307839D01*
X00918529Y00306469*
X00917225Y00304517*
X00669249*
X00668285Y00304326*
X00667468Y0030378*
X00630356Y00266667*
X00615951*
X0061595Y00266681*
X00614972Y00269041*
X00613417Y00271067*
X00611391Y00272622*
X00609031Y00273599*
X00606499Y00273933*
X00603967Y00273599*
X00601607Y00272622*
X00599581Y00271067*
X00598026Y00269041*
X00597049Y00266681*
X00596715Y00264149*
X00597049Y00261617*
X00598026Y00259257*
X00599581Y00257231*
X00601607Y00255676*
X00603967Y00254699*
X00606499Y00254365*
X00609031Y00254699*
X00611391Y00255676*
X00613417Y00257231*
X00614972Y00259257*
X0061595Y00261617*
X00615951Y00261631*
X00631399*
X00632363Y00261822*
X0063318Y00262368*
X00670292Y00299481*
X00917225*
X00918529Y00297529*
X0092058Y00296159*
X00922478Y00295781*
X00922364Y00294628*
X00922353Y00294517*
X00684999*
X00684035Y00294326*
X00683218Y0029378*
X00630706Y00241267*
X00615951*
X0061595Y00241281*
X00614972Y00243641*
X00613417Y00245667*
X00611391Y00247222*
X00609031Y00248199*
X00606499Y00248533*
X00603967Y00248199*
X00601607Y00247222*
X00599581Y00245667*
X00598026Y00243641*
X00597049Y00241281*
X00596715Y00238749*
X00597049Y00236217*
X00598026Y00233857*
X00599581Y00231831*
X00601607Y00230276*
X00603967Y00229299*
X00606499Y00228965*
X00609031Y00229299*
X00611391Y00230276*
X00613417Y00231831*
X00614972Y00233857*
X0061595Y00236217*
X00615951Y00236231*
X00631749*
X00632714Y00236422*
X0063353Y00236968*
X00686042Y00289481*
X00933225*
X00934529Y00287529*
X0093658Y00286159*
X00938999Y00285678*
X00941418Y00286159*
X00943469Y00287529*
X00944839Y0028958*
X00945321Y00291999*
X00944839Y00294418*
X00943469Y00296469*
X00941418Y00297839*
X00938999Y0029832*
X0093658Y00297839*
X00934529Y00296469*
X00933225Y00294517*
X00923645*
X00923634Y00294628*
X0092352Y00295781*
X00925418Y00296159*
X00927469Y00297529*
X00928839Y0029958*
X00929321Y00301999*
X00928839Y00304419*
X00927469Y00306469*
X00925418Y00307839*
X00922999Y0030832*
G37*
G36*
X00317999Y00329995D02*
X00315696Y00329692D01*
X00313551Y00328803*
X00311708Y0032739*
X00310295Y00325547*
X00309406Y00323401*
X00309103Y00321099*
X00309406Y00318796*
X00310295Y00316651*
X00311708Y00314808*
X00313551Y00313395*
X00315696Y00312506*
X00317999Y00312203*
X00320302Y00312506*
X00322447Y00313395*
X0032429Y00314808*
X00325703Y00316651*
X00326592Y00318796*
X00326895Y00321099*
X00326592Y00323401*
X00325703Y00325547*
X0032429Y0032739*
X00322447Y00328803*
X00320302Y00329692*
X00317999Y00329995*
G37*
G36*
X01102199Y00354595D02*
X01099897Y00354292D01*
X01097751Y00353403*
X01095909Y0035199*
X01094495Y00350147*
X01093606Y00348002*
X01093303Y00345699*
X01093606Y00343396*
X01094495Y00341251*
X01095909Y00339408*
X01097751Y00337995*
X01099897Y00337106*
X01102199Y00336804*
X01104501Y00337106*
X01106647Y00337995*
X0110849Y00339408*
X01109903Y00341251*
X01110703Y00343181*
X01112256*
X01114481Y00340956*
Y00316042*
X01108956Y00310517*
X01104887*
X01104639Y00311763*
X01106647Y00312595*
X0110849Y00314008*
X01109903Y00315851*
X01110792Y00317996*
X01111095Y00320299*
X01110792Y00322602*
X01109903Y00324747*
X0110849Y00326589*
X01106647Y00328003*
X01104501Y00328892*
X01102199Y00329195*
X01099897Y00328892*
X01097751Y00328003*
X01095909Y00326589*
X01094495Y00324747*
X01093606Y00322602*
X01093303Y00320299*
X01093606Y00317996*
X01094495Y00315851*
X01095909Y00314008*
X01097751Y00312595*
X01099759Y00311763*
X01099511Y00310517*
X01079487*
X01079239Y00311763*
X01081247Y00312595*
X0108309Y00314008*
X01084503Y00315851*
X01085392Y00317996*
X01085695Y00320299*
X01085392Y00322602*
X01084503Y00324747*
X0108309Y00326589*
X01081247Y00328003*
X01079101Y00328892*
X01076799Y00329195*
X01074497Y00328892*
X01072351Y00328003*
X01070508Y00326589*
X01069095Y00324747*
X01068206Y00322602*
X01067903Y00320299*
X01068206Y00317996*
X01069095Y00315851*
X01070508Y00314008*
X01072351Y00312595*
X01074359Y00311763*
X01074111Y00310517*
X01047999*
X01047035Y00310326*
X01046218Y0030978*
X01042301Y00305862*
X01039999Y00306321*
X0103758Y00305839*
X01035529Y00304469*
X01034159Y00302418*
X01033678Y00299999*
X01034159Y0029758*
X01035529Y00295529*
X0103758Y00294159*
X01039999Y00293678*
X01042418Y00294159*
X01044469Y00295529*
X01045839Y0029758*
X0104632Y00299999*
X01045862Y00302301*
X01049042Y00305481*
X01109999*
X01110963Y00305672*
X0111178Y00306218*
X0111878Y00313218*
X01119326Y00314035*
X01119517Y00314999*
Y00341999*
X01119326Y00342963*
X0111878Y0034378*
X0111508Y0034748*
X01114263Y00348026*
X01113299Y00348217*
X01110703*
X01109903Y00350147*
X0110849Y0035199*
X01106647Y00353403*
X01104501Y00354292*
X01102199Y00354595*
G37*
G36*
X00938899Y00318721D02*
X0093648Y00318239D01*
X00934429Y00316869*
X00933125Y00314917*
X00652649*
X00651685Y00314726*
X00650868Y0031418*
X00628756Y00292067*
X00615951*
X0061595Y00292081*
X00614972Y00294441*
X00613417Y00296467*
X00611391Y00298022*
X00609031Y00298999*
X00606499Y00299333*
X00603967Y00298999*
X00601607Y00298022*
X00599581Y00296467*
X00598026Y00294441*
X00597049Y00292081*
X00596715Y00289549*
X00597049Y00287017*
X00598026Y00284657*
X00599581Y00282631*
X00601607Y00281076*
X00603967Y00280099*
X00606499Y00279765*
X00609031Y00280099*
X00611391Y00281076*
X00613417Y00282631*
X00614972Y00284657*
X0061595Y00287017*
X00615951Y00287031*
X00629799*
X00630763Y00287222*
X0063158Y00287768*
X00653692Y00309881*
X00933125*
X00934429Y00307929*
X0093648Y00306559*
X00938899Y00306078*
X00941318Y00306559*
X00943369Y00307929*
X00944739Y0030998*
X0094522Y00312399*
X00944739Y00314818*
X00943369Y00316869*
X00941318Y00318239*
X00938899Y00318721*
G37*
G36*
X00929729Y00280659D02*
X00920839D01*
Y00271769*
X00929729*
Y00280659*
G37*
G36*
X01103469Y00279579D02*
Y00270769D01*
X0111228*
X01112097Y00272151*
X01111074Y00274623*
X01109445Y00276745*
X01107323Y00278374*
X01104851Y00279397*
X01103469Y00279579*
G37*
G36*
X01100929D02*
X01099547Y00279397D01*
X01097075Y00278374*
X01094953Y00276745*
X01093324Y00274623*
X010923Y00272151*
X01092119Y00270769*
X01100929*
Y00279579*
G37*
G36*
X01022019Y00286717D02*
Y00277019D01*
X01031717*
X01031505Y00278631*
X01030392Y00281317*
X01028623Y00283623*
X01026317Y00285392*
X01023631Y00286505*
X01022019Y00286717*
G37*
G36*
X01019479D02*
X01017867Y00286505D01*
X01015181Y00285392*
X01012875Y00283623*
X01011106Y00281317*
X01009993Y00278631*
X01009781Y00277019*
X01019479*
Y00286717*
G37*
G36*
X00941159Y00280659D02*
X00932269D01*
Y00271769*
X00941159*
Y00280659*
G37*
G36*
X01075529Y00228779D02*
X01074147Y00228597D01*
X01071675Y00227574*
X01069553Y00225945*
X01067924Y00223823*
X010669Y00221351*
X01066719Y00219969*
X01075529*
Y00228779*
G37*
G36*
X01020749Y00234733D02*
X01018217Y00234399D01*
X01015857Y00233422*
X01013831Y00231867*
X01012276Y00229841*
X01011299Y00227481*
X01010965Y00224949*
X01011299Y00222417*
X01012276Y00220057*
X01013831Y00218031*
X01015857Y00216476*
X01018217Y00215499*
X01020749Y00215165*
X01023281Y00215499*
X01025641Y00216476*
X01027667Y00218031*
X01029222Y00220057*
X01030199Y00222417*
X01030533Y00224949*
X01030199Y00227481*
X01029222Y00229841*
X01027667Y00231867*
X01025641Y00233422*
X01023281Y00234399*
X01020749Y00234733*
G37*
G36*
X00997999Y0041382D02*
X0099558Y00413339D01*
X00993529Y00411969*
X00992159Y00409918*
X00991678Y00407499*
X00992159Y0040508*
X00993529Y00403029*
X00995481Y00401725*
Y00297792*
X00966218Y0026853*
X00965672Y00267713*
X00965481Y00266749*
Y00215542*
X00929456Y00179517*
X00924773*
X00923469Y00181469*
X00921418Y00182839*
X00918999Y0018332*
X0091658Y00182839*
X00914529Y00181469*
X00913159Y00179418*
X00912678Y00176999*
X00913159Y0017458*
X00914529Y00172529*
X0091658Y00171159*
X00918999Y00170678*
X00921418Y00171159*
X00923469Y00172529*
X00924773Y00174481*
X00930499*
X00931463Y00174672*
X0093228Y00175218*
X0096978Y00212718*
X00970326Y00213535*
X00970517Y00214499*
Y00265706*
X0099978Y00294968*
X01000326Y00295785*
X01000517Y00296749*
Y00401725*
X01002469Y00403029*
X01003839Y0040508*
X01004321Y00407499*
X01003839Y00409918*
X01002469Y00411969*
X01000418Y00413339*
X00997999Y0041382*
G37*
G36*
X00041269Y00227437D02*
Y00221269D01*
X00047437*
X00047345Y00221967*
X00046585Y00223802*
X00045377Y00225377*
X00043801Y00226585*
X00041967Y00227345*
X00041269Y00227437*
G37*
G36*
X00038729D02*
X00038031Y00227345D01*
X00036197Y00226585*
X00034621Y00225377*
X00033413Y00223802*
X00032653Y00221967*
X00032561Y00221269*
X00038729*
Y00227437*
G37*
G36*
X01078069Y00228779D02*
Y00219969D01*
X01086879*
X01086698Y00221351*
X01085674Y00223823*
X01084045Y00225945*
X01081923Y00227574*
X01079451Y00228597*
X01078069Y00228779*
G37*
G36*
X00038729Y00218729D02*
X00032561D01*
X00032653Y00218031*
X00033413Y00216196*
X00034621Y00214621*
X00036197Y00213413*
X00038031Y00212653*
X00038729Y00212561*
Y00218729*
G37*
G36*
X00930999Y00228595D02*
X00928697Y00228292D01*
X00926551Y00227403*
X00924708Y0022599*
X00923295Y00224147*
X00922406Y00222002*
X00922103Y00219699*
X00922406Y00217396*
X00923295Y00215251*
X00924708Y00213409*
X00926551Y00211995*
X00928697Y00211106*
X00930999Y00210803*
X00933302Y00211106*
X00935447Y00211995*
X00937289Y00213409*
X00938703Y00215251*
X00939592Y00217396*
X00939895Y00219699*
X00939592Y00222002*
X00938703Y00224147*
X00937289Y0022599*
X00935447Y00227403*
X00933302Y00228292*
X00930999Y00228595*
G37*
G36*
X01102199Y00227595D02*
X01099897Y00227292D01*
X01097751Y00226403*
X01095909Y0022499*
X01094495Y00223147*
X01093606Y00221002*
X01093303Y00218699*
X01093606Y00216396*
X01094495Y00214251*
X01095909Y00212408*
X01097751Y00210995*
X01099897Y00210106*
X01102199Y00209804*
X01104501Y00210106*
X01106647Y00210995*
X0110849Y00212408*
X01109903Y00214251*
X01110792Y00216396*
X01111095Y00218699*
X01110792Y00221002*
X01109903Y00223147*
X0110849Y0022499*
X01106647Y00226403*
X01104501Y00227292*
X01102199Y00227595*
G37*
G36*
X00087437Y00218729D02*
X00081269D01*
Y00212561*
X00081967Y00212653*
X00083801Y00213413*
X00085377Y00214621*
X00086585Y00216196*
X00087345Y00218031*
X00087437Y00218729*
G37*
G36*
X00078729D02*
X00072561D01*
X00072653Y00218031*
X00073413Y00216196*
X00074621Y00214621*
X00076197Y00213413*
X00078031Y00212653*
X00078729Y00212561*
Y00218729*
G37*
G36*
X00047437D02*
X00041269D01*
Y00212561*
X00041967Y00212653*
X00043801Y00213413*
X00045377Y00214621*
X00046585Y00216196*
X00047345Y00218031*
X00047437Y00218729*
G37*
G36*
X00078729Y00227437D02*
X00078031Y00227345D01*
X00076197Y00226585*
X00074621Y00225377*
X00073413Y00223802*
X00072653Y00221967*
X00072561Y00221269*
X00078729*
Y00227437*
G37*
G36*
X00319269Y0025498D02*
Y00246169D01*
X00328079*
X00327897Y00247551*
X00326874Y00250023*
X00325245Y00252145*
X00323123Y00253774*
X00320651Y00254798*
X00319269Y0025498*
G37*
G36*
X00316729D02*
X00315347Y00254798D01*
X00312875Y00253774*
X00310753Y00252145*
X00309124Y00250023*
X00308102Y00247551*
X00307919Y00246169*
X00316729*
Y0025498*
G37*
G36*
X01020749Y00260133D02*
X01018217Y00259799D01*
X01015857Y00258822*
X01013831Y00257267*
X01012276Y00255241*
X01011299Y00252881*
X01010965Y00250349*
X01011299Y00247817*
X01012276Y00245457*
X01013831Y00243431*
X01015857Y00241876*
X01018217Y00240899*
X01020749Y00240565*
X01023281Y00240899*
X01025641Y00241876*
X01027667Y00243431*
X01029222Y00245457*
X01030199Y00247817*
X01030533Y00250349*
X01030199Y00252881*
X01029222Y00255241*
X01027667Y00257267*
X01025641Y00258822*
X01023281Y00259799*
X01020749Y00260133*
G37*
G36*
X00078729Y00258729D02*
X00072561D01*
X00072653Y00258031*
X00073413Y00256196*
X00074621Y00254621*
X00076197Y00253413*
X00078031Y00252653*
X00078729Y00252561*
Y00258729*
G37*
G36*
X00047437D02*
X00041269D01*
Y00252561*
X00041967Y00252653*
X00043801Y00253413*
X00045377Y00254621*
X00046585Y00256196*
X00047345Y00258031*
X00047437Y00258729*
G37*
G36*
X00038729D02*
X00032561D01*
X00032653Y00258031*
X00033413Y00256196*
X00034621Y00254621*
X00036197Y00253413*
X00038031Y00252653*
X00038729Y00252561*
Y00258729*
G37*
G36*
X00328079Y00243629D02*
X00319269D01*
Y00234819*
X00320651Y00235001*
X00323123Y00236024*
X00325245Y00237653*
X00326874Y00239776*
X00327897Y00242247*
X00328079Y00243629*
G37*
G36*
X00316729D02*
X00307919D01*
X00308102Y00242247*
X00309124Y00239776*
X00310753Y00237653*
X00312875Y00236024*
X00315347Y00235001*
X00316729Y00234819*
Y00243629*
G37*
G36*
X00081269Y00227437D02*
Y00221269D01*
X00087437*
X00087345Y00221967*
X00086585Y00223802*
X00085377Y00225377*
X00083801Y00226585*
X00081967Y00227345*
X00081269Y00227437*
G37*
G36*
X00930999Y00253995D02*
X00928697Y00253692D01*
X00926551Y00252803*
X00924708Y00251389*
X00923295Y00249547*
X00922406Y00247401*
X00922103Y00245099*
X00922406Y00242797*
X00923295Y00240651*
X00924708Y00238809*
X00926551Y00237395*
X00928697Y00236506*
X00930999Y00236203*
X00933302Y00236506*
X00935447Y00237395*
X00937289Y00238809*
X00938703Y00240651*
X00939592Y00242797*
X00939895Y00245099*
X00939592Y00247401*
X00938703Y00249547*
X00937289Y00251389*
X00935447Y00252803*
X00933302Y00253692*
X00930999Y00253995*
G37*
G36*
X01102199Y00252995D02*
X01099897Y00252692D01*
X01097751Y00251803*
X01095909Y00250389*
X01094495Y00248547*
X01093606Y00246401*
X01093303Y00244099*
X01093606Y00241797*
X01094495Y00239651*
X01095909Y00237809*
X01097751Y00236395*
X01099897Y00235506*
X01102199Y00235204*
X01104501Y00235506*
X01106647Y00236395*
X0110849Y00237809*
X01109903Y00239651*
X01110792Y00241797*
X01111095Y00244099*
X01110792Y00246401*
X01109903Y00248547*
X0110849Y00250389*
X01106647Y00251803*
X01104501Y00252692*
X01102199Y00252995*
G37*
G36*
X01076799D02*
X01074497Y00252692D01*
X01072351Y00251803*
X01070508Y00250389*
X01069095Y00248547*
X01068206Y00246401*
X01067903Y00244099*
X01068206Y00241797*
X01069095Y00239651*
X01070508Y00237809*
X01072351Y00236395*
X01074497Y00235506*
X01076799Y00235204*
X01079101Y00235506*
X01081247Y00236395*
X0108309Y00237809*
X01084503Y00239651*
X01085392Y00241797*
X01085695Y00244099*
X01085392Y00246401*
X01084503Y00248547*
X0108309Y00250389*
X01081247Y00251803*
X01079101Y00252692*
X01076799Y00252995*
G37*
G36*
X00317999Y00660195D02*
X00315696Y00659892D01*
X00313551Y00659003*
X00311708Y00657589*
X00310295Y00655747*
X00309406Y00653602*
X00309103Y00651299*
X00309406Y00648996*
X00310295Y00646851*
X00311708Y00645009*
X00313551Y00643595*
X00315696Y00642706*
X00317999Y00642403*
X00320302Y00642706*
X00322447Y00643595*
X0032429Y00645009*
X00325703Y00646851*
X00326592Y00648996*
X00326895Y00651299*
X00326592Y00653602*
X00325703Y00655747*
X0032429Y00657589*
X00322447Y00659003*
X00320302Y00659892*
X00317999Y00660195*
G37*
G36*
X01261437Y00886729D02*
X01255269D01*
Y00880561*
X01255967Y00880653*
X01257802Y00881413*
X01259377Y00882621*
X01260585Y00884196*
X01261345Y00886031*
X01261437Y00886729*
G37*
G36*
X01252729D02*
X01246561D01*
X01246653Y00886031*
X01247413Y00884196*
X01248621Y00882621*
X01250197Y00881413*
X01252031Y00880653*
X01252729Y00880561*
Y00886729*
G37*
G36*
X01151269Y00886437D02*
Y00880269D01*
X01157437*
X01157345Y00880967*
X01156585Y00882802*
X01155377Y00884377*
X01153801Y00885585*
X01151967Y00886345*
X01151269Y00886437*
G37*
G36*
X01251999Y0091232D02*
X0124958Y00911839D01*
X01247529Y00910469*
X01246159Y00908418*
X01245678Y00905999*
X01246159Y0090358*
X01247529Y00901529*
X0124958Y00900159*
X01251999Y00899677*
X01254301Y00900135*
X01259746Y00894691*
X01259412Y0089431*
X01258908Y00893736*
X01257802Y00894585*
X01255967Y00895345*
X01255269Y00895437*
Y00889269*
X01261437*
X01261345Y00889967*
X01260585Y00891802*
X01259736Y00892908*
X0126031Y00893412*
X01260691Y00893746*
X01267218Y00887218*
X01268035Y00886672*
X01268999Y00886481*
X01277956*
X01294999Y00869437*
Y00848835*
X0129386Y00848273*
X01292801Y00849085*
X01290967Y00849845*
X01290269Y00849937*
Y00842499*
Y00833892*
X01290289Y00833851*
X01286956Y00830517*
X01229999*
X01229035Y00830326*
X01228218Y0082978*
X01166956Y00768517*
X01033773*
X01032469Y00770469*
X01030418Y00771839*
X01027999Y0077232*
X0102558Y00771839*
X01023529Y00770469*
X01022159Y00768418*
X01021678Y00765999*
X01022159Y0076358*
X01023529Y00761529*
X0102558Y00760159*
X01027999Y00759678*
X01030418Y00760159*
X01032469Y00761529*
X01033773Y00763481*
X01167999*
X01168963Y00763672*
X0116978Y00764218*
X01231042Y00825481*
X01287999*
X01288963Y00825672*
X0128978Y00826218*
X01299298Y00835737*
X01299845Y00836554*
X01300036Y00837517*
Y00870481*
X01299845Y00871444*
X01299298Y00872261*
X0128078Y0089078*
X01279963Y00891326*
X01278999Y00891517*
X01270042*
X01257862Y00903697*
X01258321Y00905999*
X01257839Y00908418*
X01256469Y00910469*
X01254418Y00911839*
X01251999Y0091232*
G37*
G36*
X01230499Y00902821D02*
X0122808Y00902339D01*
X01226029Y00900969*
X01224659Y00898918*
X01224178Y00896499*
X01224659Y0089408*
X01224705Y00894011*
X01224672Y00893963*
X01224481Y00892999*
Y00890645*
X0122437Y00890634*
X01223217Y0089052*
X01222839Y00892418*
X01221469Y00894469*
X01219418Y00895839*
X01216999Y0089632*
X0121458Y00895839*
X01212529Y00894469*
X01211159Y00892418*
X01210678Y00889999*
X01211135Y00887697*
X01207218Y0088378*
X01206672Y00882963*
X01206481Y00881999*
Y00865042*
X01159218Y0081778*
X01158672Y00816963*
X01158481Y00815999*
Y00784773*
X01156529Y00783469*
X01155159Y00781418*
X01154677Y00778999*
X01155159Y0077658*
X01156529Y00774529*
X0115858Y00773159*
X01160999Y00772678*
X01163418Y00773159*
X01165469Y00774529*
X01166839Y0077658*
X0116732Y00778999*
X01166839Y00781418*
X01165469Y00783469*
X01163517Y00784773*
Y00814956*
X0121078Y00862218*
X01211265Y00862945*
X01212481Y00862576*
Y00857042*
X01173218Y0081778*
X01172672Y00816963*
X01172481Y00815999*
Y00795773*
X01170529Y00794469*
X01169159Y00792418*
X01168678Y00789999*
X01169159Y0078758*
X01170529Y00785529*
X0117258Y00784159*
X01174999Y00783678*
X01177418Y00784159*
X01179469Y00785529*
X01180839Y0078758*
X0118132Y00789999*
X01180839Y00792418*
X01179469Y00794469*
X01177517Y00795773*
Y00814956*
X0121678Y00854218*
X01217326Y00855035*
X01217517Y00855999*
Y00872956*
X0122878Y00884218*
X01229326Y00885035*
X01229517Y00885999*
Y00889372*
X01230499Y00890178*
X01232918Y00890659*
X01234969Y00892029*
X01236339Y0089408*
X01236821Y00896499*
X01236339Y00898918*
X01234969Y00900969*
X01232918Y00902339*
X01230499Y00902821*
G37*
G36*
X01252729Y00895437D02*
X01252031Y00895345D01*
X01250197Y00894585*
X01248621Y00893377*
X01247413Y00891802*
X01246653Y00889967*
X01246561Y00889269*
X01252729*
Y00895437*
G37*
G36*
X00077269Y00878537D02*
Y00872369D01*
X00083437*
X00083345Y00873067*
X00082585Y00874901*
X00081377Y00876477*
X00079802Y00877685*
X00077967Y00878445*
X00077269Y00878537*
G37*
G36*
X00074729D02*
X00074031Y00878445D01*
X00072196Y00877685*
X00070621Y00876477*
X00069413Y00874901*
X00068653Y00873067*
X00068561Y00872369*
X00074729*
Y00878537*
G37*
G36*
X01157437Y00877729D02*
X01151269D01*
Y00871561*
X01151967Y00871653*
X01153801Y00872413*
X01155377Y00873621*
X01156585Y00875197*
X01157345Y00877031*
X01157437Y00877729*
G37*
G36*
X01148729Y00886437D02*
X01148031Y00886345D01*
X01146197Y00885585*
X01144621Y00884377*
X01143413Y00882802*
X01142653Y00880967*
X01142561Y00880269*
X01148729*
Y00886437*
G37*
G36*
X00230269Y00878537D02*
Y00872369D01*
X00236437*
X00236345Y00873067*
X00235585Y00874901*
X00234377Y00876477*
X00232802Y00877685*
X00230967Y00878445*
X00230269Y00878537*
G37*
G36*
X00227729D02*
X00227031Y00878445D01*
X00225197Y00877685*
X00223621Y00876477*
X00222413Y00874901*
X00221653Y00873067*
X00221561Y00872369*
X00227729*
Y00878537*
G37*
G36*
X01168729Y00901729D02*
X01162561D01*
X01162653Y00901031*
X01163413Y00899196*
X01164621Y00897621*
X01166197Y00896413*
X01168031Y00895653*
X01168729Y00895561*
Y00901729*
G37*
G36*
X01424269Y00915437D02*
Y00909269D01*
X01430437*
X01430345Y00909967*
X01429585Y00911802*
X01428377Y00913377*
X01426802Y00914585*
X01424967Y00915345*
X01424269Y00915437*
G37*
G36*
X01421729D02*
X01421031Y00915345D01*
X01419197Y00914585*
X01417621Y00913377*
X01416413Y00911802*
X01415653Y00909967*
X01415561Y00909269*
X01421729*
Y00915437*
G37*
G36*
X01433999Y0097332D02*
X0143158Y00972839D01*
X01429529Y00971469*
X01428159Y00969418*
X01427678Y00966999*
X01428159Y0096458*
X01429529Y00962529*
X0143158Y00961159*
X01433999Y00960677*
X01436418Y00961159*
X01438469Y00962529*
X01439731Y00962653*
X01447736Y00954648*
Y00920999*
X01447985Y0091975*
X01448692Y00918692*
X01457692Y00909692*
X0145875Y00908985*
X01459999Y00908736*
X0149222*
X01492406Y0090748*
X0148987Y00906711*
X01486649Y00904989*
X01483826Y00902672*
X01481509Y00899849*
X01479787Y00896628*
X01478727Y00893134*
X01478445Y0089027*
X01515553*
X01515271Y00893134*
X01514211Y00896628*
X01512489Y00899849*
X01510172Y00902672*
X01507349Y00904989*
X01504128Y00906711*
X01500633Y00907771*
X01498847Y00907947*
X01498538Y00909179*
X01499306Y00909692*
X01500267Y00910653*
X01501529Y00910529*
X0150358Y00909159*
X01505999Y00908678*
X01508418Y00909159*
X01510469Y00910529*
X01511839Y0091258*
X0151232Y00914999*
X01511839Y00917418*
X01510469Y00919469*
X01508418Y00920839*
X01505999Y0092132*
X0150358Y00920839*
X01501529Y00919469*
X01500589Y00918062*
X01499799*
X0149855Y00917813*
X01497492Y00917106*
X01495648Y00915262*
X0146135*
X01454262Y0092235*
Y00955999*
X01454013Y00957248*
X01453306Y00958306*
X01442306Y00969306*
X01441248Y00970013*
X01439999Y00970262*
X01439276*
X01438469Y00971469*
X01436418Y00972839*
X01433999Y0097332*
G37*
G36*
X01017729Y00936329D02*
X01007638D01*
X01007863Y00934615*
X01009015Y00931835*
X01010847Y00929447*
X01013235Y00927615*
X01016015Y00926463*
X01017729Y00926238*
Y00936329*
G37*
G36*
X01505999Y0093732D02*
X0150358Y00936839D01*
X01501529Y00935469*
X01500159Y00933418*
X01499678Y00930999*
X01500159Y0092858*
X01501529Y00926529*
X0150358Y00925159*
X01505999Y00924677*
X01508418Y00925159*
X01510469Y00926529*
X01511839Y0092858*
X0151232Y00930999*
X01511839Y00933418*
X01510469Y00935469*
X01508418Y00936839*
X01505999Y0093732*
G37*
G36*
X01487999Y0092932D02*
X0148558Y00928839D01*
X01483529Y00927469*
X01482159Y00925418*
X01481677Y00922999*
X01482159Y0092058*
X01483529Y00918529*
X0148558Y00917159*
X01487999Y00916677*
X01490418Y00917159*
X01492469Y00918529*
X01493839Y0092058*
X0149432Y00922999*
X01493839Y00925418*
X01492469Y00927469*
X01490418Y00928839*
X01487999Y0092932*
G37*
G36*
X01430437Y00906729D02*
X01424269D01*
Y00900561*
X01424967Y00900653*
X01426802Y00901413*
X01428377Y00902621*
X01429585Y00904196*
X01430345Y00906031*
X01430437Y00906729*
G37*
G36*
X01421729D02*
X01415561D01*
X01415653Y00906031*
X01416413Y00904196*
X01417621Y00902621*
X01419197Y00901413*
X01421031Y00900653*
X01421729Y00900561*
Y00906729*
G37*
G36*
X01177437Y00901729D02*
X01171269D01*
Y00895561*
X01171967Y00895653*
X01173801Y00896413*
X01175377Y00897621*
X01176585Y00899196*
X01177345Y00901031*
X01177437Y00901729*
G37*
G36*
X01324999Y0091832D02*
X0132258Y00917839D01*
X01320529Y00916469*
X01319893Y00915517*
X01312999*
X01312035Y00915326*
X01311218Y00914781*
X01297218Y0090078*
X01296672Y00899963*
X01296481Y00898999*
Y00898773*
X01294529Y00897469*
X01293159Y00895418*
X01292678Y00892999*
X01293159Y0089058*
X01294529Y00888529*
X0129658Y00887159*
X01298999Y00886678*
X01301418Y00887159*
X01303469Y00888529*
X01304839Y0089058*
X0130532Y00892999*
X01304839Y00895418*
X01303469Y00897469*
X0130284Y0089789*
X01302715Y00899154*
X01314042Y00910481*
X0131898*
X01319159Y0090958*
X01320529Y00907529*
X0132258Y00906159*
X01324999Y00905677*
X01327418Y00906159*
X01329469Y00907529*
X01330839Y0090958*
X0133132Y00911999*
X01330839Y00914418*
X01329469Y00916469*
X01327418Y00917839*
X01324999Y0091832*
G37*
G36*
X01171269Y00910437D02*
Y00904269D01*
X01177437*
X01177345Y00904967*
X01176585Y00906802*
X01175377Y00908377*
X01173801Y00909585*
X01171967Y00910345*
X01171269Y00910437*
G37*
G36*
X01168729D02*
X01168031Y00910345D01*
X01166197Y00909585*
X01164621Y00908377*
X01163413Y00906802*
X01162653Y00904967*
X01162561Y00904269*
X01168729*
Y00910437*
G37*
G36*
X01391729Y00856729D02*
X01385561D01*
X01385653Y00856031*
X01386413Y00854196*
X01387621Y00852621*
X01389197Y00851413*
X01391031Y00850653*
X01391729Y00850561*
Y00856729*
G37*
G36*
X01662687Y00850229D02*
X01656519D01*
Y00844061*
X01657217Y00844153*
X01659051Y00844913*
X01660627Y00846121*
X01661835Y00847697*
X01662595Y00849531*
X01662687Y00850229*
G37*
G36*
X01653979D02*
X01647811D01*
X01647903Y00849531*
X01648663Y00847697*
X01649871Y00846121*
X01651446Y00844913*
X01653281Y00844153*
X01653979Y00844061*
Y00850229*
G37*
G36*
X01627769Y00858187D02*
Y00852019D01*
X01633937*
X01633845Y00852717*
X01633085Y00854552*
X01631877Y00856127*
X01630302Y00857335*
X01628467Y00858095*
X01627769Y00858187*
G37*
G36*
X01625229D02*
X01624531Y00858095D01*
X01622696Y00857335*
X01621121Y00856127*
X01619913Y00854552*
X01619153Y00852717*
X01619061Y00852019*
X01625229*
Y00858187*
G37*
G36*
X01400437Y00856729D02*
X01394269D01*
Y00850561*
X01394968Y00850653*
X01396802Y00851413*
X01398377Y00852621*
X01399585Y00854196*
X01400345Y00856031*
X01400437Y00856729*
G37*
G36*
X01633937Y00849479D02*
X01627769D01*
Y00843311*
X01628467Y00843403*
X01630302Y00844163*
X01631877Y00845371*
X01633085Y00846946*
X01633845Y00848781*
X01633937Y00849479*
G37*
G36*
X01625229D02*
X01619061D01*
X01619153Y00848781*
X01619913Y00846946*
X01621121Y00845371*
X01622696Y00844163*
X01624531Y00843403*
X01625229Y00843311*
Y00849479*
G37*
G36*
X01590519Y00848187D02*
Y00842019D01*
X01596687*
X01596595Y00842717*
X01595835Y00844552*
X01594627Y00846127*
X01593052Y00847335*
X01591217Y00848095*
X01590519Y00848187*
G37*
G36*
X01578437Y00849979D02*
X01572269D01*
Y00843811*
X01572967Y00843903*
X01574802Y00844663*
X01576377Y00845871*
X01577585Y00847447*
X01578345Y00849281*
X01578437Y00849979*
G37*
G36*
X01569729D02*
X01563561D01*
X01563653Y00849281*
X01564413Y00847447*
X01565621Y00845871*
X01567197Y00844663*
X01569031Y00843903*
X01569729Y00843811*
Y00849979*
G37*
G36*
X01287729Y00849937D02*
X01287031Y00849845D01*
X01285196Y00849085*
X01283621Y00847877*
X01282413Y00846301*
X01281653Y00844467*
X01281561Y00843769*
X01287729*
Y00849937*
G37*
G36*
X01569729Y00858687D02*
X01569031Y00858595D01*
X01567197Y00857835*
X01565621Y00856627*
X01564413Y00855051*
X01563653Y00853217*
X01563561Y00852519*
X01569729*
Y00858687*
G37*
G36*
X00236437Y00869829D02*
X00230269D01*
Y00863661*
X00230967Y00863753*
X00232802Y00864513*
X00234377Y00865721*
X00235585Y00867297*
X00236345Y00869131*
X00236437Y00869829*
G37*
G36*
X00227729D02*
X00221561D01*
X00221653Y00869131*
X00222413Y00867297*
X00223621Y00865721*
X00225197Y00864513*
X00227031Y00863753*
X00227729Y00863661*
Y00869829*
G37*
G36*
X00083437D02*
X00077269D01*
Y00863661*
X00077967Y00863753*
X00079802Y00864513*
X00081377Y00865721*
X00082585Y00867297*
X00083345Y00869131*
X00083437Y00869829*
G37*
G36*
X01148729Y00877729D02*
X01142561D01*
X01142653Y00877031*
X01143413Y00875197*
X01144621Y00873621*
X01146197Y00872413*
X01148031Y00871653*
X01148729Y00871561*
Y00877729*
G37*
G36*
X01515553Y0088773D02*
X01498269D01*
Y00869994*
X01500633Y00870227*
X01504128Y00871287*
X01507349Y00873009*
X01510172Y00875326*
X01512489Y00878149*
X01514211Y0088137*
X01515271Y00884864*
X01515553Y0088773*
G37*
G36*
X01495729D02*
X01478445D01*
X01478727Y00884864*
X01479787Y0088137*
X01481509Y00878149*
X01483826Y00875326*
X01486649Y00873009*
X0148987Y00871287*
X01493364Y00870227*
X01495729Y00869994*
Y0088773*
G37*
G36*
X01656519Y00858937D02*
Y00852769D01*
X01662687*
X01662595Y00853467*
X01661835Y00855302*
X01660627Y00856877*
X01659051Y00858085*
X01657217Y00858845*
X01656519Y00858937*
G37*
G36*
X01653979D02*
X01653281Y00858845D01*
X01651446Y00858085*
X01649871Y00856877*
X01648663Y00855302*
X01647903Y00853467*
X01647811Y00852769*
X01653979*
Y00858937*
G37*
G36*
X01572269Y00858687D02*
Y00852519D01*
X01578437*
X01578345Y00853217*
X01577585Y00855051*
X01576377Y00856627*
X01574802Y00857835*
X01572967Y00858595*
X01572269Y00858687*
G37*
G36*
X00074729Y00869829D02*
X00068561D01*
X00068653Y00869131*
X00069413Y00867297*
X00070621Y00865721*
X00072196Y00864513*
X00074031Y00863753*
X00074729Y00863661*
Y00869829*
G37*
G36*
X01394269Y00865437D02*
Y00859269D01*
X01400437*
X01400345Y00859967*
X01399585Y00861802*
X01398377Y00863377*
X01396802Y00864585*
X01394968Y00865345*
X01394269Y00865437*
G37*
G36*
X01391729D02*
X01391031Y00865345D01*
X01389197Y00864585*
X01387621Y00863377*
X01386413Y00861802*
X01385653Y00859967*
X01385561Y00859269*
X01391729*
Y00865437*
G37*
G36*
X0103036Y00936329D02*
X01020269D01*
Y00926238*
X01021983Y00926463*
X01024763Y00927615*
X01027151Y00929447*
X01028983Y00931835*
X01030135Y00934615*
X0103036Y00936329*
G37*
G36*
X00059999Y01041095D02*
X00055135Y01040712D01*
X0005039Y01039573*
X00045882Y01037706*
X00041721Y01035156*
X00038011Y01031987*
X00034842Y01028277*
X00032292Y01024116*
X00030425Y01019608*
X00029286Y01014864*
X00028903Y01009999*
X00029286Y01005135*
X00030425Y0100039*
X00032292Y00995882*
X00034842Y00991721*
X00038011Y00988011*
X00041721Y00984842*
X00045882Y00982292*
X0005039Y00980425*
X00055135Y00979286*
X00059999Y00978903*
X00064864Y00979286*
X00069608Y00980425*
X00074116Y00982292*
X00078277Y00984842*
X00081987Y00988011*
X00085156Y00991721*
X00087706Y00995882*
X00089573Y0100039*
X00090712Y01005135*
X00091095Y01009999*
X00090712Y01014864*
X00089573Y01019608*
X00087706Y01024116*
X00085156Y01028277*
X00081987Y01031987*
X00078277Y01035156*
X00074116Y01037706*
X00069608Y01039573*
X00064864Y01040712*
X00059999Y01041095*
G37*
G36*
X01189187Y00983479D02*
X01183019D01*
Y00977311*
X01183717Y00977403*
X01185552Y00978163*
X01187127Y00979371*
X01188335Y00980946*
X01189095Y00982781*
X01189187Y00983479*
G37*
G36*
X01180479D02*
X01174311D01*
X01174403Y00982781*
X01175163Y00980946*
X01176371Y00979371*
X01177946Y00978163*
X01179781Y00977403*
X01180479Y00977311*
Y00983479*
G37*
G36*
X01359599Y01030176D02*
X01356965Y01029829D01*
X0135451Y01028813*
X01352403Y01027195*
X01350785Y01025088*
X01349769Y01022633*
X01349422Y01019999*
X01349769Y01017365*
X01350785Y0101491*
X01352403Y01012803*
X0135451Y01011185*
X01356965Y01010169*
X01357081Y01010153*
Y00994642*
X01349956Y00987517*
X01281999*
X01281035Y00987326*
X01280218Y0098678*
X01275301Y00981862*
X01272999Y0098232*
X0127058Y00981839*
X01268529Y00980469*
X01267159Y00978418*
X01266678Y00975999*
X01267159Y0097358*
X01268529Y00971529*
X0127058Y00970159*
X01272999Y00969678*
X01275418Y00970159*
X01277469Y00971529*
X01278839Y0097358*
X01279321Y00975999*
X01278863Y00978301*
X01283042Y00982481*
X01350999*
X01351963Y00982672*
X0135278Y00983218*
X0136138Y00991818*
X01361926Y00992635*
X01362117Y00993599*
Y01010153*
X01362233Y01010169*
X01364688Y01011185*
X01366795Y01012803*
X01368413Y0101491*
X01369429Y01017365*
X01369776Y01019999*
X01369429Y01022633*
X01368413Y01025088*
X01366795Y01027195*
X01364688Y01028813*
X01362233Y01029829*
X01359599Y01030176*
G37*
G36*
X00914999Y01009817D02*
X00911423Y01009346D01*
X0090809Y01007966*
X00905228Y0100577*
X00903032Y01002908*
X00901652Y00999575*
X00901181Y00995999*
X00901652Y00992423*
X00903032Y0098909*
X00905228Y00986228*
X0090809Y00984032*
X00911423Y00982652*
X00914999Y00982181*
X00918575Y00982652*
X00921908Y00984032*
X0092477Y00986228*
X00926966Y0098909*
X00928346Y00992423*
X00928486Y00993481*
X00935956*
X00944218Y00985218*
X00945035Y00984672*
X00945999Y00984481*
X0113687*
X01137404Y00983191*
X01138614Y00981614*
X01140191Y00980404*
X01142028Y00979643*
X01143999Y00979384*
X0114597Y00979643*
X01147807Y00980404*
X01149384Y00981614*
X01150594Y00983191*
X01151355Y00985028*
X01151614Y00986999*
X01151355Y0098897*
X01150594Y00990807*
X01149384Y00992384*
X01147807Y00993594*
X0114597Y00994355*
X01143999Y00994614*
X01142028Y00994355*
X01140191Y00993594*
X01138614Y00992384*
X01137404Y00990807*
X0113687Y00989517*
X00947042*
X0093878Y0099778*
X00937963Y00998326*
X00936999Y00998517*
X00928486*
X00928346Y00999575*
X00926966Y01002908*
X0092477Y0100577*
X00921908Y01007966*
X00918575Y01009346*
X00914999Y01009817*
G37*
G36*
X01659999Y01041095D02*
X01655135Y01040712D01*
X0165039Y01039573*
X01645882Y01037706*
X01641721Y01035156*
X01638011Y01031987*
X01634842Y01028277*
X01632292Y01024116*
X01630426Y01019608*
X01629286Y01014864*
X01628903Y01009999*
X01629286Y01005135*
X01630426Y0100039*
X01632292Y00995882*
X01634842Y00991721*
X01638011Y00988011*
X01641721Y00984842*
X01645882Y00982292*
X0165039Y00980425*
X01655135Y00979286*
X01659999Y00978903*
X01664864Y00979286*
X01669608Y00980425*
X01674116Y00982292*
X01678277Y00984842*
X01681988Y00988011*
X01685156Y00991721*
X01687706Y00995882*
X01689573Y0100039*
X01690712Y01005135*
X01691095Y01009999*
X01690712Y01014864*
X01689573Y01019608*
X01687706Y01024116*
X01685156Y01028277*
X01681988Y01031987*
X01678277Y01035156*
X01674116Y01037706*
X01669608Y01039573*
X01664864Y01040712*
X01659999Y01041095*
G37*
G36*
X01495729Y00992004D02*
X01493364Y00991771D01*
X0148987Y00990711*
X01486649Y00988989*
X01483826Y00986672*
X01481509Y00983849*
X01479787Y00980628*
X01478727Y00977133*
X01478445Y00974269*
X01495729*
Y00992004*
G37*
G36*
X00785269Y00980987D02*
Y00967269D01*
X00798987*
X00798821Y00968947*
X00797961Y00971782*
X00796565Y00974395*
X00794685Y00976685*
X00792395Y00978565*
X00789782Y00979961*
X00786947Y00980821*
X00785269Y00980987*
G37*
G36*
X00782729D02*
X00781051Y00980821D01*
X00778216Y00979961*
X00775603Y00978565*
X00773313Y00976685*
X00771433Y00974395*
X00770037Y00971782*
X00769177Y00968947*
X00769011Y00967269*
X00782729*
Y00980987*
G37*
G36*
X00863999Y01017302D02*
X00859843Y01016892D01*
X00855847Y0101568*
X00852164Y01013711*
X00848936Y01011062*
X00846287Y01007834*
X00844318Y01004151*
X00843106Y01000155*
X00842697Y00995999*
X00843106Y00991843*
X00844318Y00987847*
X00846287Y00984164*
X00848936Y00980936*
X00852164Y00978287*
X00855847Y00976318*
X00859843Y00975106*
X00863999Y00974696*
X00868155Y00975106*
X00872151Y00976318*
X00875834Y00978287*
X00879062Y00980936*
X00881711Y00984164*
X0088368Y00987847*
X00884892Y00991843*
X00885302Y00995999*
X00884892Y01000155*
X0088368Y01004151*
X00881711Y01007834*
X00879062Y01011062*
X00875834Y01013711*
X00872151Y0101568*
X00868155Y01016892*
X00863999Y01017302*
G37*
G36*
X00703999D02*
X00699843Y01016892D01*
X00695847Y0101568*
X00692164Y01013711*
X00688936Y01011062*
X00686287Y01007834*
X00684318Y01004151*
X00683106Y01000155*
X00682697Y00995999*
X00683106Y00991843*
X00684318Y00987847*
X00686287Y00984164*
X00688936Y00980936*
X00692164Y00978287*
X00695847Y00976318*
X00699843Y00975106*
X00703999Y00974696*
X00708155Y00975106*
X00712151Y00976318*
X00715834Y00978287*
X00719062Y00980936*
X00721711Y00984164*
X0072368Y00987847*
X00724892Y00991843*
X00725302Y00995999*
X00724892Y01000155*
X0072368Y01004151*
X00721711Y01007834*
X00719062Y01011062*
X00715834Y01013711*
X00712151Y0101568*
X00708155Y01016892*
X00703999Y01017302*
G37*
G36*
X01498269Y00992004D02*
Y00974269D01*
X01515553*
X01515271Y00977133*
X01514211Y00980628*
X01512489Y00983849*
X01510172Y00986672*
X01507349Y00988989*
X01504128Y00990711*
X01500633Y00991771*
X01498269Y00992004*
G37*
G36*
X01180479Y00992187D02*
X01179781Y00992095D01*
X01177946Y00991335*
X01176371Y00990127*
X01175163Y00988551*
X01174403Y00986717*
X01174311Y00986019*
X01180479*
Y00992187*
G37*
G36*
X01034729Y01020437D02*
X01034031Y01020345D01*
X01032196Y01019585*
X01030621Y01018377*
X01029413Y01016802*
X01028653Y01014967*
X01028561Y01014269*
X01034729*
Y01020437*
G37*
G36*
X01395089Y01030089D02*
X01374909D01*
Y01009909*
X01395089*
Y01030089*
G37*
G36*
X01308799Y01030176D02*
X01306165Y01029829D01*
X0130371Y01028812*
X01301603Y01027195*
X01299985Y01025087*
X01298969Y01022633*
X01298622Y01019999*
X01298969Y01017365*
X01299985Y0101491*
X01301603Y01012803*
X0130371Y01011185*
X01306165Y01010169*
X01308799Y01009822*
X01311433Y01010169*
X01313888Y01011185*
X01315995Y01012803*
X01317613Y0101491*
X01318629Y01017365*
X01318976Y01019999*
X01318629Y01022633*
X01317613Y01025087*
X01315995Y01027195*
X01313888Y01028812*
X01311433Y01029829*
X01308799Y01030176*
G37*
G36*
X01335469Y0103136D02*
Y01021269D01*
X0134556*
X01345335Y01022983*
X01344183Y01025763*
X01342351Y01028151*
X01339963Y01029983*
X01337183Y01031135*
X01335469Y0103136*
G37*
G36*
X01332929D02*
X01331215Y01031135D01*
X01328435Y01029983*
X01326047Y01028151*
X01324215Y01025763*
X01323063Y01022983*
X01322837Y01021269*
X01332929*
Y0103136*
G37*
G36*
X01037269Y01020437D02*
Y01014269D01*
X01043437*
X01043345Y01014967*
X01042585Y01016802*
X01041377Y01018377*
X01039801Y01019585*
X01037967Y01020345*
X01037269Y01020437*
G37*
G36*
X01043437Y01011729D02*
X01037269D01*
Y01005561*
X01037967Y01005653*
X01039801Y01006413*
X01041377Y01007621*
X01042585Y01009196*
X01043345Y01011031*
X01043437Y01011729*
G37*
G36*
X01034729D02*
X01028561D01*
X01028653Y01011031*
X01029413Y01009196*
X01030621Y01007621*
X01032196Y01006413*
X01034031Y01005653*
X01034729Y01005561*
Y01011729*
G37*
G36*
X01183019Y00992187D02*
Y00986019D01*
X01189187*
X01189095Y00986717*
X01188335Y00988551*
X01187127Y00990127*
X01185552Y00991335*
X01183717Y00992095*
X01183019Y00992187*
G37*
G36*
X01257999Y01030176D02*
X01255365Y01029829D01*
X0125291Y01028812*
X01250803Y01027195*
X01249185Y01025087*
X01248169Y01022633*
X01247822Y01019999*
X01248169Y01017365*
X01249185Y0101491*
X01250803Y01012802*
X0125291Y01011185*
X01255365Y01010169*
X01257999Y01009822*
X01260633Y01010169*
X01263087Y01011185*
X01265195Y01012802*
X01266813Y0101491*
X01267829Y01017365*
X01268176Y01019999*
X01267829Y01022633*
X01266813Y01025087*
X01265195Y01027195*
X01263087Y01028812*
X01260633Y01029829*
X01257999Y01030176*
G37*
G36*
X0134556Y01018729D02*
X01335469D01*
Y01008638*
X01337183Y01008863*
X01339963Y01010015*
X01342351Y01011847*
X01344183Y01014235*
X01345335Y01017016*
X0134556Y01018729*
G37*
G36*
X01332929D02*
X01322837D01*
X01323063Y01017016*
X01324215Y01014235*
X01326047Y01011847*
X01328435Y01010015*
X01331215Y01008863*
X01332929Y01008638*
Y01018729*
G37*
G36*
X01135759Y00944699D02*
X01129591D01*
X01129683Y00944001*
X01130443Y00942167*
X01131651Y00940591*
X01133226Y00939383*
X01135061Y00938623*
X01135759Y00938531*
Y00944699*
G37*
G36*
X00079019Y00944437D02*
Y00938269D01*
X00085187*
X00085095Y00938967*
X00084335Y00940802*
X00083127Y00942377*
X00081551Y00943585*
X00079717Y00944345*
X00079019Y00944437*
G37*
G36*
X00076479D02*
X00075781Y00944345D01*
X00073947Y00943585*
X00072371Y00942377*
X00071163Y00940802*
X00070403Y00938967*
X00070311Y00938269*
X00076479*
Y00944437*
G37*
G36*
X01020269Y0094896D02*
Y00938869D01*
X0103036*
X01030135Y00940583*
X01028983Y00943363*
X01027151Y00945751*
X01024763Y00947583*
X01021983Y00948735*
X01020269Y0094896*
G37*
G36*
X01017729D02*
X01016015Y00948735D01*
X01013235Y00947583*
X01010847Y00945751*
X01009015Y00943363*
X01007863Y00940583*
X01007638Y00938869*
X01017729*
Y0094896*
G37*
G36*
X01144467Y00944699D02*
X01138299D01*
Y00938531*
X01138997Y00938623*
X01140832Y00939383*
X01142407Y00940591*
X01143615Y00942167*
X01144375Y00944001*
X01144467Y00944699*
G37*
G36*
X01260729Y00936729D02*
X01254561D01*
X01254653Y00936031*
X01255413Y00934196*
X01256621Y00932621*
X01258196Y00931413*
X01260031Y00930653*
X01260729Y00930561*
Y00936729*
G37*
G36*
X00085187Y00935729D02*
X00079019D01*
Y00929561*
X00079717Y00929653*
X00081551Y00930413*
X00083127Y00931621*
X00084335Y00933196*
X00085095Y00935031*
X00085187Y00935729*
G37*
G36*
X00076479D02*
X00070311D01*
X00070403Y00935031*
X00071163Y00933196*
X00072371Y00931621*
X00073947Y00930413*
X00075781Y00929653*
X00076479Y00929561*
Y00935729*
G37*
G36*
X01217479Y00939979D02*
X01211311D01*
X01211403Y00939281*
X01212163Y00937447*
X01213371Y00935871*
X01214947Y00934663*
X01216781Y00933903*
X01217479Y00933811*
Y00939979*
G37*
G36*
X01487999Y00945321D02*
X0148558Y00944839D01*
X01483529Y00943469*
X01482159Y00941418*
X01481677Y00938999*
X01482159Y0093658*
X01483529Y00934529*
X0148558Y00933159*
X01487999Y00932678*
X01490418Y00933159*
X01492469Y00934529*
X01493839Y0093658*
X0149432Y00938999*
X01493839Y00941418*
X01492469Y00943469*
X01490418Y00944839*
X01487999Y00945321*
G37*
G36*
X01269437Y00936729D02*
X01263269D01*
Y00930561*
X01263967Y00930653*
X01265802Y00931413*
X01267377Y00932621*
X01268585Y00934196*
X01269345Y00936031*
X01269437Y00936729*
G37*
G36*
X01260729Y00945437D02*
X01260031Y00945345D01*
X01258196Y00944585*
X01256621Y00943377*
X01255413Y00941802*
X01254653Y00939967*
X01254561Y00939269*
X01260729*
Y00945437*
G37*
G36*
X00798987Y00964729D02*
X00785269D01*
Y00951011*
X00786947Y00951177*
X00789782Y00952037*
X00792395Y00953433*
X00794685Y00955313*
X00796565Y00957603*
X00797961Y00960216*
X00798821Y00963051*
X00798987Y00964729*
G37*
G36*
X00782729D02*
X00769011D01*
X00769177Y00963051*
X00770037Y00960216*
X00771433Y00957603*
X00773313Y00955313*
X00775603Y00953433*
X00778216Y00952037*
X00781051Y00951177*
X00782729Y00951011*
Y00964729*
G37*
G36*
X01515553Y00971729D02*
X01498269D01*
Y00953994*
X01500633Y00954227*
X01501208Y00954401*
X01501788Y00953272*
X01500621Y00952377*
X01499413Y00950802*
X01498653Y00948967*
X01498561Y00948269*
X01513437*
X01513345Y00948967*
X01512585Y00950802*
X01511377Y00952377*
X01509802Y00953585*
X01507967Y00954345*
X01505999Y00954604*
X01505337Y00954517*
X0150495Y00955726*
X01507349Y00957009*
X01510172Y00959326*
X01512489Y00962149*
X01514211Y0096537*
X01515271Y00968865*
X01515553Y00971729*
G37*
G36*
X01029089Y00973089D02*
X01008909D01*
Y00952909*
X01029089*
Y00960481*
X0114087*
X01141404Y00959191*
X01142614Y00957614*
X01144191Y00956404*
X01146028Y00955643*
X01147999Y00955384*
X0114997Y00955643*
X01151807Y00956404*
X01153384Y00957614*
X01154594Y00959191*
X01155355Y00961028*
X01155614Y00962999*
X01155355Y0096497*
X01154594Y00966807*
X01153384Y00968384*
X01151807Y00969594*
X0114997Y00970355*
X01147999Y00970614*
X01146028Y00970355*
X01144191Y00969594*
X01142614Y00968384*
X01141404Y00966807*
X0114087Y00965517*
X01029089*
Y00973089*
G37*
G36*
X01283399Y01030176D02*
X01280765Y01029829D01*
X0127831Y01028812*
X01276203Y01027195*
X01274585Y01025087*
X01273569Y01022633*
X01273222Y01019999*
X01273569Y01017365*
X01274585Y0101491*
X01276203Y01012802*
X0127831Y01011185*
X01280765Y01010169*
X01280881Y01010153*
Y00996442*
X01276956Y00992517*
X01268999*
X01268035Y00992326*
X01267218Y0099178*
X01230691Y00955252*
X01229517Y00955738*
Y00968225*
X01231469Y00969529*
X01232839Y0097158*
X01233321Y00973999*
X01232839Y00976418*
X01231469Y00978469*
X01229418Y00979839*
X01226999Y0098032*
X0122458Y00979839*
X01222529Y00978469*
X01221159Y00976418*
X01220678Y00973999*
X01221159Y0097158*
X01222529Y00969529*
X01224481Y00968225*
Y00947791*
X01223342Y00947229*
X01222551Y00947835*
X01220717Y00948595*
X01220019Y00948687*
Y00941249*
Y00933811*
X01220717Y00933903*
X01222551Y00934663*
X01223342Y00935269*
X01224481Y00934707*
Y00929112*
X01220886Y00925517*
X01208999*
X01208035Y00925326*
X01207218Y0092478*
X01201218Y0091878*
X01200672Y00917963*
X01200481Y00916999*
Y00914042*
X01172218Y0088578*
X01171672Y00884963*
X01171481Y00883999*
Y00849773*
X01169529Y00848469*
X01168159Y00846418*
X01167678Y00843999*
X01168159Y0084158*
X01169529Y00839529*
X0117158Y00838159*
X01173999Y00837678*
X01176418Y00838159*
X01178469Y00839529*
X01179839Y0084158*
X0118032Y00843999*
X01179839Y00846418*
X01178469Y00848469*
X01176517Y00849773*
Y00882956*
X0120478Y00911218*
X01205326Y00912035*
X01205517Y00912999*
Y00915956*
X01210042Y00920481*
X01213353*
X01213364Y0092037*
X01213478Y00919217*
X0121158Y00918839*
X01209529Y00917469*
X01208159Y00915418*
X01207678Y00912999*
X01208136Y00910697*
X01187218Y0088978*
X01186672Y00888963*
X01186481Y00887999*
Y00864773*
X01184529Y00863469*
X01183159Y00861418*
X01182678Y00858999*
X01183159Y0085658*
X01184529Y00854529*
X0118658Y00853159*
X01188999Y00852678*
X01191418Y00853159*
X01193469Y00854529*
X01194839Y0085658*
X01195321Y00858999*
X01194839Y00861418*
X01193469Y00863469*
X01191517Y00864773*
Y00886956*
X01211697Y00907136*
X01213999Y00906678*
X01216418Y00907159*
X01218469Y00908529*
X01219773Y00910481*
X01222999*
X01223963Y00910672*
X0122478Y00911218*
X0123378Y00920218*
X01234326Y00921035*
X01234517Y00921999*
Y00951956*
X01270042Y00987481*
X01277999*
X01278963Y00987672*
X0127978Y00988218*
X0128518Y00993618*
X01285726Y00994435*
X01285917Y00995399*
Y01010153*
X01286033Y01010169*
X01288487Y01011185*
X01290595Y01012802*
X01292212Y0101491*
X01293229Y01017365*
X01293576Y01019999*
X01293229Y01022633*
X01292212Y01025087*
X01290595Y01027195*
X01288487Y01028812*
X01286033Y01029829*
X01283399Y01030176*
G37*
G36*
X01495729Y00971729D02*
X01478445D01*
X01478727Y00968865*
X01479787Y0096537*
X01481509Y00962149*
X01483826Y00959326*
X01486649Y00957009*
X0148987Y00955287*
X01493364Y00954227*
X01495729Y00953994*
Y00971729*
G37*
G36*
X01513437Y00945729D02*
X01507269D01*
Y00939561*
X01507967Y00939653*
X01509802Y00940413*
X01511377Y00941621*
X01512585Y00943196*
X01513345Y00945031*
X01513437Y00945729*
G37*
G36*
X01504729D02*
X01498561D01*
X01498653Y00945031*
X01499413Y00943196*
X01500621Y00941621*
X01502197Y00940413*
X01504031Y00939653*
X01504729Y00939561*
Y00945729*
G37*
G36*
X01263269Y00945437D02*
Y00939269D01*
X01269437*
X01269345Y00939967*
X01268585Y00941802*
X01267377Y00943377*
X01265802Y00944585*
X01263967Y00945345*
X01263269Y00945437*
G37*
G36*
X01138299Y00953407D02*
Y00947239D01*
X01144467*
X01144375Y00947937*
X01143615Y00949771*
X01142407Y00951347*
X01140832Y00952555*
X01138997Y00953315*
X01138299Y00953407*
G37*
G36*
X01135759D02*
X01135061Y00953315D01*
X01133226Y00952555*
X01131651Y00951347*
X01130443Y00949771*
X01129683Y00947937*
X01129591Y00947239*
X01135759*
Y00953407*
G37*
G36*
X01217479Y00948687D02*
X01216781Y00948595D01*
X01214947Y00947835*
X01213371Y00946627*
X01212163Y00945051*
X01211403Y00943217*
X01211311Y00942519*
X01217479*
Y00948687*
G37*
G36*
X01587979Y00848187D02*
X01587281Y00848095D01*
X01585447Y00847335*
X01583871Y00846127*
X01582663Y00844552*
X01581903Y00842717*
X01581811Y00842019*
X01587979*
Y00848187*
G37*
G36*
X01411269Y00729187D02*
Y00723019D01*
X01417437*
X01417345Y00723717*
X01416585Y00725552*
X01415377Y00727127*
X01413801Y00728335*
X01411967Y00729095*
X01411269Y00729187*
G37*
G36*
X01408729D02*
X01408031Y00729095D01*
X01406197Y00728335*
X01404621Y00727127*
X01403413Y00725552*
X01402653Y00723717*
X01402561Y00723019*
X01408729*
Y00729187*
G37*
G36*
X00328159Y00726229D02*
X00319269D01*
Y00717339*
X00328159*
Y00726229*
G37*
G36*
X01337499Y00753683D02*
X01334967Y00753349D01*
X01332607Y00752372*
X01330581Y00750817*
X01329026Y00748792*
X01328049Y00746431*
X01327715Y00743899*
X01328049Y00741367*
X01329026Y00739007*
X01330581Y00736981*
X01332607Y00735426*
X01334967Y00734449*
X01337499Y00734115*
X01340031Y00734449*
X01342391Y00735426*
X01344417Y00736981*
X01345972Y00739007*
X01346949Y00741367*
X01347283Y00743899*
X01346949Y00746431*
X01345972Y00748792*
X01344417Y00750817*
X01342391Y00752372*
X01340031Y00753349*
X01337499Y00753683*
G37*
G36*
X00328159Y00737659D02*
X00319269D01*
Y00728769*
X00328159*
Y00737659*
G37*
G36*
X00316729D02*
X00307839D01*
Y00728769*
X00316729*
Y00737659*
G37*
G36*
X00228999Y0082692D02*
X0022658Y00826439D01*
X00224529Y00825069*
X00223159Y00823018*
X00222678Y00820599*
X00223159Y0081818*
X00223697Y00817374*
Y00706017*
X00164273*
X00162969Y00707969*
X00160918Y00709339*
X00158499Y0070982*
X0015608Y00709339*
X00154029Y00707969*
X00152659Y00705918*
X00152177Y00703499*
X00152659Y0070108*
X00154029Y00699029*
X0015608Y00697659*
X00158499Y00697177*
X00160918Y00697659*
X00162969Y00699029*
X00164273Y00700981*
X00223697*
Y00668695*
X0021625Y00661248*
X00215101Y00659528*
X00214697Y00657499*
Y00629499*
X00215101Y0062747*
X0021625Y0062575*
X002278Y006142*
X0022952Y00613051*
X00231549Y00612648*
X00237591*
X00238831Y00611031*
X00240857Y00609476*
X00243217Y00608499*
X00245749Y00608165*
X00248281Y00608499*
X00250641Y00609476*
X00252667Y00611031*
X00254222Y00613057*
X00255199Y00615417*
X00255533Y00617949*
X00255199Y00620481*
X00254222Y00622841*
X00252667Y00624867*
X00250641Y00626422*
X00248281Y00627399*
X00245749Y00627733*
X00243217Y00627399*
X00240857Y00626422*
X00238831Y00624867*
X00237591Y00623251*
X00233745*
X00225301Y00631695*
Y00655303*
X00232748Y0066275*
X00233897Y0066447*
X00234301Y00666499*
Y00817374*
X00234839Y0081818*
X0023532Y00820599*
X00234839Y00823018*
X00233469Y00825069*
X00231418Y00826439*
X00228999Y0082692*
G37*
G36*
X01281019Y00711717D02*
Y00702019D01*
X01290717*
X01290505Y00703631*
X01289392Y00706317*
X01287623Y00708623*
X01285317Y00710392*
X01282631Y00711505*
X01281019Y00711717*
G37*
G36*
X01278479D02*
X01276867Y00711505D01*
X01274181Y00710392*
X01271875Y00708623*
X01270106Y00706317*
X01268993Y00703631*
X01268781Y00702019*
X01278479*
Y00711717*
G37*
G36*
X00316729Y00726229D02*
X00307839D01*
Y00717339*
X00316729*
Y00726229*
G37*
G36*
X01417437Y00720479D02*
X01411269D01*
Y00714311*
X01411967Y00714403*
X01413801Y00715163*
X01415377Y00716371*
X01416585Y00717946*
X01417345Y00719781*
X01417437Y00720479*
G37*
G36*
X01408729D02*
X01402561D01*
X01402653Y00719781*
X01403413Y00717946*
X01404621Y00716371*
X01406197Y00715163*
X01408031Y00714403*
X01408729Y00714311*
Y00720479*
G37*
G36*
X00208979Y00752229D02*
X00202811D01*
X00202903Y00751531*
X00203663Y00749696*
X00204871Y00748121*
X00206447Y00746913*
X00208281Y00746153*
X00208979Y00746061*
Y00752229*
G37*
G36*
X01569269Y00769187D02*
Y00763019D01*
X01575437*
X01575345Y00763717*
X01574585Y00765552*
X01573377Y00767127*
X01571802Y00768335*
X01569967Y00769095*
X01569269Y00769187*
G37*
G36*
X01566729D02*
X01566031Y00769095D01*
X01564197Y00768335*
X01562621Y00767127*
X01561413Y00765552*
X01560653Y00763717*
X01560561Y00763019*
X01566729*
Y00769187*
G37*
G36*
X01337499Y00779083D02*
X01334967Y00778749D01*
X01332607Y00777772*
X01330581Y00776217*
X01329026Y00774192*
X01328049Y00771831*
X01327715Y00769299*
X01328049Y00766767*
X01329026Y00764407*
X01330581Y00762381*
X01332607Y00760826*
X01334967Y00759849*
X01337499Y00759515*
X01340031Y00759849*
X01342391Y00760826*
X01344417Y00762381*
X01345972Y00764407*
X01346949Y00766767*
X01347283Y00769299*
X01346949Y00771831*
X01345972Y00774192*
X01344417Y00776217*
X01342391Y00777772*
X01340031Y00778749*
X01337499Y00779083*
G37*
G36*
X01336229Y00793429D02*
X01326531D01*
X01326743Y00791817*
X01327856Y00789131*
X01329625Y00786825*
X01331931Y00785056*
X01334617Y00783943*
X01336229Y00783731*
Y00793429*
G37*
G36*
X01579749Y00784321D02*
X0157733Y00783839D01*
X01575279Y00782469*
X01573975Y00780517*
X01403249*
X01402285Y00780326*
X01401468Y0077978*
X01346265Y00724577*
X01344998Y0072466*
X01344417Y00725417*
X01342391Y00726972*
X01340031Y00727949*
X01337499Y00728283*
X01334967Y00727949*
X01332607Y00726972*
X01330581Y00725417*
X01329026Y00723392*
X01328049Y00721031*
X01327715Y00718499*
X01328049Y00715967*
X01329026Y00713607*
X01330581Y00711581*
X01332607Y00710026*
X01334967Y00709049*
X01337499Y00708715*
X01340031Y00709049*
X01342391Y00710026*
X01344417Y00711581*
X01345972Y00713607*
X01346949Y00715967*
X01347278Y00718467*
X01404292Y00775481*
X01573975*
X01575279Y00773529*
X0157733Y0077216*
X01579749Y00771678*
X01582168Y0077216*
X01584219Y00773529*
X01585589Y0077558*
X0158607Y00777999*
X01585589Y00780418*
X01584219Y00782469*
X01582168Y00783839*
X01579749Y00784321*
G37*
G36*
X00817499Y0077232D02*
X0081508Y00771839D01*
X00813029Y00770469*
X00811725Y00768517*
X00412273*
X00410969Y00770469*
X00408918Y00771839*
X00406499Y0077232*
X0040408Y00771839*
X00402029Y00770469*
X00400659Y00768418*
X00400177Y00765999*
X00400659Y0076358*
X00402029Y00761529*
X0040408Y00760159*
X00406499Y00759678*
X00408918Y00760159*
X00410969Y00761529*
X00412273Y00763481*
X00811725*
X00813029Y00761529*
X0081508Y00760159*
X00817499Y00759678*
X00819918Y00760159*
X00821969Y00761529*
X00823339Y0076358*
X0082382Y00765999*
X00823339Y00768418*
X00821969Y00770469*
X00819918Y00771839*
X00817499Y0077232*
G37*
G36*
X01566729Y00760479D02*
X01560561D01*
X01560653Y00759781*
X01561413Y00757946*
X01562621Y00756371*
X01564197Y00755163*
X01566031Y00754403*
X01566729Y00754311*
Y00760479*
G37*
G36*
X01274999Y00758614D02*
X01273028Y00758355D01*
X01271191Y00757594*
X01269614Y00756384*
X01268768Y00755281*
X01039749*
X0103811Y00754955*
X01036721Y00754027*
X01030475Y00747781*
X0101473*
X01013884Y00748884*
X01012307Y00750094*
X0101047Y00750855*
X01008499Y00751114*
X01006528Y00750855*
X01004691Y00750094*
X01003114Y00748884*
X01001904Y00747307*
X01001143Y0074547*
X01000884Y00743499*
X01001143Y00741528*
X01001904Y00739691*
X01003114Y00738114*
X01004691Y00736904*
X01006528Y00736143*
X01008499Y00735884*
X0101047Y00736143*
X01012307Y00736904*
X01013884Y00738114*
X0101473Y00739217*
X01032249*
X01033888Y00739543*
X01035277Y00740471*
X01041523Y00746717*
X01268768*
X01269614Y00745614*
X01271191Y00744404*
X01273028Y00743643*
X01274999Y00743384*
X0127697Y00743643*
X01278807Y00744404*
X01280384Y00745614*
X01281594Y00747191*
X01282355Y00749028*
X01282614Y00750999*
X01282355Y0075297*
X01281594Y00754807*
X01280384Y00756384*
X01278807Y00757594*
X0127697Y00758355*
X01274999Y00758614*
G37*
G36*
X00217687Y00752229D02*
X00211519D01*
Y00746061*
X00212217Y00746153*
X00214052Y00746913*
X00215627Y00748121*
X00216835Y00749696*
X00217595Y00751531*
X00217687Y00752229*
G37*
G36*
X00211519Y00760937D02*
Y00754769D01*
X00217687*
X00217595Y00755467*
X00216835Y00757301*
X00215627Y00758877*
X00214052Y00760085*
X00212217Y00760845*
X00211519Y00760937*
G37*
G36*
X00208979D02*
X00208281Y00760845D01*
X00206447Y00760085*
X00204871Y00758877*
X00203663Y00757301*
X00202903Y00755467*
X00202811Y00754769*
X00208979*
Y00760937*
G37*
G36*
X01575437Y00760479D02*
X01569269D01*
Y00754311*
X01569967Y00754403*
X01571802Y00755163*
X01573377Y00756371*
X01574585Y00757946*
X01575345Y00759781*
X01575437Y00760479*
G37*
G36*
X00932269Y00687179D02*
Y00678369D01*
X00941079*
X00940898Y00679751*
X00939874Y00682223*
X00938245Y00684345*
X00936123Y00685974*
X00933651Y00686998*
X00932269Y00687179*
G37*
G36*
X00929729D02*
X00928347Y00686998D01*
X00925875Y00685974*
X00923753Y00684345*
X00922124Y00682223*
X00921101Y00679751*
X00920918Y00678369*
X00929729*
Y00687179*
G37*
G36*
X01585749Y00756571D02*
X0158333Y00756089D01*
X01581279Y00754719*
X01579909Y00752668*
X01579428Y00750249*
X01579909Y0074783*
X01581279Y00745779*
X01583231Y00744475*
Y00685523*
X01581279Y00684219*
X01579909Y00682168*
X01579428Y00679749*
X01579909Y0067733*
X01581279Y00675279*
X0158333Y00673909*
X01585749Y00673428*
X01588168Y00673909*
X01590219Y00675279*
X01591589Y0067733*
X01592072Y00679749*
X01591589Y00682168*
X01590219Y00684219*
X01588267Y00685523*
Y00744475*
X01590219Y00745779*
X01591589Y0074783*
X01592072Y00750249*
X01591589Y00752668*
X01590219Y00754719*
X01588168Y00756089*
X01585749Y00756571*
G37*
G36*
X01405479Y00687937D02*
X01404781Y00687845D01*
X01402947Y00687085*
X01401371Y00685877*
X01400163Y00684302*
X01400134Y00684232*
X01398864*
X01398835Y00684302*
X01397627Y00685877*
X01396052Y00687085*
X01394217Y00687845*
X01393519Y00687937*
Y00680499*
Y00673061*
X01394217Y00673153*
X01396052Y00673913*
X01397627Y00675121*
X01398835Y00676696*
X01399499Y00678299*
X01400163Y00676696*
X01401371Y00675121*
X01402947Y00673913*
X01404781Y00673153*
X01405479Y00673061*
Y00680499*
Y00687937*
G37*
G36*
X01408019D02*
Y00681769D01*
X01414187*
X01414095Y00682467*
X01413335Y00684302*
X01412127Y00685877*
X01410552Y00687085*
X01408717Y00687845*
X01408019Y00687937*
G37*
G36*
X01390979D02*
X01390281Y00687845D01*
X01388447Y00687085*
X01386871Y00685877*
X01385663Y00684302*
X01384903Y00682467*
X01384811Y00681769*
X01390979*
Y00687937*
G37*
G36*
X00941079Y00675829D02*
X00932269D01*
Y00667019*
X00933651Y00667201*
X00936123Y00668224*
X00938245Y00669853*
X00939874Y00671975*
X00940898Y00674447*
X00941079Y00675829*
G37*
G36*
X00929729D02*
X00920918D01*
X00921101Y00674447*
X00922124Y00671975*
X00923753Y00669853*
X00925875Y00668224*
X00928347Y00667201*
X00929729Y00667019*
Y00675829*
G37*
G36*
X00930999Y00660595D02*
X00928697Y00660292D01*
X00926551Y00659403*
X00924708Y00657989*
X00923295Y00656147*
X00922406Y00654002*
X00922103Y00651699*
X00922406Y00649397*
X00923295Y00647251*
X00924708Y00645408*
X00926551Y00643995*
X00928697Y00643106*
X00930999Y00642803*
X00933302Y00643106*
X00935447Y00643995*
X00937289Y00645408*
X00938703Y00647251*
X00939592Y00649397*
X00939895Y00651699*
X00939592Y00654002*
X00938703Y00656147*
X00937289Y00657989*
X00935447Y00659403*
X00933302Y00660292*
X00930999Y00660595*
G37*
G36*
X01414187Y00679229D02*
X01408019D01*
Y00673061*
X01408717Y00673153*
X01410552Y00673913*
X01412127Y00675121*
X01413335Y00676696*
X01414095Y00678531*
X01414187Y00679229*
G37*
G36*
X01390979D02*
X01384811D01*
X01384903Y00678531*
X01385663Y00676696*
X01386871Y00675121*
X01388447Y00673913*
X01390281Y00673153*
X01390979Y00673061*
Y00679229*
G37*
G36*
X00317999Y00685595D02*
X00315696Y00685292D01*
X00313551Y00684403*
X00311708Y00682989*
X00310295Y00681147*
X00309406Y00679002*
X00309103Y00676699*
X00309406Y00674397*
X00310295Y00672251*
X00311708Y00670408*
X00313551Y00668995*
X00315696Y00668106*
X00317999Y00667803*
X00320302Y00668106*
X00322447Y00668995*
X0032429Y00670408*
X00325703Y00672251*
X00326592Y00674397*
X00326895Y00676699*
X00326592Y00679002*
X00325703Y00681147*
X0032429Y00682989*
X00322447Y00684403*
X00320302Y00685292*
X00317999Y00685595*
G37*
G36*
X01278479Y00699479D02*
X01268781D01*
X01268993Y00697867*
X01270106Y00695181*
X01271875Y00692875*
X01274181Y00691106*
X01276867Y00689993*
X01278479Y00689781*
Y00699479*
G37*
G36*
X01228949Y00710533D02*
X01226417Y00710199D01*
X01224057Y00709222*
X01222031Y00707667*
X01220476Y00705641*
X01219499Y00703281*
X01219165Y00700749*
X01219499Y00698217*
X01220476Y00695857*
X01222031Y00693831*
X01224057Y00692277*
X01226417Y00691299*
X01228949Y00690965*
X01231481Y00691299*
X01233841Y00692277*
X01235867Y00693831*
X01237422Y00695857*
X01238399Y00698217*
X01238733Y00700749*
X01238399Y00703281*
X01237422Y00705641*
X01235867Y00707667*
X01233841Y00709222*
X01231481Y00710199*
X01228949Y00710533*
G37*
G36*
X01203549D02*
X01201017Y00710199D01*
X01198657Y00709222*
X01196631Y00707667*
X01195076Y00705641*
X01194099Y00703281*
X01193765Y00700749*
X01194099Y00698217*
X01195076Y00695857*
X01196631Y00693831*
X01198657Y00692277*
X01201017Y00691299*
X01203549Y00690965*
X01206081Y00691299*
X01208441Y00692277*
X01210467Y00693831*
X01212022Y00695857*
X01212999Y00698217*
X01213333Y00700749*
X01212999Y00703281*
X01212022Y00705641*
X01210467Y00707667*
X01208441Y00709222*
X01206081Y00710199*
X01203549Y00710533*
G37*
G36*
X01178149D02*
X01175617Y00710199D01*
X01173257Y00709222*
X01171231Y00707667*
X01169676Y00705641*
X01168699Y00703281*
X01168365Y00700749*
X01168699Y00698217*
X01169676Y00695857*
X01171231Y00693831*
X01173257Y00692277*
X01175617Y00691299*
X01178149Y00690965*
X01180681Y00691299*
X01183041Y00692277*
X01185067Y00693831*
X01186622Y00695857*
X01187599Y00698217*
X01187933Y00700749*
X01187599Y00703281*
X01186622Y00705641*
X01185067Y00707667*
X01183041Y00709222*
X01180681Y00710199*
X01178149Y00710533*
G37*
G36*
X00939819Y00711319D02*
X00922179D01*
Y00693679*
X00939819*
Y00711319*
G37*
G36*
X00317999Y00710995D02*
X00315696Y00710692D01*
X00313551Y00709803*
X00311708Y0070839*
X00310295Y00706547*
X00309406Y00704401*
X00309103Y00702099*
X00309406Y00699797*
X00310295Y00697651*
X00311708Y00695808*
X00313551Y00694395*
X00315696Y00693506*
X00317999Y00693203*
X00320302Y00693506*
X00322447Y00694395*
X0032429Y00695808*
X00325703Y00697651*
X00326592Y00699797*
X00326895Y00702099*
X00326592Y00704401*
X00325703Y00706547*
X0032429Y0070839*
X00322447Y00709803*
X00320302Y00710692*
X00317999Y00710995*
G37*
G36*
X01254349Y00710533D02*
X01251817Y00710199D01*
X01249457Y00709222*
X01247431Y00707667*
X01245876Y00705641*
X01244899Y00703281*
X01244565Y00700749*
X01244899Y00698217*
X01245876Y00695857*
X01247431Y00693831*
X01249457Y00692277*
X01251817Y00691299*
X01254349Y00690965*
X01256881Y00691299*
X01259241Y00692277*
X01261267Y00693831*
X01262822Y00695857*
X01263799Y00698217*
X01264133Y00700749*
X01263799Y00703281*
X01262822Y00705641*
X01261267Y00707667*
X01259241Y00709222*
X01256881Y00710199*
X01254349Y00710533*
G37*
G36*
X01076549D02*
X01074017Y00710199D01*
X01071657Y00709222*
X01069631Y00707667*
X01068076Y00705641*
X01067099Y00703281*
X01066765Y00700749*
X01067099Y00698217*
X01068076Y00695857*
X01069631Y00693831*
X01071657Y00692277*
X01074017Y00691299*
X01076549Y00690965*
X01079081Y00691299*
X01081441Y00692277*
X01083467Y00693831*
X01085022Y00695857*
X01085999Y00698217*
X01086333Y00700749*
X01085999Y00703281*
X01085022Y00705641*
X01083467Y00707667*
X01081441Y00709222*
X01079081Y00710199*
X01076549Y00710533*
G37*
G36*
X01051149D02*
X01048617Y00710199D01*
X01046257Y00709222*
X01044231Y00707667*
X01042676Y00705641*
X01041699Y00703281*
X01041365Y00700749*
X01041699Y00698217*
X01042676Y00695857*
X01044231Y00693831*
X01046257Y00692277*
X01048617Y00691299*
X01051149Y00690965*
X01053681Y00691299*
X01056041Y00692277*
X01058067Y00693831*
X01059622Y00695857*
X01060599Y00698217*
X01060933Y00700749*
X01060599Y00703281*
X01059622Y00705641*
X01058067Y00707667*
X01056041Y00709222*
X01053681Y00710199*
X01051149Y00710533*
G37*
G36*
X01290717Y00699479D02*
X01281019D01*
Y00689781*
X01282631Y00689993*
X01285317Y00691106*
X01287623Y00692875*
X01289392Y00695181*
X01290505Y00697867*
X01290717Y00699479*
G37*
G36*
X01152749Y00710533D02*
X01150217Y00710199D01*
X01147857Y00709222*
X01145831Y00707667*
X01144276Y00705641*
X01143299Y00703281*
X01142965Y00700749*
X01143299Y00698217*
X01144276Y00695857*
X01145831Y00693831*
X01147857Y00692277*
X01150217Y00691299*
X01152749Y00690965*
X01155281Y00691299*
X01157641Y00692277*
X01159667Y00693831*
X01161222Y00695857*
X01162199Y00698217*
X01162533Y00700749*
X01162199Y00703281*
X01161222Y00705641*
X01159667Y00707667*
X01157641Y00709222*
X01155281Y00710199*
X01152749Y00710533*
G37*
G36*
X01127349D02*
X01124817Y00710199D01*
X01122457Y00709222*
X01120431Y00707667*
X01118876Y00705641*
X01117899Y00703281*
X01117565Y00700749*
X01117899Y00698217*
X01118876Y00695857*
X01120431Y00693831*
X01122457Y00692277*
X01124817Y00691299*
X01127349Y00690965*
X01129881Y00691299*
X01132241Y00692277*
X01134267Y00693831*
X01135822Y00695857*
X01136799Y00698217*
X01137133Y00700749*
X01136799Y00703281*
X01135822Y00705641*
X01134267Y00707667*
X01132241Y00709222*
X01129881Y00710199*
X01127349Y00710533*
G37*
G36*
X01101949D02*
X01099417Y00710199D01*
X01097057Y00709222*
X01095031Y00707667*
X01093476Y00705641*
X01092499Y00703281*
X01092165Y00700749*
X01092499Y00698217*
X01093476Y00695857*
X01095031Y00693831*
X01097057Y00692277*
X01099417Y00691299*
X01101949Y00690965*
X01104481Y00691299*
X01106841Y00692277*
X01108867Y00693831*
X01110422Y00695857*
X01111399Y00698217*
X01111733Y00700749*
X01111399Y00703281*
X01110422Y00705641*
X01108867Y00707667*
X01106841Y00709222*
X01104481Y00710199*
X01101949Y00710533*
G37*
G36*
X01348467Y00793429D02*
X01338769D01*
Y00783731*
X01340381Y00783943*
X01343067Y00785056*
X01345373Y00786825*
X01347142Y00789131*
X01348255Y00791817*
X01348467Y00793429*
G37*
G36*
X01683937Y00836229D02*
X01669061D01*
X01669153Y00835531*
X01669913Y00833697*
X01671121Y00832121*
X01671979Y00831463*
X0167212Y00831123*
Y00830085*
X01670871Y00829127*
X01669663Y00827551*
X01668903Y00825717*
X01668811Y00825019*
X01683687*
X01683595Y00825717*
X01682835Y00827551*
X01681627Y00829127*
X01680769Y00829785*
X01680628Y00830125*
Y00831163*
X01681877Y00832121*
X01683085Y00833697*
X01683845Y00835531*
X01683937Y00836229*
G37*
G36*
X00899499Y00885595D02*
X00894634Y00885212D01*
X0088989Y00884073*
X00885382Y00882206*
X00881221Y00879656*
X00877511Y00876487*
X00874342Y00872777*
X00871792Y00868616*
X00869925Y00864108*
X00868786Y00859363*
X00868403Y00854499*
X00868786Y00849634*
X00869925Y0084489*
X00871792Y00840382*
X00874342Y00836221*
X00877511Y00832511*
X00881221Y00829342*
X00885382Y00826792*
X0088989Y00824925*
X00894634Y00823786*
X00899499Y00823403*
X00904363Y00823786*
X00909108Y00824925*
X00913616Y00826792*
X00917777Y00829342*
X00921487Y00832511*
X00924656Y00836221*
X00927206Y00840382*
X00929073Y0084489*
X00930212Y00849634*
X00930595Y00854499*
X00930212Y00859363*
X00929073Y00864108*
X00927206Y00868616*
X00924656Y00872777*
X00921487Y00876487*
X00917777Y00879656*
X00913616Y00882206*
X00909108Y00884073*
X00904363Y00885212*
X00899499Y00885595*
G37*
G36*
X00349499D02*
X00344635Y00885212D01*
X0033989Y00884073*
X00335382Y00882206*
X00331221Y00879656*
X00327511Y00876487*
X00324342Y00872777*
X00321792Y00868616*
X00319925Y00864108*
X00318786Y00859363*
X00318403Y00854499*
X00318786Y00849634*
X00319925Y0084489*
X00321792Y00840382*
X00324342Y00836221*
X00327511Y00832511*
X00331221Y00829342*
X00335382Y00826792*
X0033989Y00824925*
X00344635Y00823786*
X00349499Y00823403*
X00354363Y00823786*
X00359108Y00824925*
X00363616Y00826792*
X00367777Y00829342*
X00371487Y00832511*
X00374656Y00836221*
X00377206Y00840382*
X00379073Y0084489*
X00380212Y00849634*
X00380595Y00854499*
X00380212Y00859363*
X00379073Y00864108*
X00377206Y00868616*
X00374656Y00872777*
X00371487Y00876487*
X00367777Y00879656*
X00363616Y00882206*
X00359108Y00884073*
X00354363Y00885212*
X00349499Y00885595*
G37*
G36*
X01605979Y00838979D02*
X01599811D01*
X01599903Y00838281*
X01600663Y00836447*
X01601871Y00834871*
X01603447Y00833663*
X01605281Y00832903*
X01605979Y00832811*
Y00838979*
G37*
G36*
X01418437Y00834479D02*
X01412269D01*
Y00828311*
X01412967Y00828403*
X01414802Y00829163*
X01416377Y00830371*
X01417585Y00831946*
X01418345Y00833781*
X01418437Y00834479*
G37*
G36*
X01409729D02*
X01403561D01*
X01403653Y00833781*
X01404413Y00831946*
X01405621Y00830371*
X01407197Y00829163*
X01409031Y00828403*
X01409729Y00828311*
Y00834479*
G37*
G36*
X01593519Y00818187D02*
Y00812019D01*
X01599687*
X01599595Y00812717*
X01598835Y00814552*
X01597627Y00816127*
X01596052Y00817335*
X01594217Y00818095*
X01593519Y00818187*
G37*
G36*
X01590979D02*
X01590281Y00818095D01*
X01588447Y00817335*
X01586871Y00816127*
X01585663Y00814552*
X01584903Y00812717*
X01584811Y00812019*
X01590979*
Y00818187*
G37*
G36*
X01576019D02*
Y00812019D01*
X01582187*
X01582095Y00812717*
X01581335Y00814552*
X01580127Y00816127*
X01578552Y00817335*
X01576717Y00818095*
X01576019Y00818187*
G37*
G36*
X01400187Y00834979D02*
X01385311D01*
X01385403Y00834281*
X01386163Y00832447*
X01387371Y00830871*
X01388946Y00829663*
X0138962Y00829384*
Y00828114*
X01388946Y00827835*
X01387371Y00826627*
X01386163Y00825052*
X01385403Y00823217*
X01385311Y00822519*
X01400187*
X01400095Y00823217*
X01399335Y00825052*
X01398127Y00826627*
X01396551Y00827835*
X01395878Y00828114*
Y00829384*
X01396552Y00829663*
X01398127Y00830871*
X01399335Y00832447*
X01400095Y00834281*
X01400187Y00834979*
G37*
G36*
Y00819979D02*
X01394019D01*
Y00813811*
X01394717Y00813903*
X01396551Y00814663*
X01398127Y00815871*
X01399335Y00817447*
X01400095Y00819281*
X01400187Y00819979*
G37*
G36*
X01391479D02*
X01385311D01*
X01385403Y00819281*
X01386163Y00817447*
X01387371Y00815871*
X01388946Y00814663*
X01390781Y00813903*
X01391479Y00813811*
Y00819979*
G37*
G36*
X01614687Y00838979D02*
X01608519D01*
Y00832811*
X01609217Y00832903*
X01611052Y00833663*
X01612627Y00834871*
X01613835Y00836447*
X01614595Y00838281*
X01614687Y00838979*
G37*
G36*
X01675229Y00844937D02*
X01674531Y00844845D01*
X01672696Y00844085*
X01671121Y00842877*
X01669913Y00841301*
X01669153Y00839467*
X01669061Y00838769*
X01675229*
Y00844937*
G37*
G36*
X01394019Y00843687D02*
Y00837519D01*
X01400187*
X01400095Y00838217*
X01399335Y00840051*
X01398127Y00841627*
X01396552Y00842835*
X01394717Y00843595*
X01394019Y00843687*
G37*
G36*
X01391479D02*
X01390781Y00843595D01*
X01388946Y00842835*
X01387371Y00841627*
X01386163Y00840051*
X01385403Y00838217*
X01385311Y00837519*
X01391479*
Y00843687*
G37*
G36*
X01608519Y00847687D02*
Y00841519D01*
X01614687*
X01614595Y00842217*
X01613835Y00844052*
X01612627Y00845627*
X01611052Y00846836*
X01609217Y00847595*
X01608519Y00847687*
G37*
G36*
X01605979D02*
X01605281Y00847595D01*
X01603447Y00846836*
X01601871Y00845627*
X01600663Y00844052*
X01599903Y00842217*
X01599811Y00841519*
X01605979*
Y00847687*
G37*
G36*
X01677769Y00844937D02*
Y00838769D01*
X01683937*
X01683845Y00839467*
X01683085Y00841301*
X01681877Y00842877*
X01680301Y00844085*
X01678467Y00844845*
X01677769Y00844937*
G37*
G36*
X01243999Y0084732D02*
X0124158Y00846839D01*
X01239529Y00845469*
X01238225Y00843517*
X01218999*
X01218035Y00843326*
X01217218Y0084278*
X01186218Y0081178*
X01185672Y00810963*
X01185481Y00809999*
Y00809773*
X01183529Y00808469*
X01182159Y00806418*
X01181678Y00803999*
X01182159Y0080158*
X01183529Y00799529*
X0118558Y00798159*
X01187999Y00797678*
X01190418Y00798159*
X01192469Y00799529*
X01193839Y0080158*
X01194321Y00803999*
X01193839Y00806418*
X01192469Y00808469*
X0119184Y0080889*
X01191715Y00810153*
X01220042Y00838481*
X01238225*
X01239529Y00836529*
X0124158Y00835159*
X01243999Y00834677*
X01246418Y00835159*
X01248469Y00836529*
X01249839Y00838581*
X01250321Y00840999*
X01249839Y00843418*
X01248469Y00845469*
X01246418Y00846839*
X01243999Y0084732*
G37*
G36*
X01596687Y00839479D02*
X01590519D01*
Y00833311*
X01591217Y00833403*
X01593052Y00834163*
X01594627Y00835371*
X01595835Y00836946*
X01596595Y00838781*
X01596687Y00839479*
G37*
G36*
X01587979D02*
X01581811D01*
X01581903Y00838781*
X01582663Y00836946*
X01583871Y00835371*
X01585447Y00834163*
X01587281Y00833403*
X01587979Y00833311*
Y00839479*
G37*
G36*
X01412269Y00843187D02*
Y00837019D01*
X01418437*
X01418345Y00837717*
X01417585Y00839552*
X01416377Y00841127*
X01414802Y00842335*
X01412967Y00843095*
X01412269Y00843187*
G37*
G36*
X01409729D02*
X01409031Y00843095D01*
X01407197Y00842335*
X01405621Y00841127*
X01404413Y00839552*
X01403653Y00837717*
X01403561Y00837019*
X01409729*
Y00843187*
G37*
G36*
X01287729Y00841229D02*
X01281561D01*
X01281653Y00840531*
X01282413Y00838697*
X01283621Y00837121*
X01285196Y00835914*
X01287031Y00835153*
X01287729Y00835061*
Y00841229*
G37*
G36*
X01338769Y00805667D02*
Y00795969D01*
X01348467*
X01348255Y00797581*
X01347142Y00800267*
X01345373Y00802573*
X01343067Y00804342*
X01340381Y00805455*
X01338769Y00805667*
G37*
G36*
X01336229D02*
X01334617Y00805455D01*
X01331931Y00804342*
X01329625Y00802573*
X01327856Y00800267*
X01326743Y00797581*
X01326531Y00795969*
X01336229*
Y00805667*
G37*
G36*
X01662938Y00795479D02*
X01656769D01*
Y00789311*
X01657467Y00789403*
X01659302Y00790163*
X01660877Y00791371*
X01662085Y00792946*
X01662845Y00794781*
X01662938Y00795479*
G37*
G36*
X01134929Y00810361D02*
X01133215Y00810135D01*
X01130435Y00808983*
X01128047Y00807151*
X01126215Y00804763*
X01125063Y00801983*
X01124839Y00800269*
X01134929*
Y00810361*
G37*
G36*
X01656769Y00804187D02*
Y00798019D01*
X01662938*
X01662845Y00798717*
X01662085Y00800552*
X01660877Y00802127*
X01659302Y00803335*
X01657467Y00804095*
X01656769Y00804187*
G37*
G36*
X01654229D02*
X01653531Y00804095D01*
X01651697Y00803335*
X01650121Y00802127*
X01648913Y00800552*
X01648153Y00798717*
X01648061Y00798019*
X01654229*
Y00804187*
G37*
G36*
X01085399Y00809176D02*
X01082765Y00808829D01*
X01080311Y00807813*
X01078203Y00806196*
X01076585Y00804088*
X01075569Y00801633*
X01075222Y00798999*
X01075569Y00796365*
X01076585Y00793911*
X01078203Y00791803*
X01080311Y00790185*
X01082765Y00789169*
X01085399Y00788822*
X01088033Y00789169*
X01090488Y00790185*
X01092595Y00791803*
X01094213Y00793911*
X01095229Y00796365*
X01095576Y00798999*
X01095229Y00801633*
X01094213Y00804088*
X01092595Y00806196*
X01090488Y00807813*
X01088033Y00808829*
X01085399Y00809176*
G37*
G36*
X0114756Y00797729D02*
X01137469D01*
Y00787638*
X01139183Y00787863*
X01141963Y00789015*
X01144351Y00790847*
X01146183Y00793235*
X01147335Y00796015*
X0114756Y00797729*
G37*
G36*
X01134929D02*
X01124839D01*
X01125063Y00796015*
X01126215Y00793235*
X01128047Y00790847*
X01130435Y00789015*
X01133215Y00787863*
X01134929Y00787638*
Y00797729*
G37*
G36*
X01654229Y00795479D02*
X01648061D01*
X01648153Y00794781*
X01648913Y00792946*
X01650121Y00791371*
X01651697Y00790163*
X01653531Y00789403*
X01654229Y00789311*
Y00795479*
G37*
G36*
X01070089Y00809089D02*
X01049909D01*
Y00788909*
X01070089*
Y00809089*
G37*
G36*
X01110799Y00809176D02*
X01108165Y00808829D01*
X01105711Y00807813*
X01103603Y00806196*
X01101985Y00804088*
X01100969Y00801633*
X01100622Y00798999*
X01100969Y00796365*
X01101985Y00793911*
X01103603Y00791803*
X01105711Y00790185*
X01108165Y00789169*
X01110799Y00788822*
X01113433Y00789169*
X01115888Y00790185*
X01117995Y00791803*
X01119613Y00793911*
X01120629Y00796365*
X01120976Y00798999*
X01120629Y00801633*
X01119613Y00804088*
X01117995Y00806196*
X01115888Y00807813*
X01113433Y00808829*
X01110799Y00809176*
G37*
G36*
X01137469Y00810361D02*
Y00800269D01*
X0114756*
X01147335Y00801983*
X01146183Y00804763*
X01144351Y00807151*
X01141963Y00808983*
X01139183Y00810135*
X01137469Y00810361*
G37*
G36*
X01628979Y00816187D02*
X01628281Y00816095D01*
X01626446Y00815335*
X01624871Y00814127*
X01623663Y00812552*
X01622903Y00810717*
X01622811Y00810019*
X01628979*
Y00816187*
G37*
G36*
X01599687Y00809479D02*
X01593519D01*
Y00803311*
X01594217Y00803403*
X01596052Y00804164*
X01597627Y00805371*
X01598835Y00806946*
X01599595Y00808781*
X01599687Y00809479*
G37*
G36*
X01590979D02*
X01584811D01*
X01584903Y00808781*
X01585663Y00806946*
X01586871Y00805371*
X01588447Y00804164*
X01590281Y00803403*
X01590979Y00803311*
Y00809479*
G37*
G36*
X01573479Y00818187D02*
X01572781Y00818095D01*
X01570947Y00817335*
X01569371Y00816127*
X01568163Y00814552*
X01567403Y00812717*
X01567311Y00812019*
X01573479*
Y00818187*
G37*
G36*
X01683687Y00822479D02*
X01668811D01*
X01668903Y00821781*
X01669663Y00819947*
X01670871Y00818371*
X0167167Y00817759*
Y00816489*
X01670871Y00815877*
X01669663Y00814302*
X01668903Y00812467*
X01668811Y00811769*
X01683687*
X01683595Y00812467*
X01682835Y00814302*
X01681627Y00815877*
X01680828Y00816489*
Y00817759*
X01681627Y00818371*
X01682835Y00819947*
X01683595Y00821781*
X01683687Y00822479*
G37*
G36*
X01631519Y00816187D02*
Y00810019D01*
X01637687*
X01637595Y00810717*
X01636835Y00812552*
X01635627Y00814127*
X01634051Y00815335*
X01632217Y00816095*
X01631519Y00816187*
G37*
G36*
X01674979Y00809229D02*
X01668811D01*
X01668903Y00808531*
X01669663Y00806696*
X01670871Y00805121*
X01672447Y00803913*
X01674281Y00803153*
X01674979Y00803061*
Y00809229*
G37*
G36*
X01637687Y00807479D02*
X01631519D01*
Y00801311*
X01632217Y00801403*
X01634051Y00802163*
X01635627Y00803371*
X01636835Y00804947*
X01637595Y00806781*
X01637687Y00807479*
G37*
G36*
X01628979D02*
X01622811D01*
X01622903Y00806781*
X01623663Y00804947*
X01624871Y00803371*
X01626446Y00802163*
X01628281Y00801403*
X01628979Y00801311*
Y00807479*
G37*
G36*
X01582187Y00809479D02*
X01576019D01*
Y00803311*
X01576717Y00803403*
X01578552Y00804164*
X01580127Y00805371*
X01581335Y00806946*
X01582095Y00808781*
X01582187Y00809479*
G37*
G36*
X01573479D02*
X01567311D01*
X01567403Y00808781*
X01568163Y00806946*
X01569371Y00805371*
X01570947Y00804164*
X01572781Y00803403*
X01573479Y00803311*
Y00809479*
G37*
G36*
X01683687Y00809229D02*
X01677519D01*
Y00803061*
X01678217Y00803153*
X01680051Y00803913*
X01681627Y00805121*
X01682835Y00806696*
X01683595Y00808531*
X01683687Y00809229*
G37*
%LNbackplane-3*%
%LPD*%
G54D10*
X01297517Y00837517D02*
Y00870481D01*
X01287999Y00827999D02*
X01297517Y00837517D01*
X01278999Y00889D02*
X01297517Y00870481D01*
X01226999Y00928069D02*
Y00973999D01*
X01221929Y00922999D02*
X01226999Y00928069D01*
X01231999Y00921999D02*
Y00952999D01*
X01222999Y00912999D02*
X01231999Y00921999D01*
X01229999Y00827999D02*
X01287999D01*
X01283399Y00995399D02*
Y01019999D01*
X01277999Y00989999D02*
X01283399Y00995399D01*
X01021999Y00526999D02*
Y00536999D01*
X01005053Y00510053D02*
X01021999Y00526999D01*
X01000868Y00510053D02*
X01005053D01*
X01000868Y00484653D02*
X01013653D01*
X01041999Y00512999*
X01585749Y00679749D02*
Y00750249D01*
X01337499Y00718499D02*
X01343749D01*
X01403249Y00777999*
X01579749*
X01392749Y00836249D02*
X01392999Y00836499D01*
X01655249Y00796999D02*
X01655499Y00796749D01*
X01626499Y00850749D02*
X01626749Y00850999D01*
X01570999Y00851249D02*
D01*
X01009999Y00292999D02*
Y00351499D01*
X00979499Y00262499D02*
X01009999Y00292999D01*
X00979499Y00208499D02*
Y00262499D01*
X00997999Y00296749D02*
Y00407499D01*
X00967999Y00266749D02*
X00997999Y00296749D01*
X00967999Y00214499D02*
Y00266749D01*
X00550699Y00365749D02*
X00606499D01*
X00455249Y00270299D02*
X00550699Y00365749D01*
X00649749Y00348999D02*
X00893999D01*
X00632999Y00365749D02*
X00649749Y00348999D01*
X00606499Y00365749D02*
X00632999D01*
X00684999Y00291999D02*
X00938999D01*
X00631749Y00238749D02*
X00684999Y00291999D01*
X00606499Y00238749D02*
X00631749D01*
X00669249Y00301999D02*
X00922999D01*
X00631399Y00264149D02*
X00669249Y00301999D01*
X00606499Y00264149D02*
X00631399D01*
X00652649Y00312399D02*
X00938899D01*
X00629799Y00289549D02*
X00652649Y00312399D01*
X00606499Y00289549D02*
X00629799D01*
X00638999Y00323999D02*
X00922999D01*
X00629949Y00314949D02*
X00638999Y00323999D01*
X00606499Y00314949D02*
X00629949D01*
X00606499Y00340349D02*
X00632149D01*
X00638499Y00333999*
X00158499Y00703499D02*
X00228499D01*
X01167999Y00765999D02*
X01229999Y00827999D01*
X01027999Y00765999D02*
X01167999D01*
X00893999Y00348999D02*
X00924999Y00379999D01*
Y00379499D02*
Y00379999D01*
X01020999Y00362499D02*
Y00408499D01*
X00638499Y00333999D02*
X00938999D01*
X00406499Y00765999D02*
X00817499D01*
X00932999Y00161749D02*
Y00161999D01*
X00930499Y00176999D02*
X00967999Y00214499D01*
X00918999Y00176999D02*
X00930499D01*
X00932999Y00161999D02*
X00979499Y00208499D01*
X01009999Y00351499D02*
X01020999Y00362499D01*
X01087299Y00535499D02*
X01102699Y00550899D01*
X01023499Y00535499D02*
X01087299D01*
X01021999Y00536999D02*
X01023499Y00535499D01*
X01088199Y00510999D02*
X01102699Y00525499D01*
X01043999Y00510999D02*
X01088199D01*
X01041999Y00512999D02*
X01043999Y00510999D01*
X01124999Y00410999D02*
X01132999D01*
X01123499Y00409499D02*
X01124999Y00410999D01*
X01088299Y00409499D02*
X01123499D01*
X01077299Y00398499D02*
X01088299Y00409499D01*
X01113299Y00345699D02*
X01116999Y00341999D01*
X01104699Y00345699D02*
X01113299D01*
X01102699Y00347699D02*
X01104699Y00345699D01*
X01088299Y00282499D02*
X01102699Y00296899D01*
X01039499Y00282499D02*
X01088299D01*
X01027999Y00293999D02*
X01039499Y00282499D01*
X01109499Y00104499D02*
X01116999Y00111999D01*
X01088099Y00104499D02*
X01109499D01*
X01077299Y00093699D02*
X01088099Y00104499D01*
X01109999Y00307999D02*
X01116999Y00314999D01*
X01047999Y00307999D02*
X01109999D01*
X01039999Y00299999D02*
X01047999Y00307999D01*
X01268999Y00889D02*
X01278999D01*
X01251999Y00905999D02*
X01268999Y00889D01*
X01226999Y00892999D02*
X01230499Y00896499D01*
X01226999Y00885999D02*
Y00892999D01*
X01214999Y00873999D02*
X01226999Y00885999D01*
X01214999Y00855999D02*
Y00873999D01*
X01174999Y00815999D02*
X01214999Y00855999D01*
X01208999Y00881999D02*
X01216999Y00889999D01*
X01208999Y00863999D02*
Y00881999D01*
X01160999Y00815999D02*
X01208999Y00863999D01*
Y00922999D02*
X01221929D01*
X01213999Y00912999D02*
X01222999D01*
X01202999Y00916999D02*
X01208999Y00922999D01*
X01231999Y00952999D02*
X01268999Y00989999D01*
X00945999Y00986999D02*
X01143999D01*
X00936999Y00995999D02*
X00945999Y00986999D01*
X00914999Y00995999D02*
X00936999D01*
X01018999Y00962999D02*
X01147999D01*
X01298999Y00892999D02*
Y00898999D01*
X01312999Y00912999*
X01322999*
X01218999Y00840999D02*
X01243999D01*
X01187999Y00809999D02*
X01218999Y00840999D01*
X01116999Y00111999D02*
Y00137999D01*
X01136999Y00157999*
X01202999Y00912999D02*
Y00916999D01*
X01173999Y00883999D02*
X01202999Y00912999D01*
X01173999Y00843999D02*
Y00883999D01*
X01188999Y00887999D02*
X01213999Y00912999D01*
X01188999Y00858999D02*
Y00887999D01*
X01187999Y00803999D02*
Y00809999D01*
X01174999Y00789999D02*
Y00815999D01*
X01160999Y00778999D02*
Y00815999D01*
X01268999Y00989999D02*
X01277999D01*
X01272999Y00975999D02*
X01281999Y00984999D01*
X01350999*
X01359599Y00993599*
Y01017499*
X01116999Y00314999D02*
Y00341999D01*
X01031999Y00313999D02*
Y00325999D01*
X01027999Y00309999D02*
X01031999Y00313999D01*
X01027999Y00293999D02*
Y00309999D01*
X01695999Y00038735D02*
Y00023499D01*
X01688382*
X01685842Y00026038*
Y00028577*
X01688382Y00031116*
X01695999*
X01688382*
X01685842Y00033656*
Y00036195*
X01688382Y00038735*
X01695999*
X01673146D02*
X01678225D01*
X01680764Y00036195*
Y00026038*
X01678225Y00023499*
X01673146*
X01670607Y00026038*
Y00036195*
X01673146Y00038735*
X01665529D02*
X01655372D01*
X01660451*
Y00023499*
G54D37*
X00228999Y00666499D02*
Y00820599D01*
X00219999Y00657499D02*
X00228999Y00666499D01*
X00219999Y00629499D02*
Y00657499D01*
Y00629499D02*
X00231549Y00617949D01*
X00245749*
G54D39*
X01039749Y00750999D02*
X01274999D01*
X01032249Y00743499D02*
X01039749Y00750999D01*
X01008499Y00743499D02*
X01032249D01*
X01332499Y00600999D02*
X01364999Y00568499D01*
X01146999Y00600999D02*
X01332499D01*
X01337999Y00649499D02*
X01391499D01*
G54D40*
X00985499Y00302499D02*
Y00357999D01*
X00955999Y00272999D02*
X00985499Y00302499D01*
X00955999Y00218999D02*
Y00272999D01*
X00983499Y00359999D02*
Y00394999D01*
X00982999Y00395499D02*
X00983499Y00394999D01*
X00930499Y00193499D02*
X00955999Y00218999D01*
X00909499Y00193499D02*
X00930499D01*
X01459999Y00911999D02*
X01496999D01*
X01450999Y00920999D02*
X01459999Y00911999D01*
X01499799Y00914799D02*
X01505799D01*
X01496999Y00911999D02*
X01499799Y00914799D01*
X01439999Y00966999D02*
X01450999Y00955999D01*
X01433999Y00966999D02*
X01439999D01*
X01450999Y00920999D02*
Y00955999D01*
X01505799Y00914799D02*
X01505999Y00914999D01*
G54D41*
X01104999Y00573999D02*
X01319099D01*
X01102699Y00576299D02*
X01104999Y00573999D01*
G54D43*
X01027999Y00765999D02*
X01029499Y00767499D01*
G54D45*
X01102199Y00447299D03*
X01076799D03*
Y00421899D03*
X01102199D03*
X01076799Y00396499D03*
X01102199D03*
X01076799Y00371099D03*
X01102199D03*
X01076799Y00345699D03*
X01102199D03*
Y00218699D03*
X01076799D03*
X01102199Y00244099D03*
X01076799D03*
X01102199Y00269499D03*
X01076799D03*
X01102199Y00294899D03*
X01076799D03*
Y00320299D03*
X01102199D03*
Y00091699D03*
X01076799D03*
X01102199Y00117099D03*
X01076799D03*
X01102199Y00142499D03*
X01076799D03*
X01102199Y00167899D03*
X01076799D03*
Y00193299D03*
X01102199D03*
Y00472699D03*
X01076799D03*
X01102199Y00498099D03*
X01076799D03*
X01102199Y00523499D03*
X01076799D03*
X01102199Y00548899D03*
X01076799D03*
Y00574299D03*
X01102199D03*
X00317999Y00702099D03*
Y00625899D03*
Y00676699D03*
Y00651299D03*
Y00600499D03*
Y00575099D03*
Y00549699D03*
Y00524299D03*
Y00498899D03*
Y00473499D03*
Y00448099D03*
Y00422699D03*
Y00397299D03*
Y00371899D03*
Y00346499D03*
Y00321099D03*
Y00295699D03*
Y00270299D03*
Y00244899D03*
X00930999Y00651699D03*
Y00677099D03*
Y00219699D03*
Y00245099D03*
G54D46*
X01257999Y01019999D03*
X01283399D03*
X01308799D03*
X01359599D03*
X01334199D03*
X01018999Y00937599D03*
X01136199Y00798999D03*
X01085399D03*
X01110799D03*
G54D47*
X01384999Y01019999D03*
X01059999Y00798999D03*
G54D48*
X01020749Y00148749D03*
Y00174149D03*
Y00199549D03*
Y00224949D03*
Y00250349D03*
Y00275749D03*
X01337499Y00718499D03*
Y00743899D03*
Y00769299D03*
Y00794699D03*
X00606499Y00238749D03*
Y00264149D03*
Y00289549D03*
Y00314949D03*
Y00340349D03*
Y00365749D03*
Y00391149D03*
X01000868Y00535453D03*
Y00510053D03*
Y00484653D03*
Y00459253D03*
X00245749Y00643349D03*
Y00617949D03*
Y00592549D03*
Y00567149D03*
Y00541749D03*
Y00516349D03*
Y00490949D03*
Y00465549D03*
Y00440149D03*
Y00414749D03*
X01051149Y00700749D03*
X01076549D03*
X01101949D03*
X01127349D03*
X01152749D03*
X01178149D03*
X01203549D03*
X01228949D03*
X01254349D03*
X01279749D03*
G54D49*
X00317999Y00727499D03*
X00930999Y00702499D03*
Y00270499D03*
G54D50*
X00195005Y00120027D03*
G54D51*
X00146999Y00087515D03*
Y00149999D03*
G54D52*
X00247249Y00138499D03*
Y00188499D03*
G54D53*
X01018999Y00962999D03*
G54D54*
X01496999Y00889D03*
Y00972999D03*
G54D55*
X01487999Y00922999D03*
Y00938999D03*
X01505999Y00946999D03*
Y00930999D03*
Y00914999D03*
X00079999Y00219999D03*
X00039999D03*
X00079999Y00259999D03*
X00039999D03*
Y00329999D03*
X00079999D03*
Y00369999D03*
X00039999D03*
X00271249Y00350749D03*
X01567999Y00761749D03*
X01409999Y00721749D03*
X01288999Y00842499D03*
X01655249Y00851499D03*
X01218749Y00941249D03*
X01181749Y00984749D03*
X01585749Y00679749D03*
Y00750249D03*
X01410999Y00835749D03*
X01406749Y00680499D03*
X01392249D03*
X01392749Y00821249D03*
Y00836249D03*
X01579749Y00777999D03*
X01676249Y00810499D03*
Y00823749D03*
X01676499Y00837499D03*
X01630249Y00808749D03*
X01592249Y00810749D03*
X01574749D03*
X01607249Y00840249D03*
X01589249Y00840749D03*
X01655499Y00796749D03*
X01626499Y00850749D03*
X01570999Y00851249D03*
X00455249Y00270299D03*
X00210249Y00753499D03*
X00077749Y00936999D03*
X00639499Y00123999D03*
X00107999Y00622499D03*
X00228999Y00820599D03*
X00158499Y00703499D03*
X00075999Y00871099D03*
X00228999D03*
X00678999Y00161999D03*
X00984499Y00358499D03*
X00924999Y00379499D03*
X01020999Y00408499D03*
X00997999Y00407499D03*
X00982999Y00395499D03*
X00938999Y00291999D03*
X00922999Y00301999D03*
X00938899Y00312399D03*
X00922999Y00323999D03*
X00938999Y00333999D03*
X01027999Y00765999D03*
X00406499D03*
X00817499D03*
X00909499Y00193499D03*
X00932999Y00161749D03*
X00918999Y00176999D03*
X00619529Y00126029D03*
X01015249Y00042249D03*
X01212029Y00562029D03*
X01319099Y00573999D03*
X01137029Y00945969D03*
X01253999Y00887999D03*
X01251999Y00905999D03*
X01230499Y00896499D03*
X01216999Y00889999D03*
X01392999Y00857999D03*
X01422999Y00907999D03*
X01261999Y00937999D03*
X01169999Y00902999D03*
X01035999Y01012999D03*
X01149999Y00878999D03*
X01021999Y00536999D03*
X01298999Y00892999D03*
X01243999Y00840999D03*
X01226999Y00973999D03*
X01173999Y00843999D03*
X01188999Y00858999D03*
X01187999Y00803999D03*
X01174999Y00789999D03*
X01160999Y00778999D03*
X01132999Y00410999D03*
X01041999Y00512999D03*
X01324999Y00911999D03*
X01213999Y00912999D03*
X01272999Y00975999D03*
X01433999Y00966999D03*
X01031999Y00325999D03*
X01039999Y00299999D03*
G54D56*
X00914999Y00995999D03*
X00783999Y00965999D03*
G54D57*
X01579499Y00042999D03*
X01089499D03*
Y00622999D03*
X01579499D03*
X00349499Y00114499D03*
Y00854499D03*
X00899499Y00114499D03*
Y00854499D03*
G54D58*
X01008499Y00743499D03*
X01364999Y00568499D03*
X01146999Y00600999D03*
X01391999Y00648999D03*
X01337999Y00649499D03*
X01274999Y00750999D03*
X01143999Y00986999D03*
X01147999Y00962999D03*
X01136999Y00157999D03*
G54D59*
X01659999Y00109999D03*
Y01009999D03*
X00059999Y00109999D03*
Y01009999D03*
G54D60*
X00863999Y00995999D03*
X00703999D03*
M02*