%FSTAX44Y44*%
%MOMM*%
%SFA1B1*%

%IPPOS*%
%ADD96C,1.727197*%
%ADD97C,1.981196*%
%ADD98R,1.981196X1.981196*%
%ADD99C,1.903196*%
%ADD100R,1.727197X1.727197*%
%ADD101O,2.235196X4.775190*%
%ADD102O,4.775190X2.235196*%
%ADD103C,2.003196*%
%ADD104R,1.981196X1.981196*%
%ADD105O,3.403193X3.503193*%
%ADD106C,1.203198*%
%ADD107C,2.703195*%
%ADD108C,5.203190*%
%ADD109C,1.473197*%
%ADD110C,4.703191*%
%ADD111C,4.203192*%
%LNbackplane-1*%
%LPD*%
G36*
X01430241Y00195563D02*
X01433467Y00194273D01*
X01435402Y00192983*
X01436693Y00191692*
X01438628Y00189757*
X01440564Y00185886*
Y00179434*
X01439918Y00176854*
X01438628Y00174918*
X01437338Y00172983*
X01434757Y00171047*
X01432176Y00169757*
X01429596Y00169112*
X0142508Y00168467*
X01423144*
X01418628Y00169112*
X01414757Y00170402*
X01412176Y00172339*
X01410241Y00174273*
X01408951Y00176854*
Y00178789*
X01415402*
X01416047Y00177821*
X01416693Y00176531*
X01417983Y00174596*
X01419918Y00173628*
X01421209Y00172983*
X01427015*
X01429596Y00174273*
X01432176Y00176531*
X01433467Y00179434*
Y00185886*
X01431531Y00189112*
X01429596Y00190402*
X01426693Y00191692*
X01420564*
X01418628Y00190402*
X01417015Y00189112*
X01416693Y00187821*
X01409596*
Y00189112*
X01411209Y0019137*
X01413467Y00193628*
X01415402Y00194918*
X01417338Y00195563*
X01419918Y00196209*
X0142766*
X01430241Y00195563*
G37*
G36*
X01476693Y00194918D02*
X01479273Y00193628D01*
X01483725Y00189047*
X0148437Y00187821*
X0148508Y00185886*
Y0018395*
X01483789*
X01483273Y00185434*
X01482499Y00187176*
X01481531Y00188725*
X01479273Y00191047*
X0147766Y00192338*
X01476112Y00193176*
X0147508Y00193628*
X01474112*
Y00192015*
X01475402Y00191692*
X01477015Y00191047*
X01479918Y00188468*
X01481854Y00185886*
Y0018395*
X01477338*
X01475402Y00182015*
X01477338Y00180725*
X01481854*
Y00178789*
X01479273Y00174918*
X01477015Y00173628*
X01473467Y0017266*
Y00171047*
X01477402Y00172209*
X01478628Y00172983*
X01479725Y00173951*
X01481918Y00176144*
X01482499Y00177499*
X01483144Y00179434*
X01483789Y00180725*
X0148508*
Y00178789*
X01484434Y00176854*
X01483789Y00175563*
X01479273Y00171047*
X01476693Y00169757*
X01473467Y00169112*
X01470886*
X0146766Y00169757*
X0146508Y00171047*
X01460628Y00175628*
X01459983Y00176854*
X01459273Y00178789*
Y00180725*
X01460564*
X0146108Y00179241*
X01461854Y00177499*
X01462822Y00175951*
X0146508Y00173628*
X01466693Y00172339*
X01468241Y00171499*
X01469273Y00171047*
X01470241*
Y0017266*
X01468951Y00172983*
X01467338Y00173628*
X01464434Y00176209*
X01462499Y00178789*
Y00180725*
X0146766*
X01468951Y00182015*
X01467015Y0018395*
X01462499*
Y00185886*
X01463789Y00187821*
X0146508Y00189757*
X01467338Y00191047*
X01470886Y00192015*
Y00193628*
X0146695Y00192467*
X01465725Y00191692*
X01464628Y00190725*
X01462434Y00188531*
X01461854Y00187176*
X01461209Y00185241*
X01460564Y0018395*
X01459273*
Y00185886*
X01459918Y00187821*
X01460564Y00189112*
X0146508Y00193628*
X0146766Y00194918*
X01470886Y00195563*
X01473467*
X01476693Y00194918*
G37*
G36*
X00556613Y00891024D02*
X00557914Y00890085D01*
X0055936Y00887989*
X00560733Y00885532*
X00564274Y008778*
X00568971Y0086761*
X005715Y00862407*
X00573813Y00858649*
X00574391Y00859227*
X00577426Y00865153*
X00581618Y00873897*
X0058487Y00881052*
X00587182Y0088546*
X00590001Y00889868*
X0059159Y00891097*
X00592747Y00891241*
X00593903Y00890808*
X0059477Y00890229*
X00595493Y00889579*
X00594698Y00885821*
X00594553Y00882425*
X00594626Y00878233*
X00594698Y00873464*
X00594987Y00869633*
X00595637Y00863346*
X00596649Y00857998*
X00597733Y00853301*
X00599034Y00849182*
X00595276Y00847664*
X0059412Y00847737*
X00592964Y00848459*
X00592241Y00850989*
X0059188Y00854746*
X00591518Y00861684*
X00591229Y00868766*
X0059094Y00874909*
X00590507Y00880835*
X0057786Y00854096*
X00575836Y00850338*
X0057468Y00849471*
X00573813*
X00572801Y00850411*
X00570344Y00855325*
X00558131Y00881052*
X00556975Y0086602*
X00556397Y00853662*
X0055618Y00850338*
X00555819Y00848893*
X0055459Y00847881*
X00552856Y00847737*
X0055011Y00848387*
X00548592Y00849182*
X00550037Y00853807*
X00551483Y00860239*
X00552567Y00868477*
X00553072Y00876571*
Y00882714*
X00552711Y00886905*
X00552133Y00889579*
X00553434Y00890663*
X00555168Y00891313*
X00556613Y00891024*
G37*
G36*
X01335402Y00169112D02*
X01328951D01*
Y00186531*
X01328306*
X01314112Y00169112*
X0130637*
Y00196209*
X01312822*
Y00176854*
X01328306Y00196209*
X01335402*
Y00169112*
G37*
G36*
X01465725Y0018137D02*
X0144508D01*
Y00181692*
Y00183305*
X01465725*
Y0018137*
G37*
G36*
X01456047Y0018395D02*
X01454112D01*
Y00185241*
X01444434*
Y00187176*
X01454112*
Y00189112*
X01443789*
X01442176Y00191047*
X01454112*
Y00193628*
X01440564*
X0143766Y00196209*
X01454112*
Y00214918*
X01456047*
Y0018395*
G37*
G36*
X00472062Y00892614D02*
X00476398Y00891819D01*
X00480589Y00890518*
X00484419Y0088864*
X00488611Y00885749*
X00492007Y00882425*
X00495404Y00877077*
X00496705Y00873391*
X00497283Y00868549*
X00497066Y00864502*
X0049591Y00860528*
X00493669Y00856842*
X00490851Y00853807*
X00487093Y00851278*
X00483118Y00849399*
X00478638Y00848315*
X00473868Y00847737*
X00469677*
X00464907Y00848242*
X00461438Y00849254*
X00459343Y00850483*
X0045862Y00851061*
X00458114Y00851784*
X00457102Y00854241*
X00456163Y00858793*
X00455946Y00862551*
Y00864647*
X00456018Y00866165*
X00456235Y00867465*
X00456669Y00868622*
X00457319Y00869417*
X00458114Y00869922*
X0045956Y00870139*
X00460571Y00869922*
X004618Y00869417*
X00463173Y00868838*
X00464112Y00868116*
X00463173Y00866671*
X0046245Y00864936*
X00462017Y00862479*
X00461944Y00860166*
X00462017Y00857998*
X00462089Y00856047*
X00462378Y00854313*
X00465991Y00853229*
X00470038Y00852723*
X00473579Y00852795*
X00477771Y00853373*
X00481529Y0085453*
X0048478Y00856264*
X00487382Y00858649*
X00489117Y00861323*
X00490273Y00864575*
X00490779Y00867899*
X00490634Y00871729*
X00489622Y00875487*
X0048796Y00878667*
X00485792Y00881196*
X00482974Y00883509*
X0047936Y0088546*
X0047582Y00886544*
X00472278Y00886977*
X00468882*
X00466136Y00886688*
X00464401Y00886038*
X00463462Y00888061*
X00463245Y00889796*
X0046339Y0089088*
X00464185Y00891819*
X00465919Y0089247*
X00468376Y00892687*
X00472062Y00892614*
G37*
G36*
X01363789Y00194273D02*
X0136637Y00192983D01*
X01368306Y00190402*
Y00186531*
X0136637Y0018395*
X01363789Y00182015*
X01359273Y00180725*
X01355402Y0018008*
X01352177Y00179434*
X01350241Y00178789*
X01348628Y00177499*
Y00175563*
X01349273Y00174273*
X01350886Y00173628*
X01351854Y00172983*
X01359596*
X01361209Y00174273*
X01362499Y00175563*
X01363144Y00176531*
X01363789Y00177499*
X01369596*
Y00175563*
X01368306Y00172983*
X01365725Y00170402*
X01361854Y00169112*
X01356693Y00168467*
X01352177*
X01348306Y00169112*
X01343789Y00171692*
X01341854Y00174273*
Y00178789*
X01343144Y00180725*
X0134508Y0018266*
X01350886Y00184596*
X01357338Y00185886*
X01361209Y00187176*
X01361854Y00188144*
Y0019008*
X01358628Y00191047*
X01353467*
X01351531Y00190402*
X01350241Y00189112*
X01349596Y00187821*
X01343144*
Y00190402*
X01344435Y00192338*
X01347015Y00194273*
X01350886Y00195563*
X01360564*
X01363789Y00194273*
G37*
G36*
X01456047Y00164596D02*
X01495402D01*
Y0016266*
X01486693*
X01484112Y00161692*
X01480564Y00159757*
X0147637Y00156531*
X01472822Y00153305*
X01468305Y00147176*
X01464434Y00140081*
X01460241Y00129757*
X01456693Y00113628*
X01456047*
Y00100725*
X01454112*
Y00117822*
X01453467*
Y00119435*
X01452822*
Y0016266*
X01450241*
Y00125886*
X01448305*
Y0016266*
X0144637*
Y00129112*
X0144508*
Y0016266*
X01442499*
Y00132338*
X01441209*
Y0016266*
X01438628*
Y00135563*
X01436693*
Y0016266*
X01434757*
Y00138144*
X01432822*
Y0016266*
X01430886*
Y00140081*
X01428951*
Y0016266*
X01427015*
Y0014137*
X0142508*
Y0016266*
X01423144*
Y00143306*
X01421209*
Y0016266*
X01419273*
Y00144596*
X01417338*
Y0016266*
X01415402*
Y00146531*
X01413467*
Y0016266*
X01411531*
Y00147822*
X01409596*
Y0016266*
X0140766*
Y00148467*
X01405725*
Y0016266*
X01403144*
Y00149757*
X01401854*
Y0016266*
X01399273*
Y00151047*
X01397983*
Y0016266*
X01395402*
Y00151692*
X01393467*
Y0016266*
X01391531*
Y00152983*
X01389596*
Y0016266*
X0138766*
Y00153628*
X01385725*
Y0016266*
X01383789*
Y00154273*
X01381854*
Y0016266*
X01379918*
Y00154918*
X01377983*
Y0016266*
X01376047*
Y00155563*
X01374112*
Y0016266*
X01372177*
Y0015621*
X01370241*
Y0016266*
X01368306*
Y00156854*
X0136637*
Y0016266*
X01364435*
Y00157499*
X01362499*
Y0016266*
X01359918*
Y00157499*
X01358628*
Y0016266*
X01356693*
Y00158144*
X01354757*
Y0016266*
X01352822*
Y00158144*
X01350241*
Y0016266*
X01348306*
Y00158789*
X0134637*
Y0016266*
X01344435*
Y00159435*
X01342499*
Y0016266*
X01340564*
Y00159435*
X01338628*
Y0016266*
X01336693*
Y00159435*
X01334757*
Y0016266*
X01332822*
Y00159435*
X01330886*
Y0016266*
X01328951*
Y00159435*
X01237338*
Y00164596*
X01454112*
Y00167821*
X01437338*
Y00168467*
X01441209Y00171692*
X01454112*
Y00172983*
X01442499*
X01443789Y00175563*
X01454112*
Y00177499*
X01444434*
Y00179434*
X01454112*
Y00180402*
Y00180725*
X01456047*
Y00164596*
G37*
G36*
X00554807Y00963508D02*
X00555096Y00963291D01*
X00555313Y00963002*
X00555457Y00962713*
X00555602Y00962352*
Y00961701*
X00555385Y00960978*
X00555024Y00960545*
X0055459Y00960256*
X0055394Y00960039*
X00552422Y00959533*
X00551049Y00958955*
X0054982Y00958305*
X00548375Y00957365*
X00547291Y0095657*
X00546063Y00955558*
X00545268Y00954763*
X00544473Y00953897*
X00543316Y00952451*
X00542666Y00951584*
X00541871Y00950283*
X00541293Y00949199*
X0054057Y00947681*
X00540064Y00946381*
X00539775Y00945441*
X00539559Y00944791*
X00561817*
X00562684Y00944646*
X00563334Y00944285*
X00563768Y00943851*
X00563985Y00943562*
X00564129Y00943273*
X00564274Y00942984*
X00564346Y00942623*
Y00941828*
X00564274Y00941394*
X00564129Y00941105*
X00563912Y00940672*
X00563479Y00939949*
X00563045Y00939154*
X00551699Y0091957*
X00592762*
X00592729Y00919669*
X00593036Y0092022*
X00593397Y0092087*
X00594048Y00921665*
X00594987Y00922388*
X0059571Y00922822*
X00596649Y00923255*
X00597444Y00923472*
X00598817Y00923544*
X00600046Y00923472*
X00601347Y00923111*
X00602792Y00922316*
X00603948Y0092116*
X00604815Y00919786*
X00605321Y00917835*
Y00916173*
X00605032Y009148*
X00604237Y00913282*
X00603009Y00911909*
X00601419Y00910898*
X00599612Y00910464*
X00597733*
X00596216Y00910898*
X00594915Y00911548*
X0059412Y00912343*
X00593325Y0091321*
X00592747Y00914439*
X00548736*
X00526262Y00875559*
X00526333Y00837828*
X00526428Y00837855*
X0052749Y00837258*
X00528429Y00836463*
X00529152Y00835596*
X0052973Y0083444*
X00530236Y00832994*
X00530308Y00832199*
Y00831115*
X00530019Y0082967*
X00529586Y00828731*
X00529008Y00827791*
X00528141Y00826852*
X00527129Y00826129*
X00525972Y00825551*
X00524888Y00825262*
X00524238Y0082519*
X00523154*
X00522215Y00825334*
X00521275Y00825623*
X00520263Y00826129*
X00519396Y00826779*
X00518746Y0082743*
X00518023Y00828369*
X00517517Y00829453*
X00517228Y00830393*
X00517084Y00831332*
Y00832416*
X005173Y00833501*
X00517662Y00834512*
X0051824Y00835524*
X00518963Y00836463*
X00519613Y00837041*
X00520408Y00837547*
X00521131Y00837836*
Y00875632*
X00521132Y00875635*
X00521118Y00875634*
X00498656Y00914439*
X00455151*
X00455051Y00914476*
X00455096Y0091434*
X00454212Y00912777*
X00453055Y00911693*
X00451393Y00910825*
X00450165Y00910464*
X00449514Y00910392*
X0044872*
X00447997Y00910464*
X0044713Y00910681*
X0044619Y00911042*
X00445323Y00911548*
X00444673Y00912054*
X00444022Y00912704*
X00443372Y00913644*
X00442866Y00914656*
X00442649Y00915378*
X00442505Y00916101*
Y0091798*
X00442722Y00918919*
X0044301Y00919714*
X004433Y00920292*
X00443805Y00921015*
X00444311Y00921593*
X00444817Y00922099*
X00445395Y00922533*
X00446262Y00923038*
X00447057Y00923327*
X00447924Y00923544*
X0044843Y00923617*
X00449731*
X00450598Y00923472*
X00451538Y00923183*
X0045255Y00922677*
X004532Y00922171*
X00453706Y00921738*
X0045414Y00921304*
X00454501Y0092087*
X00454862Y0092022*
X00455119Y00919642*
X00495693Y0091957*
X00484141Y0093966*
X0048413*
X00483624Y00940527*
X00483263Y00941177*
X00483046Y00941756*
Y00942189*
X00483118Y00942839*
X00483263Y00943273*
X0048348Y00943707*
X00483841Y00944068*
X00484275Y00944429*
X00484708Y00944646*
X0048507Y00944791*
X00507183*
X00507039Y00945369*
X00506894Y00945947*
X00506605Y0094667*
X00506388Y0094732*
X00506027Y00948043*
X00505666Y00948838*
X00505304Y0094956*
X00505015Y00950066*
X00504654Y00950644*
X00503787Y00952017*
X00502486Y00953679*
X00501329Y00954908*
X00500173Y00955992*
X00499017Y00956932*
X00497933Y00957726*
X00496849Y00958377*
X00495982Y0095881*
X00494681Y00959388*
X00493525Y00959822*
X00492585Y00960111*
X00491935Y009604*
X00491501Y00960762*
X00491212Y00961267*
X0049114Y00961556*
Y00962279*
X00491285Y00962713*
X00491501Y00963074*
X0049179Y00963363*
X00492079Y0096358*
X00492441Y00963725*
X0049338*
X00493886Y0096358*
X00494826Y00963291*
X00495837Y0096293*
X00496994Y00962424*
X00498294Y00961773*
X00499451Y00961123*
X00500535Y009604*
X00501113Y00959967*
X0050198Y00959316*
X00502703Y00958666*
X00503208Y00958232*
X00503787Y00957726*
X00504365Y00957148*
X00504871Y0095657*
X00505449Y0095592*
X00505955Y00955269*
X0050646Y00954619*
X00507039Y00953824*
X00507328Y0095339*
X00507834Y00952596*
X00508412Y00951584*
X0050899Y00950427*
X00509351Y00949706*
X00509857Y00948476*
X00510146Y00947681*
X00510435Y00946814*
X00510652Y00946092*
X00510869Y00945297*
X00510941Y00944791*
X00535801*
X0053609Y00946019*
X00536451Y00947176*
X00536957Y00948548*
X00537535Y00949922*
X0053833Y00951439*
X00539197Y00953029*
X0054057Y0095498*
X00541871Y00956498*
X00543389Y00958088*
X00544834Y00959316*
X00546135Y00960328*
X0054758Y00961267*
X00548736Y00961918*
X00549748Y00962424*
X00550977Y0096293*
X00552205Y00963363*
X00553145Y00963652*
X00553578Y00963725*
X00554301*
X00554807Y00963508*
G37*
G36*
X0126637Y00191692D02*
X01255403D01*
Y00169112*
X01248306*
Y00191692*
X01237338*
Y00196209*
X0126637*
Y00191692*
G37*
G36*
X01403789Y00169112D02*
X01376047D01*
Y00172983*
X01396693*
Y00180725*
X01377983*
Y00185241*
X01396693*
Y00191692*
X01376693*
Y00196209*
X01403789*
Y00169112*
G37*
G36*
X01297983D02*
X01270241D01*
Y00172983*
X01290886*
Y00180725*
X01272822*
Y00185241*
X01290886*
Y00191692*
X01270887*
Y00196209*
X01297983*
Y00169112*
G37*
%LNbackplane-2*%
%LPC*%
G36*
X01474112Y00180725D02*
X01470241D01*
Y00173628*
X01472176Y0017266*
X01474112Y00173628*
Y00180725*
G37*
G36*
X00599178Y00918413D02*
X00598456D01*
X00597805Y00918052*
X00597372Y00917474*
Y00916589*
X00597412Y00916573*
X00597589Y00916101*
X00598095Y00915667*
X00598889Y00915451*
X00599612Y0091574*
X00600046Y00916245*
X00600262Y00916896*
X00600118Y00917546*
X00599829Y00918052*
X00599178Y00918413*
G37*
G36*
X00449225Y00918486D02*
X00448792D01*
X00448358Y00918341*
X00448069Y00918052*
X00447852Y00917763*
X00447635Y00917402*
Y00916679*
X0044778Y00916245*
X00448069Y00915956*
X00448358Y0091574*
X00448575Y00915595*
X00448792Y00915523*
X00449298*
X00449803Y00915667*
X00450093Y00915956*
X00450309Y00916245*
X00450382Y00916318*
X00450526Y00916534*
Y00917402*
X00450309Y00917835*
X00449948Y00918197*
X00449587Y00918413*
X00449225Y00918486*
G37*
G36*
X00557336Y0093966D02*
X00490008D01*
X00490056Y00939587*
X0052366Y00881485*
X00523679Y00881446*
X00557336Y0093966*
G37*
G36*
X01472176Y00192015D02*
X01470241Y00191047D01*
Y0018395*
X01474112*
Y00191047*
X01472176Y00192015*
G37*
G36*
X00524021Y00833283D02*
X00523443D01*
X00523009Y00833139*
X0052272Y0083285*
X00522504Y00832633*
X00522359Y00832344*
X00522287Y00832055*
Y00831621*
X00522359Y00831188*
X00522576Y00830899*
X00522865Y0083061*
X00523154Y00830465*
X00523371Y00830393*
X00524094*
X00524527Y0083061*
X00524816Y00830826*
X00525033Y00831188*
X00525105Y00831404*
Y00832199*
X00524961Y00832561*
X00524672Y0083285*
X00524455Y00833066*
X00524238Y00833211*
X00524021Y00833283*
G37*
%LNbackplane-3*%
%LPD*%
G36*
X00515638Y00930771D02*
X00515927Y00930482D01*
X00516216Y00929976*
Y0092947*
X00516072Y00929037*
X00515783Y00928675*
X00515133Y00928386*
X00504582*
X00504003Y00928603*
X00503642Y00929037*
X00503498Y0092947*
Y00929904*
X00503642Y00930265*
X00504003Y00930699*
X00504582Y00930916*
X00515133*
X00515638Y00930771*
G37*
G36*
X00537391Y00935541D02*
X00537752Y00935324D01*
X00538041Y00934673*
Y00930916*
X0054151*
X00542016Y00930699*
X00542305Y0093041*
X00542594Y00929976*
Y00929398*
X00542377Y00928964*
X00542088Y00928603*
X00541582Y00928386*
X00538041*
Y00924628*
X00537752Y0092405*
X00537464Y00923761*
X00537102Y00923617*
X00536451*
X00536162Y00923761*
X00535728Y0092405*
X00535512Y00924628*
Y00928386*
X00531971*
X00531465Y00928675*
X00531176Y00928892*
X00531031Y00929326*
Y00929904*
X00531103Y00930265*
X00531465Y00930626*
X00531971Y00930916*
X00535512*
Y00934601*
X00535801Y00935252*
X0053609Y00935541*
X00536451Y00935685*
X00537029*
X00537391Y00935541*
G37*
G54D96*
X01102199Y00447299D03*
X01076799D03*
Y00421899D03*
X01102199D03*
X01076799Y00396499D03*
X01102199D03*
X01076799Y00371099D03*
X01102199D03*
X01076799Y00345699D03*
X01102199D03*
Y00218699D03*
X01076799D03*
X01102199Y00244099D03*
X01076799D03*
X01102199Y00269499D03*
X01076799D03*
X01102199Y00294899D03*
X01076799D03*
Y00320299D03*
X01102199D03*
Y00091699D03*
X01076799D03*
X01102199Y00117099D03*
X01076799D03*
X01102199Y00142499D03*
X01076799D03*
X01102199Y00167899D03*
X01076799D03*
Y00193299D03*
X01102199D03*
Y00472699D03*
X01076799D03*
X01102199Y00498099D03*
X01076799D03*
X01102199Y00523499D03*
X01076799D03*
X01102199Y00548899D03*
X01076799D03*
Y00574299D03*
X01102199D03*
X00317999Y00702099D03*
Y00625899D03*
Y00676699D03*
Y00651299D03*
Y00600499D03*
Y00575099D03*
Y00549699D03*
Y00524299D03*
Y00498899D03*
Y00473499D03*
Y00448099D03*
Y00422699D03*
Y00397299D03*
Y00371899D03*
Y00346499D03*
Y00321099D03*
Y00295699D03*
Y00270299D03*
Y00244899D03*
X00930999Y00651699D03*
Y00677099D03*
Y00219699D03*
Y00245099D03*
G54D97*
X01257999Y01019999D03*
X01283399D03*
X01308799D03*
X01359599D03*
X01334199D03*
X01018999Y00937599D03*
X01136199Y00798999D03*
X01085399D03*
X01110799D03*
G54D98*
X01384999Y01019999D03*
X01059999Y00798999D03*
G54D99*
X01020749Y00148749D03*
Y00174149D03*
Y00199549D03*
Y00224949D03*
Y00250349D03*
Y00275749D03*
X01337499Y00718499D03*
Y00743899D03*
Y00769299D03*
Y00794699D03*
X00606499Y00238749D03*
Y00264149D03*
Y00289549D03*
Y00314949D03*
Y00340349D03*
Y00365749D03*
Y00391149D03*
X01000868Y00535453D03*
Y00510053D03*
Y00484653D03*
Y00459253D03*
X00245749Y00643349D03*
Y00617949D03*
Y00592549D03*
Y00567149D03*
Y00541749D03*
Y00516349D03*
Y00490949D03*
Y00465549D03*
Y00440149D03*
Y00414749D03*
X01051149Y00700749D03*
X01076549D03*
X01101949D03*
X01127349D03*
X01152749D03*
X01178149D03*
X01203549D03*
X01228949D03*
X01254349D03*
X01279749D03*
G54D100*
X00317999Y00727499D03*
X00930999Y00702499D03*
Y00270499D03*
G54D101*
X00195005Y00120027D03*
G54D102*
X00146999Y00087515D03*
Y00149999D03*
G54D103*
X00247249Y00138499D03*
Y00188499D03*
G54D104*
X01018999Y00962999D03*
G54D105*
X01496999Y00889D03*
Y00972999D03*
G54D106*
X01487999Y00922999D03*
Y00938999D03*
X01505999Y00946999D03*
Y00930999D03*
Y00914999D03*
X00079999Y00219999D03*
X00039999D03*
X00079999Y00259999D03*
X00039999D03*
Y00329999D03*
X00079999D03*
Y00369999D03*
X00039999D03*
X00271249Y00350749D03*
X01567999Y00761749D03*
X01409999Y00721749D03*
X01288999Y00842499D03*
X01655249Y00851499D03*
X01218749Y00941249D03*
X01181749Y00984749D03*
X01585749Y00679749D03*
Y00750249D03*
X01410999Y00835749D03*
X01406749Y00680499D03*
X01392249D03*
X01392749Y00821249D03*
Y00836249D03*
X01579749Y00777999D03*
X01676249Y00810499D03*
Y00823749D03*
X01676499Y00837499D03*
X01630249Y00808749D03*
X01592249Y00810749D03*
X01574749D03*
X01607249Y00840249D03*
X01589249Y00840749D03*
X01655499Y00796749D03*
X01626499Y00850749D03*
X01570999Y00851249D03*
X00455249Y00270299D03*
X00210249Y00753499D03*
X00077749Y00936999D03*
X00639499Y00123999D03*
X00107999Y00622499D03*
X00228999Y00820599D03*
X00158499Y00703499D03*
X00075999Y00871099D03*
X00228999D03*
X00678999Y00161999D03*
X00984499Y00358499D03*
X00924999Y00379499D03*
X01020999Y00408499D03*
X00997999Y00407499D03*
X00982999Y00395499D03*
X00938999Y00291999D03*
X00922999Y00301999D03*
X00938899Y00312399D03*
X00922999Y00323999D03*
X00938999Y00333999D03*
X01027999Y00765999D03*
X00406499D03*
X00817499D03*
X00909499Y00193499D03*
X00932999Y00161749D03*
X00918999Y00176999D03*
X00619529Y00126029D03*
X01015249Y00042249D03*
X01212029Y00562029D03*
X01319099Y00573999D03*
X01137029Y00945969D03*
X01253999Y00887999D03*
X01251999Y00905999D03*
X01230499Y00896499D03*
X01216999Y00889999D03*
X01392999Y00857999D03*
X01422999Y00907999D03*
X01261999Y00937999D03*
X01169999Y00902999D03*
X01035999Y01012999D03*
X01149999Y00878999D03*
X01021999Y00536999D03*
X01298999Y00892999D03*
X01243999Y00840999D03*
X01226999Y00973999D03*
X01173999Y00843999D03*
X01188999Y00858999D03*
X01187999Y00803999D03*
X01174999Y00789999D03*
X01160999Y00778999D03*
X01132999Y00410999D03*
X01041999Y00512999D03*
X01324999Y00911999D03*
X01213999Y00912999D03*
X01272999Y00975999D03*
X01433999Y00966999D03*
X01031999Y00325999D03*
X01039999Y00299999D03*
G54D107*
X00914999Y00995999D03*
X00783999Y00965999D03*
G54D108*
X01579499Y00042999D03*
X01089499D03*
Y00622999D03*
X01579499D03*
X00349499Y00114499D03*
Y00854499D03*
X00899499Y00114499D03*
Y00854499D03*
G54D109*
X01008499Y00743499D03*
X01364999Y00568499D03*
X01146999Y00600999D03*
X01391999Y00648999D03*
X01337999Y00649499D03*
X01274999Y00750999D03*
X01143999Y00986999D03*
X01147999Y00962999D03*
X01136999Y00157999D03*
G54D110*
X01659999Y00109999D03*
Y01009999D03*
X00059999Y00109999D03*
Y01009999D03*
G54D111*
X00863999Y00995999D03*
X00703999D03*
M02*